<svg xmlns="http://www.w3.org/2000/svg" viewBox="0 0 829 791">
  <path fill="currentColor" fill-rule="evenodd" d="M63.5 21.068c-9.429.908-13.197 1.97-18.834 5.307-9.279 5.492-16.663 16.062-18.691 26.756C24.851 59.059 24.838 648.6 25.961 670c.497 9.456 1.163 13.626 2.735 17.122 2.322 5.164 8.362 12.316 12.571 14.887 2.718 1.66 2.772 1.883 3.045 12.59.294 11.537 1.313 14.861 5.855 19.102 8.933 8.341 33.01 11.648 52.209 7.172 13.046-3.042 18.318-5.928 20.711-11.337 1.398-3.159 2.399-4.236 3.668-3.941 2.205.513 78.013 14.057 84.745 15.142l5 .805.644 7.19c.839 9.359 3.283 13.352 10.27 16.769 7.24 3.543 22.197 6.471 33.086 6.479 14.672.01 33.184-5.466 39.839-11.784 4.591-4.359 5.769-7.726 6.487-18.543l.674-10.153 7-1.843c4.036-1.063 13.351-2.2 22-2.686 21.179-1.189 36.027-5.601 45-13.371 2.818-2.44 3.637-2.598 13.5-2.606 18.441-.016 34.589-4.056 43.664-10.925l4.982-3.77 14.32-.727c20.304-1.031 33.935-4.944 43.385-12.454 3.478-2.764 3.996-2.859 18.364-3.387 18.387-.674 29.072-3.683 36.285-10.215 2.266-2.053 3.808-2.319 16.5-2.851 18.942-.794 29.71-3.922 38.252-11.11 2.826-2.378 3.755-2.556 13.392-2.568 16.657-.021 30.263-3.412 38.539-9.605 2.734-2.046 4.313-2.382 11.185-2.382 9.965 0 19.498-1.963 28.827-5.936 6.936-2.954 14.388-3.966 16.921-2.299.614.404 1.332 3.39 1.595 6.635.749 9.232 3.79 10.513 26.848 11.313 12.884.447 16.574.245 21.458-1.175 12.839-3.732 20.835-10.093 23.384-18.602.672-2.244 1.127-7.683 1.011-12.087l-.212-8.007 5.158-2.946c2.9-1.656 6.686-5.015 8.645-7.671 7.106-9.63 6.584 11.56 6.335-257.225-.123-133.375-.485-249.971-.805-259.101l-.582-16.601-3.893-7.899c-7.853-15.936-19.509-23.612-38.568-25.4-8.728-.819-12.431-.735-23.634.535-3.482.395-7.036.023-11-1.152-6.736-1.997-33.211-2.427-39.484-.643-2.949.839-4.73.651-9.5-1.002-4.922-1.706-8.542-2.051-22.372-2.134-10.07-.06-17.965.357-20.258 1.071-3.22 1.002-4.579.869-9.5-.928-4.936-1.803-7.918-2.091-21.242-2.05-8.525.026-17.999.569-21.053 1.206-4.681.976-6.564.885-12-.578-8.225-2.215-34.99-2.28-41.947-.103-4.124 1.291-4.96 1.236-10-.656-4.869-1.828-7.738-2.065-25-2.065-12.372 0-20.654.426-22.656 1.165-2.561.946-3.976.862-7.5-.446-6.075-2.255-40.762-2.971-49.344-1.019-5.193 1.181-6.538 1.163-10-.133-4.939-1.848-48.205-2.795-54.044-1.182-2.727.753-5.142.65-9.319-.397-7.049-1.767-32.464-2.497-49.637-1.427-7.15.446-15.25.422-18-.054-6.374-1.103-208.31-1.969-219-.939m-3.561 16.288c-5.02 1.364-10.414 4.795-11.899 7.569-.883 1.65-.102 1.835 10.252 2.419 6.164.348 42.258.899 80.208 1.226s72.428.987 76.617 1.467c8.813 1.011 13.292 3.296 16.883 8.614l2.5 3.702.267 111.028.267 111.029-2.527 5.166c-2.942 6.013-7.777 9.749-14.912 11.521-5.679 1.411-39.943.873-101.095-1.587-53.683-2.16-61.124-2.767-66.316-5.416-2.355-1.202-4.533-2.839-4.84-3.639S44.384 289 43.893 289c-1.315 0-1.155 377.769.163 386 2.056 12.834 6.032 15.111 34.944 20.023 9.625 1.634 22.45 3.85 28.5 4.922 70.353 12.474 108.147 18.98 113.623 19.56 11.79 1.248 19.12-3.944 20.79-14.726 1.246-8.041.311-627.752-.959-636.279-1.968-13.203-7.759-22.249-17.454-27.265-4.687-2.425-6.222-2.633-24.5-3.312-10.725-.398-45.375-.967-77-1.265-44.024-.414-58.569-.25-62.061.698M245.9 46.25c7.719 14.161 7.396 10.404 8.07 93.75.332 40.975.587 186.1.567 322.5l-.037 248-2.262 4.905c-1.244 2.697-2.06 5.106-1.813 5.353.857.858 42.818-8.488 48.708-10.848 3.573-1.432 7.39-5.587 9.564-10.41 1.725-3.826 1.803-17.251 1.803-309 0-167.75-.282-310.075-.626-316.277-.551-9.928-1.004-12.044-3.787-17.697-1.897-3.854-4.967-8.011-7.679-10.398C291.084 39.681 287.73 39 263.296 39h-21.348zm74.1-6.786c0 .412 1.093 1.608 2.428 2.658 3.977 3.128 10.403 13.612 12.705 20.728 1.623 5.018 2.3 10.304 2.759 21.542l.608 14.892 5.363 2.035c7.011 2.66 14.986 10.044 19.018 17.609 6.48 12.158 6.083-6.085 6.102 279.875.019 287.636.459 268.091-6.287 279.256-1.9 3.144-5.158 6.632-8.033 8.6-4.414 3.021-6.739 3.919-14.913 5.76-2.684.604-2.75.789-2.75 7.734v7.116l6.75-.517c14.612-1.118 26.185-8.811 29.906-19.879 1.723-5.124 1.811-17.44 1.894-265.373.048-143-.176-280.925-.498-306.5-.575-45.606-.63-46.611-2.903-52.282-4.242-10.587-12.76-19.021-21.972-21.756C345.812 39.666 320 38.385 320 39.464m65.833 4.67c9.34 9.41 12.055 17.083 13.547 38.284l1.12 15.919 4.267 1.42c9.844 3.278 19.632 16.248 22.069 29.243.686 3.659 1.137 91.532 1.348 262.5.292 237.134.188 257.396-1.342 262.122-4.483 13.849-10.704 20.219-22.342 22.879l-5 1.143-.299 6.826-.299 6.826 7.466-.565c12.366-.935 20.503-5.77 25.431-15.111l2.701-5.12.276-293.5c.181-193.149-.07-296.378-.734-301.918-1.838-15.316-8.386-25.665-19.792-31.28-6.202-3.053-7.329-3.261-19.665-3.636l-13.085-.398zm57.826.116c9.46 10.273 13.305 20.87 14.206 39.148l.635 12.899 4.939 1.437c3.809 1.108 6.461 2.961 11.591 8.101 7.746 7.76 10.53 13.903 12.061 26.615.609 5.057.864 99.69.686 254.55-.265 230.538-.396 246.872-2.017 252.25-1.939 6.428-5.635 12.783-9.613 16.529-3.439 3.239-11.894 7.199-15.397 7.211-2.742.01-2.75.03-2.75 7.148v7.138l6.362-.652c12.983-1.33 20.588-5.81 25.422-14.975l2.716-5.149.286-287c.195-195.29-.047-289.546-.758-294.969-3.109-23.725-17.118-34.495-44.905-34.523L439.745 40zm59.323 2.824C511.973 57.878 516 70.33 516 87.331v9.2l5.109 1.814c10.003 3.553 18.563 14.888 20.899 27.674.664 3.637.92 89.54.75 252-.242 231.232-.366 246.796-1.999 251.569-3.395 9.924-10.107 16.797-18.472 18.914l-4.787 1.212-.301 6.286-.302 6.287 6.108-.554c7.592-.688 16.124-4.724 19.588-9.266 5.757-7.547 5.408 11.466 5.39-294.376-.019-302.588.207-288.917-4.95-299.026-2.903-5.69-9.254-11.802-14.681-14.129-4.707-2.017-9.577-2.729-22.509-3.292l-7.657-.333zM554 42.224c0 .289 1.524 2.189 3.387 4.222 4.196 4.581 9.121 14.261 10.984 21.588.774 3.044 1.736 10.356 2.138 16.25.657 9.648.921 10.716 2.65 10.716 3.17 0 9.079 3.564 13.54 8.167 4.856 5.01 8.882 13.197 10.322 20.991.663 3.584.917 87.648.743 245.894L597.5 610.5l-2.208 5.846c-3.033 8.029-8.162 13.974-14.742 17.087-2.984 1.412-6.354 2.567-7.488 2.567-1.876 0-2.062.6-2.062 6.638v6.638l6.59-.675c12.163-1.246 19.519-6.669 23.152-17.069 1.661-4.754 1.757-20.155 1.736-279.032-.021-255.641-.138-274.501-1.745-281.481-3.127-13.586-11.181-23.293-21.988-26.502C573.683 43.014 554 41.19 554 42.224m54 1.397c0 .504 1.865 3.157 4.145 5.897 7.721 9.278 10.832 19.681 10.847 36.263.007 7.006.278 8.367 1.758 8.835 9.135 2.889 15.726 8.789 19.782 17.709 1.295 2.846 2.849 9 3.453 13.675.78 6.026 1.013 75.889.802 240-.281 217.568-.404 231.81-2.052 236.651-2.907 8.54-7.528 14.491-13.664 17.599-2.986 1.512-6.368 2.75-7.514 2.75-1.87 0-2.115.671-2.374 6.5-.335 7.515-.451 7.458 10.476 5.167 7.419-1.555 12.293-5.029 16.069-11.451l2.772-4.716.257-270.313c.278-292.327.539-276.807-4.819-287.308-3.511-6.883-9.538-12.585-15.781-14.93C626.158 43.696 608 41.946 608 43.621m52 1.741c0 .2 1.395 2.112 3.101 4.25 7.168 8.987 10.564 19.573 11.093 34.575l.306 8.686 4.5 1.135c6.659 1.678 13.75 9.391 17 18.492l2.5 7V353c0 222.643-.084 233.741-1.808 238.682-3.48 9.977-10.619 16.871-19.442 18.775-3.181.687-3.25.818-3.25 6.122V622h4.322c10.885 0 21.198-7.225 23.633-16.556 1.039-3.985 1.251-55.572 1.093-265.944-.115-152.915-.575-263.001-1.112-265.833-2.784-14.693-11.655-24.689-24.255-27.33-5.636-1.181-17.681-1.845-17.681-.975m52.835 5.804c7.205 9.542 11.112 21.648 11.148 34.544l.017 6.21 4.25 1.262c5.915 1.757 12.854 8.924 15.857 16.377l2.393 5.941v461l-2.371 5.881c-3.812 9.455-8.97 14.221-17.379 16.057-2.627.573-2.75.869-2.75 6.581 0 5.893.041 5.981 2.818 5.981 5.776 0 13.218-3.036 17.198-7.016 7.61-7.61 7.037 15.539 6.745-272.529-.247-244.574-.353-258.186-2.04-262.412-2.973-7.45-7.63-13.794-12.488-17.012-5.478-3.629-9.08-4.656-19.613-5.591l-7.881-.699zM758 48.758c0 .206 1.074 1.808 2.386 3.559 3.584 4.782 6.288 10.625 7.978 17.243 1.335 5.224 1.548 37.526 1.763 268.043l.244 262.103 3.065-.719c13.343-3.13 17.736-6.348 20.208-14.802 1.538-5.261 1.61-24.36.965-256.185-.384-137.775-1.074-252.159-1.534-254.188-2.287-10.085-8.514-18.464-16.17-21.758C772.54 50.177 758 47.641 758 48.758M89 87.223c-2.879 1.528-3.651 4.539-1.788 6.975 1.042 1.362 3.293 1.724 11.788 1.897 5.775.118 11.063.65 11.75 1.182 1.301 1.007 1.785 13.165.643 16.141-.489 1.276-2.3 1.582-9.352 1.582-10.925 0-14.717 2.034-16.8 9.013-1.734 5.81-1.305 23.006.631 25.336 1.177 1.415 3.781 1.651 18.215 1.651 15.241 0 16.935-.172 17.813-1.813.657-1.228.579-2.6-.242-4.25-1.176-2.362-1.598-2.446-13.647-2.719-8.407-.191-12.684-.677-13.207-1.5-.918-1.446-1.067-12.869-.197-15.136.494-1.287 2.356-1.582 9.984-1.582 8.948 0 9.527-.134 12.643-2.918l3.266-2.918v-11.332c0-12.279-1.382-16.546-6.048-18.672-3.864-1.761-22.6-2.45-25.452-.937m43.571 1.348c-2.192 2.193-2.323 32.017-.153 34.988 1.226 1.679 2.915 1.987 12.5 2.279l11.082.339v11.34c0 8.976.328 11.668 1.571 12.912 2.146 2.145 5.143 1.975 6.394-.363 1.19-2.223 1.442-58.927.27-60.639-1.237-1.806-4.277-2.475-6.307-1.388-1.729.925-1.928 2.196-1.928 12.305 0 14.31-.347 14.866-9.026 14.46l-6.474-.304-.27-12.5c-.222-10.306-.563-12.719-1.941-13.75-2.227-1.665-3.821-1.576-5.718.321m48.81 1.339c-5.359 3.267-7.09 12.774-3.423 18.789 3.296 5.406 14.095 6.86 15.606 2.101.859-2.71-.536-3.852-5.522-4.521-3.143-.422-4.415-1.13-5.055-2.814-1.313-3.452-.094-6.418 2.882-7.013 5.659-1.131 7.625-2.063 7.954-3.771.895-4.646-6.621-6.321-12.442-2.771M674.004 354.5c-.007 133.375.258 242.5.588 242.5 2.144 0 6.537-4.764 8.08-8.763 1.751-4.539 1.828-14.304 1.828-233.237 0-217.171-.089-228.722-1.789-232.986-1.718-4.309-6.213-10.014-7.89-10.014-.443 0-.81 109.125-.817 242.5m50.028-6.25c-.012 140.578.348 236.75.885 236.75 1.549 0 5.847-5.768 7.247-9.725 1.961-5.541 1.986-445.627.026-452.105-.721-2.382-2.847-5.982-4.724-8l-3.415-3.67zm-153.007 19c-.014 142.712.355 254.75.84 254.75 2.177 0 6.144-4.452 7.806-8.761 1.754-4.544 1.829-14.616 1.829-244.239 0-195.396-.243-240.303-1.319-243.863-.725-2.399-3.076-6.224-5.225-8.5l-3.906-4.137zm51.979-6.287c.01 204.572.243 248.037 1.329 248.037 1.908 0 5.295-3.913 7.369-8.514 1.711-3.794 1.811-15.13 2.061-235.413.233-205.358.089-232.101-1.273-237.418-1.729-6.748-4.734-12.18-7.583-13.705-1.884-1.008-1.914 2.978-1.903 247.013M458 382.428v267.685l3.126-1.806c4.311-2.492 7.551-7.781 8.762-14.307 1.062-5.716 1.124-207.227.126-403.5l-.514-101-2.513-4.882c-1.382-2.685-3.97-6.005-5.75-7.378L458 114.744zm59-6.315v260.131l2.25-1.431c1.237-.788 3.522-3.948 5.077-7.023l2.826-5.592-.108-244.349c-.074-168.839-.435-245.585-1.169-248.349-1.387-5.227-4.537-10.807-6.951-12.315C517.027 116 517 119.631 517 376.113m-118 14.352c0 223.363.235 272.535 1.304 272.535 1.744 0 7.023-5.655 9.334-10 1.802-3.387 1.862-11.784 1.862-261V134.5l-2.299-4.988c-2.384-5.172-5.435-9.013-8.451-10.639-1.665-.897-1.75 12.342-1.75 271.592m-62 8.023v279.625l3.111-1.806c4.246-2.467 8.374-7.645 9.748-12.229.842-2.812 1.141-71.622 1.141-262.734 0-230.19-.171-259.585-1.544-264.884-1.8-6.95-5.094-12.354-9.398-15.418L337 118.864zM77.122 175.278c-.617.617-1.122 2.795-1.122 4.84 0 6.08-.68 6.88-5.857 6.897-5.725.019-7.417 1.012-6.98 4.098.296 2.099.937 2.425 5.312 2.701 2.736.173 5.525.771 6.198 1.33.673.558 1.36 3.117 1.525 5.686.252 3.903.631 4.67 2.302 4.67 1.495 0 2.069-.758 2.274-3 .659-7.211.893-7.5 6.045-7.5 5.242 0 7.181-1.241 7.181-4.593 0-2.636-1.717-3.407-7.582-3.407-4.293 0-4.421-.092-4.536-3.25-.066-1.787-.05-3.634.034-4.104.596-3.326-2.769-6.393-4.794-4.368m51.033-.035c-7.69 2.531-12.487 12.097-10.243 20.429 2.218 8.237 11.006 13.504 18.957 11.363 10.751-2.895 15.162-13.632 9.881-24.05-3.483-6.872-11.322-10.136-18.595-7.742m1.058 6.264c-7.513 3.264-7.626 15.078-.179 18.722 7.258 3.551 13.966-1.13 13.966-9.745 0-4.901-1.52-7.385-5.548-9.069-4.079-1.704-4.107-1.704-8.239.092m44.037 5.104c-1.817.808-1.56 6.056.332 6.782 3.054 1.172 26.955.67 28.218-.593 1.646-1.646 1.508-4.468-.252-5.143-2.077-.797-26.802-1.711-28.298-1.046m-44.534 51.139c-7.586 12.719-8.025 13.819-7.471 18.732.624 5.533 3.558 9.079 8.817 10.655 7.535 2.257 14.462-2.383 15.564-10.427.597-4.352.271-5.322-4.675-13.944-5.004-8.724-6.509-10.714-8.129-10.751-.372-.008-2.22 2.573-4.106 5.735M77 241.427c0 7.963.145 8.573 2.04 8.573 1.913 0 2.023-.517 1.75-8.239-.243-6.914-.571-8.293-2.04-8.573-1.557-.298-1.75.613-1.75 8.239m-8.172-5.39c-5.897 3.44-7.805 15.957-3.562 23.359 2.943 5.133 7.733 7.606 14.718 7.597 6.166-.007 10.048-1.969 13.099-6.619 2.504-3.818 3.429-10.723 2.051-15.322-1.155-3.853-5.225-9.052-7.086-9.052-1.651 0-1.223 4.15.641 6.209 1.032 1.141 1.853 4.129 2.11 7.689.388 5.358.179 6.095-2.607 9.213-2.767 3.097-3.516 3.389-8.692 3.389-5.112 0-5.943-.313-8.528-3.206-4.148-4.642-4.761-9.407-2.017-15.687 3.835-8.782 3.817-9.872-.127-7.57m103.222 10.402c-1.051 1.267-1.154 2.174-.387 3.395.822 1.308 3.387 1.818 11.942 2.374 12.35.803 17.732.296 19.502-1.836.972-1.172.923-1.77-.238-2.932-1.069-1.069-5.189-1.628-15.422-2.094-12.487-.568-14.114-.452-15.397 1.093M293.053 553.75c-1.114 4.009-1.497 82.991-.423 87 .675 2.519 5.059 3.161 7.17 1.05.897-.897 1.2-12.248 1.2-44.918 0-24.045-.273-44.43-.607-45.3-.357-.93-1.78-1.582-3.453-1.582-2.437 0-2.996.539-3.887 3.75m-13.456.416c-1.403 2.002-1.597 7.569-1.597 45.865 0 46.928.064 47.519 5.056 46.814 2.203-.311 2.501-.937 3.026-6.345.913-9.407.989-81.653.09-85-1.031-3.834-4.352-4.508-6.575-1.334m-14.485 2.199c-.815.983-1.06 14.072-.872 46.75l.26 45.385 2.891.33c1.643.188 3.256-.244 3.735-1 1.407-2.219 1.094-90.21-.326-91.63-1.599-1.599-4.289-1.521-5.688.165M766.25 618.03c-1.869.752-2.25 1.673-2.25 5.438 0 4.131.215 4.532 2.427 4.532 2.907 0 6.573-4.258 6.573-7.635 0-1.301-.413-2.365-.918-2.365s-1.518-.197-2.25-.437c-.733-.241-2.345-.031-3.582.467M64 713.551c0 3.161 3.888 4.998 12.688 5.993 5.719.647 6.147.551 6.807-1.527.387-1.22.321-2.574-.146-3.008-.792-.736-15.65-4.009-18.199-4.009-.632 0-1.15 1.148-1.15 2.551m176.189 28.619c.292 4.071.55 4.409 4.311 5.657 2.2.73 7.262 1.582 11.25 1.894l7.25.568.15-3.645c.083-2.004.195-4.206.25-4.894.065-.818-2.145-1.489-6.4-1.941-3.575-.381-8.89-.979-11.811-1.33l-5.312-.638z"/>
</svg>
