<svg xmlns="http://www.w3.org/2000/svg" viewBox="0 0 870 870">
  <path fill="currentColor" fill-rule="evenodd" d="M318.5 6.655c-2.75.162-14.225.776-25.5 1.364-40.198 2.095-94.214 7.226-120.34 11.43-32.783 5.275-50.308 12.396-55.41 22.513-1.66 3.291-2.25 6.205-2.25 11.102 0 8.784 4.297 42.828 13.496 106.936 4.144 28.875 9.593 66.9 12.109 84.5l4.575 32-2.607 44c-1.433 24.2-2.827 47.6-3.098 52s-.942 16.325-1.49 26.5a9526 9526 0 0 1-1.992 35.5c-1.682 28.75-1.917 33.203-4.957 94-7.573 151.43-8.048 164.091-6.375 169.728 1.953 6.58 9.535 14.43 25.585 26.488 17.534 13.174 29.613 20.59 50.82 31.203 33.512 16.771 61.53 26.006 97.268 32.063 9.259 1.57 16.936 3.003 17.061 3.186.124.182 1.637 2.583 3.361 5.335 5.064 8.08 17.968 16.69 43.31 28.898 42.375 20.414 82.386 32.613 125.434 38.246 19.469 2.547 59.65 2.28 86.884-.577 53.583-5.622 102.622-15.542 143.85-29.097 40.002-13.152 54.149-23.962 52.313-39.973-.284-2.475-1.253-20.678-2.153-40.451-1.8-39.54-2.07-41.044-8.504-47.395-5.08-5.014-10.537-8.535-22.54-14.544-26.792-13.412-76.787-31.856-111.229-41.035-5.159-1.375-9.579-2.7-9.823-2.944-.635-.634-2.424-21.999-12.321-147.131-2.219-28.05-5.365-67.2-6.991-87-6.206-75.569-7.114-90.024-7.099-113 .009-12.65.269-27.275.58-32.5s1.245-21.65 2.078-36.5c2.013-35.882 4.166-69.659 5.96-93.5 4.119-54.735 5.567-82.016 4.553-85.724-2.928-10.698-11.824-17.456-31.765-24.128C544.604 19.217 481.743 10.372 421 7c-15.543-.862-89.496-1.111-102.5-.345M335 21.593c-108.297 4.38-179.556 11.781-190.506 19.787-1.827 1.337-1.596 1.534 3.526 3.013 15.923 4.597 54.653 11.149 97.48 16.491 50.006 6.237 58.878 6.656 110.5 5.217 24.475-.682 60.475-1.629 80-2.104 31.398-.764 50.304-2.228 58-4.489.825-.243 10.275-1.585 21-2.983 26.238-3.42 51.736-7.395 55.937-8.72l3.437-1.084-2.155-1.745c-4.907-3.974-31.797-10.731-57.219-14.379-17.84-2.559-57.626-6.536-76-7.596-18.175-1.048-89.14-2.009-104-1.408m107.465 9.301c-3.387 1.469-4.909 4.12-5.45 9.492L436.5 45.5l-6.21.594c-6.959.666-9.29 2.047-9.29 5.505 0 3.853 3.835 5.456 15.691 6.559 11.287 1.05 41.836-.251 49.809-2.121 4.594-1.078 7.55-4.13 6.795-7.017-.585-2.238-5.649-4.006-11.5-4.014-3.905-.006-3.952-.089-5.112-8.9-.1-.767-1.437-2.329-2.969-3.472-2.439-1.819-4.435-2.113-16-2.351-7.268-.149-14.13.125-15.249.611m13.773 12.268c-2.094 2.094-1.443 4.748 1.335 5.446 3.14.788 4.708-.589 4.262-3.743-.379-2.676-3.633-3.667-5.597-1.703M137.537 63.941c-2.471 3.997 4.334 7.69 22.463 12.188 20.172 5.005 27.701 4.917 24.914-.29-1.097-2.05-2.377-2.435-26.403-7.954-9.894-2.272-18.511-4.332-19.149-4.576-.638-.245-1.459.039-1.825.632M576.5 65.148c-9.687 2.295-41.546 7.137-58.496 8.891-14.828 1.535-18.745 2.254-19.75 3.629-1.472 2.013-1.555 3.309-.333 5.238 1.138 1.798 15.138 1.066 36.579-1.913 39.692-5.514 52.802-9.316 51.06-14.805-.761-2.398-2.489-2.596-9.06-1.04m-372.75 2.541c-1.019.267-1.75 1.407-1.75 2.729 0 5.103 4.832 6.553 36.5 10.951 24.625 3.42 48.203 5.847 53.008 5.456 3.645-.297 4.018-.593 4.293-3.41.168-1.719-.299-3.584-1.055-4.211-.746-.619-9.432-2.072-19.301-3.228-9.87-1.156-29.533-3.649-43.696-5.539s-25.863-3.385-26-3.321-1.036.322-1.999.573M393 82.057c-6.325.403-26.008 1.077-43.74 1.498-28.431.676-32.422.967-33.776 2.462-1.383 1.528-1.368 1.834.146 3.09 3.048 2.526 75.645 1.132 100.357-1.928 4.261-.527 5.567-1.099 5.848-2.559.199-1.034-.245-2.265-.987-2.735-1.521-.964-10.92-.906-27.848.172M139.591 90.25c.338 2.338 1.468 9.755 2.512 16.483 1.043 6.729 1.897 12.467 1.897 12.752s1.681-.382 3.735-1.483c4.042-2.166 10.222-2.544 16.765-1.026 3.642.845 4.269.677 7-1.873 6.887-6.429 12.417-7.668 20.963-4.694 2.637.918 4.75 1.08 6.315.485 1.294-.492 3.785-.892 5.537-.889 2.991.005 4.67.818 11.021 5.334 2.122 1.51 3.355 1.681 6.875.954 6.112-1.261 10.93-.141 15.725 3.656l4.168 3.302 6.099-3.197c10.02-5.252 18.316-4.295 27.671 3.194 4.196 3.36 4.632 3.481 10.719 2.993 7.852-.631 11.35.706 15.967 6.101l3.48 4.065 2.925-1.727c1.608-.95 5.532-2.21 8.721-2.799 4.47-.826 6.733-1.934 9.882-4.837 6.926-6.384 15.421-6.361 23.417.064l4.072 3.272 6.221-3.19c8.031-4.118 14.014-4.33 17.998-.635 1.515 1.405 4.202 3.163 5.97 3.906 3.647 1.534 6.651.52 10.254-3.461 4.494-4.966 11.914-6.396 18.628-3.591 3.154 1.318 3.763 1.223 9.373-1.459 3.501-1.674 7.717-2.885 10.125-2.909 2.269-.023 6.769-1.214 10-2.648 7.385-3.278 13.933-3.441 18.967-.471 3.174 1.873 4.103 2.004 7.136 1.002 4.893-1.615 9.687-.569 16.409 3.581 5.306 3.274 6.214 3.517 10.856 2.901 3.402-.451 6.286-1.645 8.786-3.636 7.964-6.347 11.79-7.065 20.337-3.818l5.138 1.953 4.622-2.332c7.889-3.978 11.855-4.133 18.349-.717 4.877 2.565 6.16 2.845 9.557 2.081 4.247-.954 8.908-.025 12.858 2.563 1.874 1.228 2.495 1.29 2.854.285.564-1.583 3.339-31.16 2.965-31.607-.148-.176-6.521 1.048-14.162 2.722-16.643 3.645-44.672 8.245-67.298 11.045-9.075 1.123-19.65 2.473-23.5 3s-9.925 1.227-13.5 1.553c-16.066 1.469-29.874 3.882-35.382 6.182-5.372 2.243-6.313 2.353-10.856 1.263-6.503-1.56-14.619-.556-20.794 2.573-5.932 3.006-8.369 3.085-14.968.484-6.213-2.449-8.568-2.461-17.5-.088l-7 1.86-6.5-2.509c-10.327-3.986-16.938-3.612-27.354 1.55-10.239 5.073-15.282 5.478-20.879 1.675-3.816-2.593-4.516-4.234-6.394-14.988l-.873-5-6.5-.702c-3.575-.386-13.25-1.425-21.5-2.308-14.425-1.543-52.678-6.757-59.107-8.055-2.989-.604-3.13-.478-3.741 3.339-.925 5.784-2.434 6.608-10.926 5.96-9.51-.724-35.459-6.082-44.73-9.235-9.993-3.399-10.146-3.371-9.405 1.751m50.718 32.854c-2.973.86-6.353 4.404-7.529 7.896-1.421 4.217 4.974 10.264 12.683 11.992 9.65 2.162 15.78-4.689 12.091-13.517-2.591-6.202-9.284-8.675-17.245-6.371m254.091 5.661c-2.273 1.518-3.51 5.16-2.435 7.169 1.808 3.378 1.271 4.201-2.306 3.53-4.709-.884-11.18 1.112-13.605 4.195-2.464 3.132-2.701 8.972-.493 12.124 3.778 5.394 12.821 6.816 19.494 3.066 4.47-2.512 6.43-6.471 5.634-11.378-.521-3.208-.302-3.606 2.656-4.842 2.226-.93 3.819-2.667 5.147-5.611l1.923-4.264-2.763-2.377c-2.07-1.78-3.942-2.373-7.458-2.362-2.582.009-5.189.346-5.794.75m96.436 2.529c-5.752 4.388-6.89 7.701-4.305 12.529 1.083 2.022 3.464 4.424 5.292 5.336 4.674 2.335 8.712.954 13.978-4.782 3.637-3.961 4.255-5.234 4-8.248-.234-2.767-1.061-4.075-3.699-5.847-5.003-3.36-9.965-3.031-15.266 1.012m-323.913.629c-5.854 5.854-2.291 13.014 8.263 16.602 4.17 1.418 5.001 1.43 7.555.109 2.896-1.498 5.262-5.294 5.255-8.431-.002-.937-.882-3.144-1.956-4.904-4.148-6.804-13.957-8.536-19.117-3.376m297.171-1.617c-9.475 3.32-9.898 16.515-.585 18.262 4.236.794 8.308-.72 11.81-4.391 5.743-6.02 5.421-11.134-.867-13.762-4.024-1.681-5.818-1.7-10.358-.109m-357.448 3.146c-2.183 2.024-2.646 3.329-2.646 7.465 0 4.172.516 5.601 3.076 8.517 5.877 6.693 14.196 5.342 17.468-2.835 3.369-8.42-1.452-15.599-10.475-15.599-3.685 0-5.382.561-7.423 2.452M469 131.702c-.825.299-2.962 1.927-4.75 3.617-5.579 5.276-3.942 13.24 3.349 16.287 6.944 2.901 12.165 1.2 15.477-5.043 4.267-8.043.11-15.648-8.461-15.484-2.263.043-4.79.324-5.615.623m100.786 2.672c-5.548 3.842-8.786 7.673-8.786 10.394 0 1.074 1.08 3.544 2.4 5.489s2.71 4.513 3.088 5.706c.902 2.84 6.369 9.037 7.973 9.037 1.38 0 2.085-5.105 3.168-22.945.634-10.442.566-11.052-1.229-11-1.045.03-4.021 1.524-6.614 3.319m-316.286-1.41c-6.11 2.558-8.059 8.121-4.951 14.13 4.753 9.191 19.204 8.973 24.425-.369 1.402-2.508 1.364-3.032-.474-6.446-3.716-6.906-12.187-10.167-19-7.315m149 5.021c-8.557 1.914-12.955 9.883-8.854 16.042 3.681 5.529 7.747 6.34 15.083 3.009 7.542-3.424 10.733-12.375 5.996-16.824-2.497-2.346-7.565-3.269-12.225-2.227m-51.112.995c-2.903 1.173-6.388 5.821-6.388 8.52 0 5.428 6.531 9.421 13.061 7.987 3.566-.784 8.939-7.486 8.939-11.152 0-4.638-9.403-7.863-15.612-5.355m138.112 4.802c-6.305 3.976-6.93 9.942-1.599 15.273 5.679 5.679 14.182 4.505 17.464-2.412 2.373-4.999 2.037-7.884-1.289-11.07-3.848-3.686-10.311-4.48-14.576-1.791m-170.771 3.151c-6.446 5.66-5.648 12.531 1.817 15.651 9.183 3.836 18.454-1.003 18.454-9.632 0-5.397-3.498-8.216-10.855-8.748-5.396-.39-6.094-.188-9.416 2.729m-40.427-.921c-1.208.487-2.86 2.166-3.669 3.731-1.469 2.84-1.457 2.86 5.484 9.151 6.018 5.455 7.32 6.213 9.659 5.626 3.559-.893 4.19-2.073 4.209-7.87.013-4.193-.446-5.311-3.385-8.25-3.548-3.548-7.508-4.317-12.298-2.388m96.698.808c-6.596 2.989-9.659 7.853-8.577 13.62.898 4.786 4.688 7.56 10.33 7.56 3.873 0 5.01-.527 8.365-3.882 3.399-3.4 3.882-4.462 3.882-8.546 0-6.146-3.168-9.604-8.705-9.502-2.087.039-4.47.376-5.295.75m-166 5.886c-5.652 2.066-7.58 8.338-4.434 14.422 2.465 4.767 10.769 7.369 15.477 4.849 3.833-2.052 6.554-10.573 4.685-14.675-1.954-4.289-10.075-6.662-15.728-4.596m313.27.839c-4.424 1.887-6.725 5.152-6.725 9.543 0 5.383 6.202 11.8 12.181 12.602 3.588.481 4.475.153 7.79-2.885 3.14-2.878 3.819-4.234 4.222-8.434.41-4.266.121-5.424-1.963-7.846-2.917-3.392-10.929-4.932-15.505-2.98m-345.495 2.014c-5.268 2.859-6.302 8.88-2.495 14.529 4.416 6.552 11.933 7.884 17.634 3.125 2.798-2.336 3.419-3.624 3.835-7.954.456-4.74.245-5.419-2.549-8.213-2.648-2.648-3.742-3.041-8.373-3.006-2.93.022-6.553.706-8.052 1.519m62.241 1.538c-4.928 1.055-8.016 4.999-8.016 10.236 0 5.622 2.001 8.178 7.483 9.558 6.141 1.547 9.97-.4 12.634-6.423 1.755-3.966 1.804-4.721.515-7.807-2.088-4.996-6.394-6.895-12.616-5.564m26.372 2.883C254.303 164.459 258.868 184 271 184c4.844 0 8.654-3.027 11.156-8.863 2.208-5.152 1.907-7.626-1.378-11.326-4.087-4.604-9.897-6.05-15.39-3.831m205.51 1.279c-4.538 3.017-8.064 10.114-7.324 14.741 1.358 8.486 9.026 14.506 15.007 11.781 2.692-1.227 2.601-1.059 2.971-5.451.147-1.744 1.433-4.886 2.858-6.983 3.584-5.274 3.365-8.772-.81-12.947-4.08-4.08-7.781-4.413-12.702-1.141m-63.398.98c-4.701 2.73-6.902 6.653-6.011 10.712 1.645 7.487 19.095 7.192 24.074-.407 5.587-8.526-7.889-16.213-18.063-10.305m142.77-.768c-3.713 1.627-7.261 6.825-7.266 10.644-.008 5.217 7.03 10.885 13.514 10.885 5.86 0 11.488-5.492 11.478-11.2-.012-7.703-10.19-13.634-17.726-10.329m-205.143 1.99C338.55 165.568 335 169.442 335 174.513c0 5.374 3.068 8.487 8.364 8.487 4.749 0 8.508-1.952 12.488-6.484 7.611-8.669.939-16.792-10.725-13.055m94.228 5.136c-5.428 2.677-7.646 5.858-8.12 11.645-.35 4.261-.031 5.765 1.679 7.931 4.442 5.626 13.895 4.893 20.676-1.605 3.666-3.512 4.41-4.853 4.41-7.946 0-2.047-.661-5-1.47-6.563-2.48-4.797-10.991-6.513-17.175-3.462m-133.169 2.9c-4.024 3.386-4.666 6.628-2.35 11.865 3.158 7.14 11.187 9.641 17.809 5.549 3.997-2.471 5.355-4.697 5.355-8.78 0-7.478-4.226-11.131-12.874-11.131-3.844 0-5.646.567-7.94 2.497m191.85 1.753c-8.182 4.196-10.171 12.951-4.6 20.255 2.871 3.765 8.812 6.152 12.811 5.148 5.71-1.433 11.682-9.404 11.727-15.653.043-5.845-6.743-12-13.23-12-1.276 0-4.295 1.012-6.708 2.25m-133.545 1.615c-2.204 1.002-5.516 3.539-7.36 5.638-2.928 3.335-3.284 4.321-2.817 7.804.678 5.05 3.332 7.714 8.289 8.321 4.855.594 9.113-1.873 13.367-7.745 3.876-5.351 4.246-11.918.807-14.326-2.924-2.049-7.342-1.938-12.286.308m-205.351 2.149c-1.658 1.658-3.31 3.947-3.672 5.087-1.178 3.712.512 8.812 4.113 12.414 2.768 2.767 4.275 3.485 7.317 3.485 4.76 0 8.559-2.826 10.108-7.519 3.816-11.56-9.635-21.698-17.866-13.467m35.419.252c-2.589 1.467-4.768 3.841-6.35 6.916-2.104 4.09-2.265 5.118-1.271 8.129 1.671 5.064 4.323 6.969 10.327 7.42 6.608.495 11.361-1.915 14.469-7.335 6.887-12.014-4.685-22.208-17.175-15.13m92.749-.247c-6.232 2.484-6.209 9.664.053 16.381 7.685 8.245 13.556 6.895 13.782-3.168.126-5.579-1.552-9.184-5.407-11.614-3.294-2.077-5.96-2.583-8.428-1.599m104.025 1.068c-1.742.51-4.378 2.366-5.857 4.124-2.267 2.694-2.613 3.879-2.201 7.534.61 5.41 2.621 7.686 8.165 9.238 3.688 1.033 4.861.968 7.811-.432 4.197-1.991 5.749-5.076 5.749-11.424 0-3.676-.519-5.255-2.25-6.845-2.784-2.557-7.248-3.415-11.417-2.195m141.853 8.41c-4.194 3.529-4.74 6.745-1.98 11.656 4.441 7.901 14.42 11.137 20.165 6.54 2.384-1.908 2.86-3.025 2.811-6.594-.154-11.155-13.055-18.284-20.996-11.602m37.314-1.33c-6.644 3.674-8.865 9.238-5.974 14.962 2.048 4.055 6.4 8.871 8.016 8.871 1.251 0 2.439-9.326 2.451-19.25.007-6.046-.645-6.711-4.493-4.583m-347.244 2.862c-2.89 1.162-6.247 6.678-6.252 10.271-.012 8.657 11.36 17.133 18.575 13.846 3.085-1.406 6.412-6.816 6.417-10.436.006-4.146-3.639-10.522-7.286-12.745-3.399-2.073-7.744-2.428-11.454-.936m192.244 1.464c-12.773 4.562-11.218 20.507 2 20.507 9.551 0 16.163-11.849 10.25-18.37-2.888-3.185-7.206-3.938-12.25-2.137m40.867 1.383c-3.721 2.319-6.367 5.837-6.367 8.464 0 1.042 1.747 3.642 3.882 5.778 3.098 3.097 4.624 3.882 7.548 3.882 5.175 0 8.57-3.799 8.57-9.59 0-8.049-7.191-12.55-13.633-8.534m-129.425.072c-4.865 1.476-7.088 3.213-10.009 7.819-3.536 5.576-3.678 8.256-.624 11.806 1.79 2.081 3.471 2.796 7.481 3.181 4.751.456 5.399.255 7.949-2.474 6.239-6.679 8.535-11.004 7.833-14.749-.994-5.298-6.113-7.56-12.63-5.583m-71.224 3.995c-1.968 1.727-3.867 4.459-4.221 6.071-1.872 8.524 11.598 16.091 20.474 11.501 6.563-3.394 9.231-12.574 5.127-17.642-1.651-2.039-2.954-2.397-9.852-2.71-7.713-.351-8.057-.268-11.528 2.78m261.67 5.037c-2.987 1.207-6.388 5.85-6.388 8.721 0 7.99 10.747 11.971 18.538 6.866 2.075-1.36 2.462-2.402 2.462-6.636 0-3.999-.5-5.522-2.455-7.476-2.578-2.579-7.844-3.218-12.157-1.475m-146.311 2.609c-2.564 2.158-3.077 3.311-3.077 6.923 0 10.522 14.46 16.267 21.464 8.528 2.205-2.437 3.093-9.131 1.585-11.949-3.331-6.223-14.426-8.169-19.972-3.502m-27.164.691c-4.371 2.945-7.876 9.19-7.897 14.07-.013 3.083.686 4.552 3.506 7.372 3.313 3.313 3.837 3.496 8.82 3.083 5.805-.482 9.455-2.644 12.028-7.127 2.113-3.681 2.031-7.197-.284-12.295-3.394-7.476-9.7-9.465-16.173-5.103m137.589-.705c-7.272 3.792-8.846 8.016-5.535 14.856 4.739 9.791 16.096 12.025 23.638 4.651 6.851-6.698 5.817-14.422-2.512-18.778-5.138-2.686-11.286-2.973-15.591-.729M292.5 204.489c-5.581 2.466-8 6.071-8 11.919 0 4.228.554 5.973 2.849 8.983 1.568 2.055 4.38 4.466 6.25 5.358 3.12 1.488 3.677 1.49 6.749.025 3.954-1.886 7.482-8.547 8.334-15.734.682-5.758-.536-8.268-5.049-10.41-4.047-1.92-7.021-1.958-11.133-.141m142.181 1.896c-8.525 8.526-4.704 22.615 6.134 22.615 4.928 0 9.669-4.231 11.593-10.347 1.599-5.083 1.607-5.723.111-8.616-2.017-3.901-7.013-7.028-11.236-7.033-2.325-.003-4.155.934-6.602 3.381m-264.285.044c-7.493 3.262-9.913 13.208-4.524 18.597 5.868 5.868 13.533 5.114 18.835-1.854 5.563-7.311 3.572-14.89-4.502-17.132-4.731-1.314-6.013-1.263-9.809.389m375.93 4.987c-6.033 2.824-8.526 6.096-8.526 11.192 0 5.438 4.441 9.517 11.053 10.152 2.771.266 6.153.204 7.516-.138 3.987-1 8.504-5.465 9.756-9.644 3.133-10.457-8.12-17.029-19.799-11.562m-337.143.889c-4.599 4.895-1.558 14.421 5.953 18.649 5.233 2.945 9.402 2.662 12.941-.877 4.747-4.748 3.618-8.908-3.204-11.806-1.445-.614-4.145-2.44-6-4.059-4.874-4.251-7.079-4.686-9.69-1.907m186.809 3.583c-7.176 7.543-7.219 18.031-.094 22.825 5.236 3.524 9.609 3.062 13.834-1.463 5.298-5.673 7.26-9.352 7.264-13.618.003-3.162-.704-4.576-3.878-7.75-3.426-3.425-4.445-3.882-8.655-3.882-4.244 0-5.182.43-8.471 3.888m-154.751 3.437c-3.852 2.139-5.672 5.735-5.643 11.15.048 9.371 5.268 14.571 12.534 12.487 4.745-1.361 7.748-4.742 9.469-10.66 1.816-6.249 1.331-8.34-2.731-11.758-3.385-2.848-9.681-3.411-13.629-1.219m-49.354 3.484c-6.008 5.368-4.827 17.102 2.08 20.674 4.796 2.48 10.518 1.987 12.96-1.118 1.14-1.449 2.073-3.454 2.073-4.454 0-3.184-4.855-15.332-6.652-16.646-2.875-2.102-7.073-1.482-10.461 1.544m268.662-1.132c-5.17 2.798-10.549 10.87-10.549 15.829 0 5.68 9.709 10.735 16.387 8.531 4.143-1.367 9.012-6.479 10.668-11.2 3.483-9.935-7.009-18.3-16.506-13.16m-144.161 1.303c-5.241 2.118-8.044 10.057-5.336 15.117 2.005 3.747 8.962 7.903 13.23 7.903 3.27 0 4.584-.638 7.35-3.571 3.851-4.084 4.31-7.641 1.698-13.146-2.878-6.064-10.507-8.903-16.942-6.303m192.824.096c-3.486 1.061-7.205 5.926-7.205 9.424 0 3.115 3.586 8.238 7.003 10.005 1.703.881 5.211 1.829 7.794 2.107 12.758 1.373 20.087-12.017 10.556-19.286-3.981-3.037-12.21-4.057-18.148-2.25m-143.043 4.436c-3.26 4.144-1.825 7.321 6.171 13.654 5.36 4.246 9.371 4.916 12.005 2.005 2.107-2.328 2.134-8.51.052-11.689-4.228-6.451-14.513-8.692-18.228-3.97m-99.058 1.048c-3.975 3.345-4.981 8.375-2.662 13.301 3.208 6.813 7.808 13.22 10.432 14.533 3.472 1.735 8.356.392 11.057-3.042 5.682-7.223 4.768-15.699-2.474-22.941-3.893-3.893-4.934-4.411-8.861-4.411-3.315 0-5.225.653-7.492 2.56m154.256 5.358c-4.444 2.71-6.369 5.909-6.352 10.555.019 5.21 1.702 8.419 5.897 11.247 5.814 3.917 14.489 2.39 19.018-3.349 1.846-2.339 2.182-3.761 1.811-7.668-.548-5.763-3.966-9.855-9.657-11.56-5.25-1.572-7.085-1.44-10.717.775m145.273 3.093c-4.089 3.59-5.056 6.729-3.666 11.893.952 3.535 5.273 9.096 7.069 9.096.793 0 1.423-4.178 2.525-16.75.744-8.49-.265-9.211-5.928-4.239m-79.64-.334c-6.281 1.965-11.001 7.996-10.998 14.052.004 10.87 11.764 18.176 19.484 12.103 5.031-3.957 7.194-14.005 4.249-19.736-2.207-4.294-8.84-7.638-12.735-6.419m-318.717 2.906c-4.096 2.082-4.697 4.104-3.268 10.99.948 4.565 1.72 5.905 4.32 7.489 4.636 2.827 10.021 2.545 13.013-.682 3.076-3.316 4.026-8.755 2.161-12.362-2.96-5.724-10.614-8.288-16.226-5.435M346.4 241.4c-7.886 7.886-1.317 17.6 11.902 17.6 11.027 0 16.186-7.702 10.047-14.997-3.425-4.07-7.906-6.003-13.917-6.003-3.934 0-5.144.512-8.032 3.4m192.341-1.971c-7.344 2.621-8.233 5.048-4.41 12.037 4.113 7.519 11.639 10.437 17.695 6.86 2.261-1.336 2.966-2.63 3.484-6.396.832-6.055-1.335-10.541-6.044-12.509-4.136-1.728-5.864-1.727-10.725.008M220.5 244.964c-3.732 1.563-6.5 5.022-6.5 8.125 0 10.958 14.692 18.219 22.025 10.886 5.506-5.506-2.114-20.08-10.41-19.912-1.713.035-4.015.441-5.115.901m82.002 2.611c-1.649.86-3.786 2.277-4.75 3.149-3.45 3.123-1.557 11.008 4.087 17.026 2.54 2.709 3.778 3.25 7.43 3.25 5.014 0 7.234-1.891 10.149-8.642 2.114-4.895 1.506-9.171-1.72-12.107-4.986-4.539-9.948-5.412-15.196-2.676m88.71 4.549c-7.601 3.762-9.032 10.49-3.715 17.461 6.337 8.309 20.376 6.524 24.979-3.175 1.497-3.156 1.557-4.22.459-8.142-1.071-3.827-1.885-4.795-5.349-6.368-5.406-2.456-11.119-2.377-16.374.224m-142.289 1.799c-5.823 5.823-3.111 17.343 5.079 21.578 4.485 2.319 9.257 1.916 12.011-1.015 3.176-3.381 4.027-12.969 1.494-16.835-4.512-6.887-13.602-8.71-18.584-3.728m260.937-1.409c-3.417 1.857-7.86 9.467-7.86 13.464 0 4.913 2.471 8.593 6.982 10.398 2.232.893 4.972 1.624 6.088 1.624 5.197 0 12.313-6.664 13.511-12.653 1.913-9.569-9.865-17.644-18.721-12.833m-317.536 2.399c-1.129 1.052-3.051 3.527-4.27 5.5S185.526 264 185.146 264s-1.53 1.558-2.556 3.462c-2.354 4.371-1.616 10.249 1.618 12.891 7.013 5.729 22.916-5.4 24.49-17.139.487-3.627.189-4.481-2.496-7.166-2.471-2.471-3.878-3.048-7.437-3.048-2.939 0-5.066.632-6.441 1.913m256.953 3.06c-7.465 4.551-4.726 16.575 4.923 21.616 5.82 3.041 13.337.859 16.84-4.888 2.395-3.926 2.467-6.83.286-11.427-3.13-6.596-15.176-9.492-22.049-5.301m-118.866 1.859c-7.661 4.819-9.677 12.322-4.851 18.057 5.115 6.078 13.87 4.642 19.556-3.208 3.588-4.953 3.981-11.378.869-14.195-3.035-2.747-11.671-3.11-15.574-.654m226.667 1.918c-2.327 1.9-3.869 9.643-2.133 10.716.551.34 1.765 2.229 2.699 4.197 1.701 3.583 6.513 6.598 9.005 5.641 1.742-.668 3.237-5.793 3.57-12.233.268-5.18.125-5.536-3.117-7.75-4.056-2.77-7.117-2.945-10.024-.571m-188.7 1.687c-5.931 2.581-7.982 8.561-4.948 14.428 1.975 3.819 8.622 8.198 13.421 8.842 3.364.451 4.405.128 6.573-2.04 1.752-1.752 2.576-3.657 2.576-5.957 0-2.872-1.041-4.386-6.903-10.046-3.796-3.665-7.059-6.646-7.25-6.625-.191.022-1.752.651-3.469 1.398m169.878 3.592c-7.554 3.037-8.219 17.381-1.039 22.41 7.583 5.312 14.428-3.742 12.31-16.28-.589-3.487-1.184-4.205-4.622-5.58-2.17-.869-4.049-1.55-4.175-1.516-.127.035-1.24.47-2.474.966m-117.942 1.921c-5.974 3.643-7.08 9.798-2.695 15.009 7.494 8.906 19.54 7.918 22.464-1.842.979-3.267.846-4.336-.986-7.926-3.556-6.971-12.056-9.343-18.783-5.241m-138.931.964c-7.55 3.428-9.655 10.233-4.91 15.872 2.857 3.394 10.054 5.798 14.236 4.755 4.772-1.191 9.137-5.257 10.306-9.598.951-3.53.819-4.368-1.117-7.086-4.069-5.714-11.249-7.243-18.515-3.943m-65.312 3.838c-5.279 2.692-7.571 6.51-7.571 12.615 0 6.615 2.235 10.174 7.352 11.707 3.223.965 4.448.878 7.419-.532 6.941-3.294 11.836-14.736 8.762-20.48-1.302-2.433-6.629-5.063-10.251-5.06-1.255 0-3.825.788-5.711 1.75m267.748-.27c-5.465 3.077-4.557 7.824 2.854 14.926 6.684 6.404 11.994 6.026 14.957-1.065 1.321-3.161 1.289-3.844-.334-7.105-.988-1.985-2.96-4.458-4.383-5.497-3.499-2.554-9.731-3.153-13.094-1.259m-135.441 9.909c-7.02 3.159-8.457 10.211-3.128 15.351 7.787 7.512 18.943 6.827 22.369-1.372 1.362-3.261 1.305-3.779-.845-7.678-1.269-2.299-3.443-4.726-4.833-5.391-4.239-2.032-10.184-2.431-13.563-.91m44.812.635c-5.722 3.488-7.123 9.402-4.063 17.154 2.173 5.506 11.275 7.408 17.827 3.726 6.574-3.695 8.82-10.575 5.529-16.939-3.049-5.896-12.815-7.891-19.293-3.941m-147.16.087c-7.02 2.801-13.03 10.565-13.03 16.831 0 6.675 9.211 12.268 15.706 9.538 4.358-1.833 10.372-9.645 10.994-14.282.694-5.175-1.826-9.937-6.234-11.779-3.9-1.629-4.106-1.638-7.436-.308m222.47 1.701c-4.976 1.707-7.5 4.967-7.5 9.686 0 6.064 5.169 9.786 13.591 9.786 6.215 0 7.2-.542 9.057-4.985 1.299-3.11 1.264-3.815-.352-7.063-2.958-5.944-9.517-9.235-14.796-7.424m-156.506 2.069c-3.57 1.159-9.16 4.14-10.756 5.736-2.29 2.29-2.703 8.023-.788 10.945 4.99 7.616 18.876 6.779 25.892-1.559 3.608-4.287 3.45-10.352-.342-13.149-2.871-2.118-10.326-3.168-14.006-1.973m202.506.708c-4.156 2.249-5.5 4.238-5.5 8.14 0 8.483 6.986 15.423 16.194 16.089 5.304.384 5.949.191 8.766-2.626 2.33-2.33 3.039-3.934 3.036-6.867-.01-10.527-13.701-19.495-22.496-14.736m46 .259c-4.71 1.531-10.468 5.658-11.555 8.282-2.288 5.524.8 10.067 7.796 11.466 2.734.547 3.731.066 7.76-3.741 3.619-3.419 4.743-5.256 5.172-8.453.482-3.593.216-4.346-2.198-6.245-2.855-2.245-3.642-2.393-6.975-1.309m-123.079 4.046c-5.928 2.693-8.738 6.658-8.101 11.432.599 4.488 2.927 7.418 7.398 9.31 12.09 5.117 23.497-5.587 17.765-16.671-2.977-5.756-9.777-7.379-17.062-4.071m-276.693 2.411c-.22.656-.052 2.768.373 4.693 1.071 4.856 8.996 12.009 24.855 22.433 7.118 4.679 13.353 9.308 13.855 10.287.562 1.098.226 17.694-.877 43.28-4.904 113.708-8.001 213.873-8.813 285-.596 52.222-.489 62.773.656 64.16 2.273 2.754 17.325 11.55 30.407 17.769 26.736 12.711 57.92 22.003 82.316 24.53 3.3.342 7.238.864 8.75 1.161l2.75.539v-72.014l2.635-2.072c2.391-1.881 3.987-2.074 17.25-2.083 42.548-.029 113.435-8.479 172.333-20.544 24.154-4.948 65.706-15.615 75.395-19.354 10.466-4.04 11.743-5.462 11.528-12.841-.16-5.484-5.438-76.019-8.625-115.251a5508 5508 0 0 1-3.022-39.5c-6.236-86.174-11.575-154.904-12.071-155.406-.221-.223-2.319.376-4.662 1.331-27.562 11.234-65.897 19.374-120.261 25.533-90.778 10.286-147.564 5.312-206.817-18.114-24.365-9.633-51.069-24.651-71.869-40.419-3.479-2.638-5.841-3.848-6.086-3.118m111.022 4.667c-3.876 3.06-3.529 6.09 1.188 10.351 7.58 6.848 16.254 7.071 19.65.505 2.037-3.94.198-7.702-5.007-10.243-6.121-2.988-12.509-3.235-15.831-.613m219.138 3.526c-3.236 1.758-5.282 6.45-4.442 10.184.798 3.546 6.712 11.718 10.073 13.921 2.645 1.732 8.419 2.184 12.275.96 2.877-.913 5.548-6.065 4.764-9.19-.889-3.542-7.085-12.858-10.161-15.278-3.104-2.441-8.631-2.705-12.509-.597m-157.466 2.987c-2.346 2.346-2.402 2.651-.996 5.37C334.818 316.482 343.8 324 346.934 324c6.39 0 10.066-9.985 5.543-15.058-4.77-5.351-14.859-6.651-19.055-2.455m129.893 5.52c-5.819 2.345-5.384 9.586.943 15.676 5.465 5.261 7.639 6.317 13.002 6.317 3.287 0 4.901-.566 6.417-2.25 3.245-3.605 3.37-4.257 1.732-9.062-2.871-8.428-14.151-13.881-22.094-10.681m-205.314 1.745c-4.478 2.237-6.469 6.127-4.899 9.572 1.684 3.696 10.375 8.061 16.052 8.061 5.903 0 7.846-1.578 7.846-6.373 0-4.692-2.66-8.185-8.32-10.925-5.236-2.534-6.217-2.565-10.679-.335m127.454.703c-3.195 3.194-3.099 6.137.377 11.619 7.188 11.334 18.314 14.409 22.499 6.219 4.217-8.25 2.264-13.356-6.738-17.619-7.308-3.46-12.823-3.535-16.138-.219m34.804.241c-3.812.75-5.259 4.06-5.259 12.027 0 6.073.35 7.627 2.113 9.39 1.603 1.603 2.909 1.983 5.419 1.576 6.901-1.12 11.468-6.553 11.468-13.641 0-5.859-7.063-10.667-13.741-9.352m116.991 1.768c-8.569 3.989-5.934 6.088 3.898 3.104 4.875-1.48 10.852-4.285 10.852-5.094 0-1.519-10.154-.15-14.75 1.99m-245.249.659c-4.884 1.948-7.001 4.888-7.001 9.723 0 4.006.478 4.955 4.377 8.691 5.321 5.098 10.234 6.397 14.552 3.846 3.536-2.089 5.071-5.226 5.071-10.365 0-6.187-1.537-8.906-6.243-11.042-4.727-2.146-7.052-2.33-10.756-.853m26.887 2.377c-1.437.78-3.181 2.794-3.877 4.474-1.123 2.712-.996 3.581 1.136 7.723 4.043 7.855 15.355 11.956 20.805 7.543 5.041-4.082 3.064-15.43-3.372-19.354-3.667-2.236-10.937-2.427-14.692-.386m42.01 1.763c-4.232 2.819-7.344 8.823-6.44 12.425 1.73 6.894 12.702 11.349 19.409 7.881 5.306-2.744 7.133-5.462 7.133-10.612 0-3.571-.577-5.288-2.462-7.321-4.739-5.114-12.049-6.097-17.64-2.373m83.459 1.729c-5.088 2.053-7.278 10.96-3.528 14.353 2.356 2.132 11.202 2.207 15.221.129 4.319-2.234 3.727-7.221-1.513-12.724-2.699-2.836-6.069-3.418-10.18-1.758M509 409.503c-9.625 1.308-39.1 4.899-65.5 7.981s-50.25 6.319-53 7.195c-6.652 2.12-13.665 7.345-17.376 12.948-5.867 8.857-5.88 9.399-1.74 72.704 4.445 67.97 7.384 106.847 8.267 109.348 3.682 10.423 10.457 17.682 19.9 21.321 12.822 4.941 36.935 2.151 112.946-13.072 31.813-6.371 38.712-8.604 42.344-13.704 4.546-6.385 4.17-6.409-19.841-1.226-24.341 5.254-44.787 9.193-80.5 15.507-17.072 3.018-33.098 4.664-39.381 4.043-13.82-1.365-19.292-6.226-22.009-19.548-1.242-6.088-6.11-56.655-6.11-63.463v-4.307l8.25-1.171c12.23-1.735 88.076-12.656 112.25-16.162 48.847-7.085 51.242-7.53 52.382-9.728.486-.939.487-6.702.001-13.169l-3.339-44.5c-1.361-18.15-3.032-34.741-3.714-36.869s-3.141-5.985-5.466-8.571c-7.088-7.883-13.942-8.876-38.364-5.557m11.2 13.697c-1.714 1.714-1.522 13.539.776 47.8 2.762 41.174 2.759 41.146 3.69 41.977 1.344 1.201 7.197-.853 8.3-2.914.71-1.326.118-13.049-1.981-39.227-1.646-20.535-3.243-39.243-3.549-41.574-.8-6.111-4.276-9.022-7.236-6.062M459 467.928c-20.075 2.583-37.534 5.258-38.798 5.945-4.984 2.709-4.796 11.381.318 14.732 2.103 1.378 3.445 1.379 13.161.009 5.95-.839 16.894-2.233 24.319-3.099 45.383-5.29 47.982-5.733 50.588-8.612 2.83-3.127 2.376-8.677-.944-11.533-3.661-3.149-4.705-3.094-48.644 2.558m46.571 76.643c-4.348 4.349.882 10.328 6.064 6.933 2.829-1.854 3.043-4.581.536-6.849-2.296-2.078-4.576-2.107-6.6-.084m-63.163 8.929c-1.517 2.316-1.517 2.684 0 5 1.868 2.85 4.721 3.228 7.021.929 3.051-3.051.832-8.429-3.477-8.429-1.048 0-2.643 1.125-3.544 2.5m77.833 10.495c-7.001 4.268-9.091 12.551-5.197 20.596 5.472 11.304 22.557 9.266 26.712-3.186 1.099-3.296.356-9.489-1.568-13.066-3.186-5.921-13.63-8.196-19.947-4.344m-50.836 2.255c-9.426 6.354-12.62 18.735-7.511 29.113 5.972 12.131 22.067 14.44 31.927 4.581 8.844-8.844 9.437-22.253 1.352-30.578-4.483-4.616-8.751-6.366-15.528-6.366-4.458 0-6.274.576-10.24 3.25m10.746 9.068c-1.74 2.096-4.255 12.978-3.236 13.997.501.501 1.358.634 1.904.297 1.278-.79 4.181-9.282 4.181-12.231 0-2.784-1.406-3.802-2.849-2.063m-53.709 2.037c-7.855 2.217-11.425 6.82-11.436 14.747-.011 8.023 5.487 13.852 13.095 13.883 8.473.035 14.872-5.645 15.665-13.906 1.043-10.853-6.954-17.651-17.324-14.724m176.004 82.732c-.369.598-.276 1.483.208 1.967s12.347 4.752 26.363 9.484c59.142 19.968 92.202 35.572 99.004 46.728 7.589 12.448-5.423 21.239-46.947 31.717-53.39 13.472-104.751 20.639-155.607 21.711-40.069.846-58.131-1.449-86.612-11.002-31.325-10.508-61.15-25.718-84.355-43.018-4.95-3.69-11.392-7.894-14.315-9.341-4.763-2.358-5.474-2.473-6.84-1.107-1.362 1.363-1.364 1.832-.013 4.4 1.85 3.519 9.14 10.549 17.168 16.556 31.156 23.314 84.046 43.731 129 49.799 15.577 2.102 53.356 2.395 76 .589 71.973-5.739 144.611-20.785 172.5-35.73 27.718-14.853 25.488-28.114-7.5-44.595-22.909-11.445-59.083-24.895-92-34.206-17.569-4.969-24.752-6.059-26.054-3.952m-69.423 23.092c-4.832 2.505-8.545 7.673-7.574 10.544 1.232 3.642 5.73 5.742 13.051 6.093 5.881.282 7.719-.049 11.5-2.069 5.373-2.872 7.067-6.385 4.969-10.305-3.18-5.941-14.477-8.136-21.946-4.263m-33.429 6.83c-8.436 3.294-12.863 9.322-9.394 12.791 2.182 2.182 8.987 1.412 15.3-1.731 3.3-1.643 6.791-3.218 7.759-3.5.967-.282 2.276-1.649 2.908-3.037 2.763-6.063-6.297-8.535-16.573-4.523m66.156 1.013c-3.209 1.976-1.889 3.626 4 5.002 3.163.739 7.308 2.38 9.213 3.647 3.899 2.593 5.632 1.838 4.661-2.031-1.328-5.293-13.004-9.616-17.874-6.618m-8.852 8.26c-4.562 3.064-5.03 6.927-1.311 10.809 1.509 1.575 4.294 3.375 6.189 4 4.262 1.407 13.05.377 15.469-1.813 2.135-1.932 2.285-7.076.29-9.925-3.802-5.428-14.711-7.051-20.637-3.071m-45.398 2.189c-7.207 3.817-8.638 10.106-3.434 15.092 2.798 2.681 3.679 2.937 10.109 2.937 6.813 0 7.139-.114 9.935-3.462 3.576-4.284 3.805-8.862.629-12.555-1.846-2.146-3.363-2.719-8.25-3.115-4.312-.349-6.829-.04-8.989 1.103m79.641 2.066c-2.908 1.262-3.272 1.805-2.71 4.044.924 3.681 5.188 10.145 7.514 11.39 1.086.581 3.982 1.331 6.435 1.668 3.9.534 4.785.287 7.04-1.969 1.419-1.418 2.578-3.387 2.576-4.375-.007-3.345-3.781-8.012-8.214-10.158-5.131-2.484-7.989-2.62-12.641-.6m-118.305 2.446c-6.781 1.248-12.773 6.412-12.814 11.044-.033 3.784 2.449 6.606 7.509 8.538 3.766 1.438 5.186 1.537 8.377.581C481.061 724.602 488 717.11 488 713.09c0-5.174-7.236-8.565-15.164-7.107m145.799 4.09c-3.309 2.602-3.443 6.541-.385 11.26 5.304 8.184 16.158 11.35 21.295 6.212 5.165-5.165 1.87-14.802-6.216-18.181-4.93-2.06-11.583-1.739-14.694.709m-80.135 6.084c-9.721 5.026-12.038 10.529-6.423 15.254 5.054 4.253 16.256 3.422 21.621-1.603 4.86-4.553 3.326-12.558-2.817-14.7-4.554-1.587-7.818-1.311-12.381 1.049m36.184 1.332c-2.099.726-4.687 2.108-5.75 3.071-7.193 6.509 8.109 19.905 19.478 17.051 3.5-.878 6.588-4.465 6.588-7.652 0-3.456-3.702-8.899-7.503-11.033-4.398-2.468-8.505-2.929-12.813-1.437m-79.539 2.581c-7.042 2.82-10.438 8.282-8.651 13.912 2.409 7.589 19.8 8.147 24.945.801 5.699-8.136-6.105-18.794-16.294-14.713m159.105 2.919c-4.393 2.678-4.246 5.661.5 10.159 5.682 5.384 8.338 6.852 12.401 6.852 4.581 0 6.849-2.131 6.849-6.437 0-4.226-3.22-8.304-8.421-10.667-5.217-2.369-7.32-2.352-11.329.093m-216.831 4.908C433.05 729.882 426 736.478 426 738.582c0 1.857 2.759 4.319 5.654 5.046 4.138 1.039 12.09-.379 15.256-2.719 5.739-4.243 6.562-11.462 1.567-13.738-3.552-1.618-6.292-1.438-11.058.726m23.756 2.328c-3.031 3.031-.629 9.27 4.373 11.36 6.777 2.831 11.909 1.417 13.75-3.788.835-2.359-4.378-6.56-9.077-7.315-2.047-.328-4.655-.785-5.796-1.015s-2.604.112-3.25.758m144.644 2.254c-5.072 2.861-4.862 9.152.477 14.319 6.187 5.988 14.384 7.815 18.948 4.225 4.876-3.835 3.99-10.714-2.12-16.459-2.569-2.416-4.141-2.995-8.873-3.267-3.823-.22-6.65.176-8.432 1.182m33.681 4.362c-1.65 1.008-3.657 3.067-4.461 4.574-1.285 2.411-1.281 3.063.031 5.4 2.227 3.969 5.556 4.726 12.234 2.785 9.213-2.678 11.21-8.486 4.357-12.665-3.973-2.423-8.296-2.456-12.161-.094m-122.739 1.221c-4.402 2.324-7.011 5.914-7.011 9.647 0 5.43 10.448 11.285 17.408 9.756 4.127-.906 9.489-5.865 10.871-10.053 1.634-4.95-.507-7.882-7.208-9.872-6.712-1.994-9.49-1.891-14.06.522m35.769.219c-5.52 3.127-7.264 6.418-5.427 10.239 2.969 6.174 11.899 9.695 19.111 7.534 10.315-3.091 11.921-13.83 2.775-18.56-4.305-2.226-11.769-1.869-16.459.787m-103.95 6.834c-3.657 2.877-3.076 5.898 1.572 8.17 4.242 2.075 12.538 3.261 16.264 2.325 5.084-1.276 2.3-9.247-4.077-11.671-4.384-1.667-10.847-1.114-13.759 1.176m33.996 1.218c-5.379 5.379-1.879 11.632 7.614 13.603 6.566 1.363 10.293.292 11.996-3.445.975-2.141.843-2.975-.824-5.208-3.205-4.292-6.825-6.468-11.672-7.014-3.916-.442-4.891-.159-7.114 2.064m-148.576.94c0 3.118 3.765 6.078 14.761 11.607 8.1 4.073 8.239 4.103 8.239 1.818 0-1.278-1.238-3.493-2.75-4.922-3.416-3.227-13.93-9.407-17.55-10.315-2.392-.6-2.7-.394-2.7 1.812m248.23-.33c-6.578 4.128-6.493 10.056.142 10.058 5.87.001 19.628-3.21 19.628-4.582 0-.719-1.057-2.536-2.349-4.039-3.241-3.767-12.494-4.531-17.421-1.437m157.76 9.757c-3.57 2-9.549 4.842-13.287 6.315s-7.19 3.085-7.671 3.582c-.899.929.473 44.241 1.431 45.2 1.804 1.803 20.514-6.997 25.037-11.775l3-3.17-.352-20.113c-.193-11.063-.648-20.915-1.01-21.894-.595-1.608-1.288-1.428-7.148 1.855M334 773.61c0 .837.446 2.355.991 3.373 1.147 2.143 13.162 10.348 18.296 12.493 3.29 1.374 3.527 1.343 4.018-.534 1.037-3.965-8.665-11.688-19.474-15.502-3.355-1.183-3.831-1.162-3.831.17m112.233 34.085.267 25.694 3.18 1.856c3.172 1.852 24.822 7.755 28.443 7.755 1.839 0 1.899-1.004 1.643-27.192l-.266-27.191-9.5-1.753c-5.225-.964-11.975-2.448-15-3.297-9.904-2.779-9.07-5.075-8.767 24.128"/>
</svg>
