<svg xmlns="http://www.w3.org/2000/svg" viewBox="0 0 916 916">
  <path fill="currentColor" fill-rule="evenodd" d="m729 152-309 15-216 10-181 9q-7 2-9 9l-1 20c0 17 1 22 4 24 2 0 2 24 2 229l1 232c2 4 6 5 24 6l40 2h3l-7 9q-14 17-13 21 0 7 11 7l53 1 79-26 24 1 352 18 38 2h5l-8 11-8 14q-3 7 2 9l38 2 36 1 7-2 69-24 18-7h37c31 0 36 0 37-2q2-1 2-13v-13l18-6q19-5 19-8l3-3V240l3-3 3-2v-20c0-21 0-24-6-28q-5-4-80-28l-26-8-14-1zm8 20-314 15-123 6-258 12h-9v19h8l103-6 414-19 220-8c13 1 16 2 46 14 33 12 49 17 56 17h4v-9c0-11-1-12-12-15l-81-26zm-11 36-361 16-314 16H40v446h4l82 5 231 11 396 18 23 1h7V207h-19zm78 236c-1 252 0 272 1 272l73-26 1-227V237l-6-2-69-22zM639 229c-31 1-34 2-38 4q-11 5-16 15c-2 5-3 6-3 25 0 16 0 21 2 26q3 11 12 17c8 6 8 6 73 6 56 0 59 0 64-2q15-6 20-20c2-6 2-45 0-51-2-8-12-18-21-20zm-372 16a207 207 0 0 0-125 61l-13 12-9-7q-9-8-11-8c-2 0-7 6-7 9q0 3 5 7l9 7 4 4-7 11a200 200 0 0 0-33 100v4h-9l-9 1-1 6v7h5l10 1c5 0 4-2 6 17q6 50 35 94l6 10-7 5-14 13c-1 2 4 10 7 10l10-7c14-11 12-11 21-1s24 23 36 31a205 205 0 0 0 243-11l17-15 11-10 10 8 11 7c2 0 8-6 8-9l-10-10-10-9 6-10a213 213 0 0 0 35-109v-4h11l12-1c2-2 1-11 0-12q-1-2-13-1h-11v-10a206 206 0 0 0-41-108l20-19c0-3-5-9-8-9l-11 8-10 8-6-6a208 208 0 0 0-173-65m347 14q-10 5-10 17c1 13 12 20 24 17 17-6 17-29 1-35q-7-4-15 1m97-1c-11 2-18 11-12 14q2 2 7-3 4-4 10-3 7 0 10 3 6 5 9 1c3-6-14-15-24-12m-440 1A197 197 0 0 0 96 426v48a211 211 0 0 0 49 109q42 50 111 66c11 2 14 2 35 2 26 1 35-1 58-8 50-17 93-56 115-104a200 200 0 0 0-41-224 190 190 0 0 0-152-56m395 5q-5 4-5 10 1 10 10 11 9-1 11-9c2-9-8-16-16-12m-401 5a181 181 0 0 0-104 52q-53 52-56 121-1 48 21 92c37 75 112 116 191 105a181 181 0 0 0 152-157c2-14 2-51 0-62a192 192 0 0 0-151-150c-11-1-42-2-53-1m445 3q-8 4-3 7 1 3 5 1 4-3 8-1l6 1q3-2-3-8-6-4-13 0m-444 11c-12 3-24 6-25 8l3 11 25 90q2 5 3 4c6-2 20-2 27-1l8 2 1-3c4-10 14-49 16-65q8-42-21-46zm447 2q-3 3 0 6 6 5 8-3-2-8-8-3m-358 32 5 3 31 21q19 14-2-7c-11-9-34-21-34-17m-132 24c-11 6-28 18-27 21l9-5 17-12q14-8 9-8zm125-3 11 8 22 14c3-1-11-13-22-19zm-200 24c-14 16-27 49-27 72q0 5 2 6a596 596 0 0 0 83 10l17 2h4l2-9 6-18q5-9 3-10l-85-57zm83-1q-19 12-17 14 2 1 7-3l12-8q10-5 4-6zm111-2 9 8c12 7 13 8 13 6 1-1-10-9-16-13zm51 17-42 30-16 11 5 9c4 9 7 21 7 28 0 5-1 5 24 1q63-7 79-22c3-3 3-3 2-9-1-13-10-37-20-54q-7-13-10-12zm-156 5q-10 6-6 7c2 0 14-8 14-9q1-4-8 2m41 31c-20 4-36 23-36 44 0 27 25 48 51 44q22-4 33-24c3-7 4-8 4-19 0-15-2-20-9-28a45 45 0 0 0-43-17m-1 10q-10 3-17 11c-15 18-9 44 12 54q20 10 38-6 11-9 10-25c0-8 0-10-2-15q-11-18-29-20zm168 44-2 11q-4 28-14 55h1c3-2 8-14 12-23q5-16 5-33 0-13-2-10m-22 7c-3 19-5 25-8 36l-4 13q2 1 7-8 6-16 8-35l-1-10q-2 0-2 4m-257 5q1 14 7 27 9 17 10 11l-5-11a159 159 0 0 1-11-35zm20-5c0 8 8 30 10 30q5 0 0-9l-6-20q-3-8-4-1m21-1c-1 4 3 16 5 16q3 0 0-9-4-10-5-7m-62 8q2 23 12 39 10 18 10 11l-4-9a174 174 0 0 1-17-49zm257-4-4 16c-5 19-5 17-2 17 4-1 9-16 9-29l-1-8q-2 0-2 4m-20-1c-2 6-5 20-4 21q1 3 4-3c2-5 3-14 3-17q-2-3-3-1m-165 33c-19 19-39 42-47 51l-4 6 2 4c2 5 17 20 26 26 15 10 39 20 42 17l7-20 26-76-8-4q-15-8-22-18l-4-5zm116-12q-9 11-22 16l-6 3c-1 1 17 39 26 54q15 26 27 35c5 3 5 3 18-4q25-16 41-37c6-7 9-4-54-55l-24-18zm-35 63-15 1-9 1c1 2 15 3 24 2q12-1 8-4l-2-1zm7 19-21 2-16 1q-1 3 22 2l22-1 6-3c-1-2-8-2-13-1m11 20-32 3-21 1c0 2 18 3 29 3 16 0 37-4 36-7-1-2-2-2-12 0M109 716c-5 0-15 12-12 13 1 1 21 2 23 1q3-1 8-7l5-6-6-1zm539 32-6 9-2 3h12l22 1h9l3-4q9-10 8-12l-37-2c-5 0-5 0-9 5"/>
</svg>
