<svg xmlns="http://www.w3.org/2000/svg" viewBox="0 0 851 970">
  <path fill="currentColor" fill-rule="evenodd" d="M329 14.029c-16.052.8-35.864 2.399-42 3.39-1.375.222-4.75.703-7.5 1.07-2.75.366-14.225 2.398-25.5 4.514s-26.125 4.837-33 6.044c-55.846 9.806-98.19 30.348-139.5 67.673-24.445 22.088-42.761 43.845-52.358 62.196C19.041 178.232 17.839 184.24 17.928 215c.061 21.018 1.172 56.548 2.55 81.5.273 4.95.729 14.175 1.013 20.5 1.123 24.971 2.623 54.228 3.511 68.5 2.082 33.434 4.046 62.629 4.947 73.5 1.138 13.748 1.561 19.591 3.552 49 .837 12.375 2.188 31.05 3.001 41.5s1.709 22.375 1.992 26.5l2.023 29.5c5.558 80.95 13.461 158.719 18.459 181.643 3.057 14.022 6.531 24.129 12.556 36.539 13.66 28.131 36.103 49.324 68.509 64.693 35.178 16.683 82.818 26.47 190.193 39.072 50.236 5.895 113.275 12.211 139.766 14.001 32.491 2.196 42.758 2.581 69.058 2.59 41.312.014 67.011-2.066 100.921-8.166 38.074-6.849 72.997-17.8 99.971-31.347 51.231-25.729 78.409-57.944 88.053-104.366 4.029-19.399 4.185-34.182 3.723-353.981-.496-343.137.196-313.546-7.714-329.678-11.128-22.695-35.613-39.999-75.512-53.366-24.193-8.105-43.215-12.531-84-19.543-11-1.891-29.9-5.477-42-7.968-44.632-9.188-77.286-13.287-140-17.575-52.395-3.581-124.437-5.468-153.5-4.019m-2.5 14.704c-44.509 1.745-71.527 7.662-93.319 20.436-19.667 11.53-53.988 58.507-63.802 87.331-3.409 10.013-3.884 24.03-1.085 32 7.069 20.129 36.445 36.235 82.878 45.438 24.313 4.819 68.915 9.879 119.328 13.536 11.55.838 24.375 1.806 28.5 2.152 19.798 1.657 66.016 3.135 88 2.814 62.945-.918 109.744-11.569 140.484-31.973 17.888-11.873 35.312-32.162 45.489-52.967 13.602-27.808 17.293-51.243 10.466-66.456-2.989-6.661-11.453-15.5-17.984-18.781C646.228 52.606 586.146 41.065 529 36.054c-21.683-1.902-47.925-3.726-65.5-4.554-6.6-.311-16.05-.774-21-1.03-37.571-1.938-90.627-2.732-116-1.737m104.683 11.169c-9.549 3.298-15.773 11.168-14.908 18.849.946 8.386 9.688 14.29 24.135 16.3 21.667 3.013 38.717-8.207 36.252-23.857C475.693 45.046 466.179 39 457.474 39c-2.77 0-3.369.505-4.742 4-2.228 5.673-5.375 5.468-4.774-.31.512-4.924-6.983-6.17-16.775-2.788M207 46.491c-20.604 5.682-41.881 14.692-59.709 25.284-37.818 22.47-77.998 62.578-92.891 92.725-13.014 26.344-8.647 48.477 14.017 71.044 33.73 33.585 98.41 54.852 208.083 68.419 125.89 15.574 238.366 20.418 313 13.48 76.856-7.145 128.87-29.499 162.16-69.692 3.758-4.538 7.671-9.151 8.694-10.251s6.695-9.258 12.603-18.128c17.409-26.134 29.862-53.673 32.041-70.855 4.146-32.705-18.309-56.35-69.873-73.573-11.93-3.985-42.746-11.903-46.452-11.937-.455-.004.573 1.392 2.283 3.103 1.71 1.71 4.236 4.586 5.613 6.392 1.949 2.555 3.513 3.433 7.063 3.966 17.322 2.597 46.019 14.615 57.844 24.224 7.782 6.324 14.971 15.328 17.778 22.266 1.98 4.893 2.242 7.299 2.232 20.542-.011 14.675-.091 15.231-3.698 25.68-19.319 55.976-53.119 96.268-97.605 116.351-30.414 13.73-56.74 19.542-106.683 23.55-17.37 1.394-97.202 1.972-121 .876-98.089-4.518-192.578-14.813-248.5-27.076-75.739-16.609-124.243-43.049-136.27-74.281-2.445-6.349-3.382-20.334-1.843-27.509 3.871-18.048 18.449-40.938 41.066-64.477 22.938-23.874 52.235-43.374 83.339-55.469 9.788-3.806 13.779-5.918 17-8.995 2.314-2.212 5.333-4.936 6.708-6.053s2.275-2.012 2-1.99-4.325 1.094-9 2.384m228.5 2.895c-3.4 1.483-6.072 5.682-5.147 8.092 1.73 4.507 21.633 6.805 28.276 3.264 4.699-2.505 6.025-7.786 2.437-9.707-3.029-1.621-3.526-1.327-5.854 3.465-2.164 4.456-2.236 4.5-7.265 4.5-8.49 0-10.596-2.316-7.5-8.25 1.295-2.482 1.27-2.746-.256-2.711-.93.022-3.041.628-4.691 1.347M183.486 79.022c-.347.563-3.407 2.424-6.799 4.136-30.832 15.564-69.025 53.521-83.204 82.69-5.624 11.568-6.705 16.174-6.326 26.939.447 12.649 3.279 18.633 13.843 29.25 24.157 24.277 70.736 42.299 139.5 53.975 105.994 17.998 245.017 26.259 318 18.897 14.247-1.437 30.956-4.487 46.02-8.402 38.225-9.933 63.873-26.15 79.792-50.452 6.463-9.865 8.453-13.623 14.817-27.977 2.054-4.632 4.476-8.837 5.382-9.344.907-.507 3.75-1.222 6.319-1.587l4.67-.665 2.818-7.991c7.319-20.755 8.685-40.9 3.46-51.031-2.377-4.61-10.62-13.46-12.536-13.46-.85 0-2.388 11.175-4.818 35-3.193 31.313-13.943 58.215-32.608 81.602-12.506 15.67-25.742 25.366-43.478 31.848l-6.838 2.499 4.946-4.224c13.25-11.318 23.37-23.463 29.225-35.074 6.166-12.227 6.163-12.285-.435-7.855-3.155 2.118-8.26 5.277-11.344 7.02-5.006 2.828-5.845 3.787-7.809 8.926-5.32 13.916-15.5 24.338-31.445 32.191-24.932 12.28-48.548 16.037-100.922 16.057-94.755.035-264.985-16.735-287.369-28.311-4.892-2.529-11.766-10.784-15.556-18.679-2.936-6.119-4.354-7.92-7.695-9.78L189 232.94v2.136c0 3.98 3.144 14.397 6.125 20.295 1.632 3.228 2.746 6.091 2.476 6.361-.808.808-17.695-8.563-23.504-13.044-7.369-5.684-18.796-18.349-23.376-25.908-9.719-16.043-11.493-34.672-5.218-54.78 1.288-4.125 3.452-12.45 4.81-18.5s4.072-15.034 6.031-19.964 3.426-9.099 3.262-9.263c-.597-.597-17.443 20.405-21.839 27.227-6.286 9.753-10.605 18.633-11.36 23.354-.635 3.971-.606 4.016 3.226 5.076 2.127.588 4.351 1.407 4.942 1.82.679.474 1.06 5.712 1.034 14.25-.036 12.14.227 14.239 2.605 20.835 3.915 10.857 8.181 17.276 19.142 28.802 5.42 5.699 9.653 10.363 9.406 10.363-4.678 0-34.234-14.238-42.556-20.5-22.988-17.297-25.679-42.872-7.92-75.261 9.328-17.013 19.275-29.069 44.959-54.489C174.443 88.688 184.989 78 184.68 78s-.846.46-1.194 1.022m161.889 2.064c-2.487.721-3.582 1.968-5.359 6.1-3.701 8.601-9.236 25.072-9.738 28.978-.758 5.889 1.997 7.038 19.07 7.951l15.348.821c.843.045.609 1.762-.792 5.814-3.626 10.488-3.958 13.196-1.873 15.281 2.416 2.416 7.755 3.381 11.283 2.04 1.958-.745 3.509-2.633 5.189-6.316C382.063 133.948 397 89.96 397 87.283c0-5.707-12.277-8.218-16.007-3.274-.89 1.181-3.372 7.253-5.515 13.493l-3.896 11.345-10.041-.551c-5.523-.303-10.17-.661-10.329-.794-.158-.134 1.08-4.511 2.75-9.726 4.034-12.592 3.984-14.483-.43-16.327-3.879-1.621-3.826-1.618-8.157-.363m70.895 3.731c-2.964.421-6.27 4.77-6.27 8.246 0 5.616 2.039 6.242 24.5 7.512 6.05.342 11.149.764 11.332.939s-.283 2.492-1.035 5.151l-1.367 4.835-15.779.138c-25.093.221-27.692 1.975-35.251 23.787-4.886 14.101-3.721 15.256 16.734 16.589 7.901.515 18.747 1.227 24.101 1.582l9.736.647 3.014-3.227c5.426-5.808 3.204-12.222-4.629-13.369-2.121-.311-9.818-.859-17.106-1.218-14.251-.701-14.12-.634-12.152-6.28l1.098-3.149h16.586c18.635 0 23.005-1.163 27.619-7.352 4.336-5.818 8.808-22.963 7.399-28.365-.681-2.606-1.548-3.403-4.57-4.198-3.772-.992-39.842-2.853-43.96-2.268m289.136 13.322c.383 2.398 1.011 4.671 1.395 5.05.385.38 4.331 2.505 8.771 4.723 19.751 9.87 29.771 29.638 26.469 52.221-2.121 14.506-6.897 28.914-16.031 48.367-15.575 33.171-35.365 53.302-67.326 68.491-11.586 5.505-26.073 10.904-33.684 12.551-1.925.417-2.964.944-2.309 1.172 1.598.555 20.962-4.117 30.309-7.312 4.125-1.41 12.45-4.958 18.5-7.885 26.661-12.895 44.074-30.41 58.089-58.431 2.987-5.972 6.076-11.393 6.864-12.047.787-.653 3.592-1.497 6.233-1.875l4.801-.687 3.712-7.623c2.042-4.192 5.614-13.187 7.939-19.988 4.058-11.874 4.229-12.865 4.294-24.911l.068-12.545-3.77-7.634c-4.532-9.179-12.558-17.035-24.215-23.703-8.085-4.625-21.595-10.327-27.411-11.57l-3.395-.726zM524.178 110.9c-1.364.858-5.36 14.805-4.989 17.413.252 1.773.973 2.187 3.811 2.187 3.356 0 3.575-.226 5.313-5.5.997-3.025 1.897-7.525 2-10 .176-4.24.032-4.506-2.497-4.6-1.476-.055-3.113.17-3.638.5m14.124.112c-1.463.589-2.565 2.321-3.298 5.186-.606 2.366-1.53 5.607-2.053 7.201-1.142 3.482-1.236 7.307-.195 7.95 1.636 1.012 6.366-.708 7.434-2.704.621-1.16 1.936-5.247 2.922-9.082 2.28-8.863 1.114-10.937-4.81-8.551m-67.329 9.692c-3.832 2.641-4.907 4.488-4.941 8.489-.038 4.404 2.683 6.807 7.705 6.807 4.737 0 10.35-5.31 10.48-9.914.176-6.212-7.509-9.335-13.244-5.382m11.959 11.057c-5.588 5.689-11.234 11.046-12.546 11.906-3.207 2.101-3.073 4.333.261 4.333 1.532 0 4.402-1.438 6.813-3.414l4.167-3.414 1.091 2.892c3.193 8.46 18.282 4.599 18.282-4.677 0-4.267-3.452-6.787-8.493-6.198-1.929.225-3.507.3-3.507.167 0-.134 2.466-2.575 5.481-5.426 5.818-5.503 6.172-7.088 1.5-6.732-2.205.168-5.29 2.665-13.049 10.563m-9.558-5.21c-1.198 1.829-1.365 2.858-.59 3.633 1.86 1.86 4.216.098 4.216-3.153 0-3.701-1.394-3.886-3.626-.48m217.683 17.572c-10.919 32.257-37.329 61.615-69.557 77.322-19.178 9.346-36.766 14.526-64.5 18.996-24.264 3.91-33.292 4.617-67 5.245-54.135 1.008-136.025-4.093-205.5-12.8-65.598-8.221-97.828-19.925-119.166-43.272l-5.588-6.114.696 4c.909 5.229 4.693 13.509 8.236 18.019 6.5 8.278 23.864 18.46 42.322 24.819 21.5 7.407 49.795 12.536 97 17.583 62.72 6.705 99.999 9.02 157 9.749 35.567.455 46.911.258 62.206-1.085 83.224-7.303 130.38-30.746 153.048-76.085 5.565-11.131 15.589-42.472 14.565-45.542-.18-.54-1.872 3.584-3.762 9.165m-201.39-5.456c-1.288 1.288-.683 5.333.798 5.333 1.457 0 3.535-2.901 3.535-4.934 0-1.167-3.265-1.468-4.333-.399m-214.396 8.814c-14.167 3.975-24.772 16.698-22.779 27.328 2.136 11.398 12.826 16.899 31.137 16.023 10.294-.492 16.104-2.783 21.93-8.646 11.314-11.389 9.41-26.14-4.238-32.817-6.816-3.335-18.002-4.145-26.05-1.888m1.054 12.131c-6.396 3.154-9.053 8.752-6.751 14.225 1.562 3.717 4.717 5.164 11.241 5.159 9.125-.007 15.47-6.763 13.265-14.122-.626-2.091-2.126-4.493-3.332-5.338-2.819-1.975-10.346-1.935-14.423.076m99.841 5.922c-13.531 2.937-24.066 12.863-24.144 22.748-.028 3.593 2.475 9.549 5.276 12.552 8.783 9.416 34.623 11.277 49.84 3.589 8.826-4.459 14.899-14.398 13.293-21.757-3.1-14.204-22.738-21.805-44.265-17.132m121.334 1.212c-16.315 1.335-28.909 8.782-31.605 18.688-4.114 15.11 13.923 27.04 36.013 23.821 10.802-1.575 18.159-4.611 24.085-9.939 6.548-5.887 8.369-9.41 7.742-14.975-.813-7.213-6.268-12.795-15.177-15.529-3.647-1.119-16.828-2.413-21.058-2.066m-217.423 2.843c-1.692 1.424-3.077 3.449-3.077 4.5 0 1.647.751 1.911 5.429 1.911 6.267 0 8.571-1.632 8.571-6.071 0-2.741-.252-2.929-3.923-2.929-2.762 0-4.834.766-7 2.589m107.177 4.816c-1.088 1.382-2.544 3.882-3.237 5.554-1.231 2.971-1.418 3.041-8.138 3.041-3.784 0-6.879.188-6.879.418s-.273 1.13-.607 2c-.482 1.256.111 1.582 2.875 1.582 1.915 0 4.9.284 6.634.63 2.91.582 3.131.909 2.875 4.25-.261 3.409-.091 3.638 2.923 3.93 2.804.271 3.524-.204 5.823-3.846l2.623-4.155 6.06.345c4.867.278 6.272.011 7.141-1.356 1.554-2.445.372-3.118-6.325-3.603l-5.937-.429.208-5.133c.184-4.557-.032-5.167-1.928-5.437-1.338-.191-2.871.632-4.111 2.209m94.32 9.164c-3.188 3.188-.313 3.878 17.809 4.274 14.89.324 17.401.162 17.908-1.16 1.281-3.338-2.115-4.173-18.303-4.5-13.733-.277-15.926-.102-17.414 1.386m332.575 7.929c-8.803 24.569-26.87 52.32-47.533 73.009-17.67 17.693-33.039 28.537-56.009 39.52-35.72 17.079-76.648 25.724-137.607 29.064-27.507 1.507-109.137.615-140-1.531-115.429-8.024-192.508-16.466-252-27.602-64.651-12.102-103.959-29.375-131.054-57.592-8.491-8.842-10.331-11.311-14.804-19.866l-3.138-6 .012 4c.01 3.715 1.49 37.315 3.965 90 2.182 46.468 6.954 120.039 8.622 132.95.861 6.661 3.231 11.849 8.762 19.181C75.828 496.406 124.52 517.498 202 531.017c46.334 8.084 146.272 22.134 191.5 26.921 54.785 5.799 83.215 7.495 125 7.457 40.041-.036 59.613-1.327 90.942-5.995 50.395-7.509 94.038-21.56 133.636-43.024 33.997-18.429 63.534-45.974 72.165-67.299l2.257-5.577V342c0-55.825-.225-114.001-.5-129.281l-.5-27.781zm-1.282 288.234C805 491.858 784.024 511.289 766 523.147c-7.729 5.085-28.7 15.919-40.17 20.753-45.977 19.376-98.611 30.838-161.591 35.187-19.542 1.35-80.325.735-104.739-1.059-82.316-6.049-219.373-23.761-286-36.961-39.234-7.773-68.86-17.267-88.965-28.511-12.756-7.133-29.41-21.345-35.808-30.556l-1.736-2.5.504 4.5c.278 2.475.961 11.475 1.518 20 1.454 22.248 2.81 40.908 4.467 61.5.797 9.9 2.387 29.925 3.533 44.5 7.557 96.086 13.972 152.212 19.659 172 10.153 35.324 33.474 63.415 66.48 80.077 14.241 7.189 36.894 14.932 58.348 19.944 59.685 13.944 154.869 26.846 262.5 35.582 42.027 3.411 105.585 2.879 141-1.181 80.948-9.278 146.119-36.006 179.89-73.775 18.925-21.166 28.67-45.41 31.118-77.419.945-12.355 2.636-292.228 1.765-292.228-.296 0-2.503 3.029-4.906 6.732m-5.199 62.097-4.668 4.74v66.715c0 46.248.325 66.716 1.058 66.716.582 0 3.057-2.028 5.5-4.506l4.442-4.506v-66.435c0-36.539-.374-66.666-.832-66.949s-2.932 1.619-5.5 4.225m-16.418 14.098-4.25 3.845v68.114c0 50.023.301 68.114 1.132 68.114.622 0 3.097-1.966 5.5-4.368l4.368-4.369v-67.631c0-53.461-.262-67.623-1.25-67.591-.687.023-3.163 1.771-5.5 3.886m-15.5 12.814-4.75 3.698v68.281c0 67.21.031 68.28 1.965 68.28 1.081 0 3.556-1.397 5.5-3.104l3.535-3.103v-68.897c0-37.893-.337-68.886-.75-68.874s-2.888 1.686-5.5 3.719"/>
</svg>
