<svg xmlns="http://www.w3.org/2000/svg" viewBox="0 0 232 156">
  <path fill="currentColor" fill-rule="evenodd" d="M125 16.428c-24.403 1.957-29.617 2.665-36.269 4.928-4.272 1.453-9.447 3.701-11.5 4.995-2.052 1.293-6.581 2.853-10.064 3.465-10.08 1.772-16.521 5.299-24.523 13.427-6.698 6.804-9.385 10.928-13.035 20.007-1.45 3.607-1.691 3.75-6.335 3.75-5.457 0-8.569 1.735-10.78 6.011-4.203 8.129.427 15.359 10.376 16.203 3.29.279 3.413.454 5.175 7.418 4.759 18.806 18.138 32 36.303 35.801 3.396.71 8.419 2.664 11.163 4.341 8.504 5.197 16.753 6.874 50.16 10.193 26.046 2.588 32.256 2.923 37.774 2.042 22.809-3.644 41.399-19.602 50.258-43.143 13.67-36.327-3.642-77.757-36.923-88.356-10.966-3.492-19.489-3.67-51.78-1.082m7.5 8.293c-21.516 1.549-36.77 3.332-41 4.792-7.137 2.464-18.948 10.95-24.266 17.436-22.582 27.54-15.28 68.606 14.837 83.448 6.949 3.424 8.922 3.881 24 5.562 9.036 1.007 19.804 2.128 23.929 2.49l7.5.659-5-3.208c-8.389-5.382-15.7-13.694-20.217-22.984-5.052-10.388-6.521-16.615-6.548-27.759-.029-11.822 1.625-19.005 6.905-29.991 5.613-11.678 15.18-21.828 25.86-27.434l7-3.674-4 .151c-2.2.083-6.25.314-9 .512m21 1.952c-3.186.703-12.767 4.55-15.5 6.224-25.034 15.329-35.261 50.387-22.535 77.251 8.39 17.711 25.737 29.061 43.89 28.716l7.145-.136-7-.778c-12.643-1.405-21.754-6.07-30.461-15.598-27.998-30.634-11.195-86.154 28.717-94.89 5.348-1.17 5.468-1.256 1.744-1.244-2.2.008-4.9.213-6 .455m4.5 4.98c-1.375.277-5.65 2.016-9.5 3.863-12.092 5.8-21.16 16.607-26.143 31.156-3.496 10.209-3.693 24.308-.479 34.4 5.506 17.293 18.77 29.334 35.461 32.193 17.956 3.076 38.187-8.174 46.176-25.676 4.504-9.869 5.896-16.492 5.904-28.089.013-16.844-4.315-27.522-15.328-37.82-7.569-7.078-14.403-9.88-24.971-10.239-4.741-.162-9.745-.066-11.12.212m2.871 4.47c-23.577 3.446-41.138 29.673-36.966 55.209 3.864 23.653 21.18 38.824 42.735 37.441 30.801-1.977 49.955-40.124 35.323-70.35-3.18-6.569-11.902-15.559-18.172-18.731-6.058-3.066-15.891-4.596-22.92-3.569m-102.67 5.935c-6.809 3.402-13.267 9.929-17.338 17.523-4.898 9.138-4.92 9.078 3.235 8.993l7.121-.074 2.236-6.173c2.379-6.565 7.211-14.714 11.899-20.068 2.553-2.916 2.648-3.259.909-3.259-1.069 0-4.697 1.376-8.062 3.058m110.399.778c3.89 2.829 10.004 9.276 11.9 12.548.831 1.435 2.234 1.675 8.315 1.421l7.315-.305-3.574-4.17C186.526 45.296 175.972 40 167.984 40H164.7zM150 44.577c-5.719 3.245-12.395 9.729-15.548 15.101-3.465 5.903-3.442 13.675.048 16.91 1.375 1.274 2.5 3.393 2.5 4.709 0 2.323-2.714 5.703-4.579 5.703-.518 0-.763 3.799-.56 8.695.415 10.01 1.861 13.047 9.607 20.176 4.508 4.149 4.978 4.34 9.241 3.755 6.567-.9 15.691-6.19 21.344-12.374l4.947-5.413V83.133l2.75-.317c2.12-.244 2.819-.915 3.053-2.93.257-2.211-.168-2.709-2.75-3.225L177 76.05l-.006-9.275-.007-9.275-4.112-4.797c-4.317-5.038-12.977-10.686-16.375-10.682-1.1.002-4.025 1.152-6.5 2.556m34.25 17.146c-3.161.393-3.25.535-3.25 5.224 0 5.357.895 6.013 8.25 6.039L193 73v-6c0-6.661.411-6.414-8.75-5.277M61.616 71.045c-5.452 6.479-5.898 17.089-.967 22.95 3.072 3.651 7.78 4.029 11.707.939 3.403-2.676 6.063-11.493 5.132-17.006-1.602-9.483-10.454-13.322-15.872-6.883m-40.455 3.502C18.729 79.884 20.217 85 24.2 85c1.294 0 1.803-.773 1.811-2.75.006-1.513.29-4.437.631-6.5.576-3.489.447-3.75-1.851-3.75-1.676 0-2.843.818-3.63 2.547m42.828.703c-1.956 3.208-2.686 10.769-1.371 14.196.959 2.501 4.066 3.793 6.277 2.61C73.12 89.795 74.548 77.548 71 74c-2.83-2.83-4.73-2.491-7.011 1.25m99.666 1.579c-2.37 2.618-2.042 5.871.778 7.719 4.543 2.977 9.191-2.145 6.503-7.167-1.53-2.858-4.959-3.119-7.281-.552m38.121-.283c-.399.405-3.886.656-7.75.559L187 76.928v3.017c0 2.339.506 3.11 2.25 3.433 11.856 2.192 12.944 2.279 13.407 1.073.718-1.87-.05-8.75-.881-7.905M35 80.744v3.977l5.25.631c8.269.993 8.53.924 9.272-2.451.374-1.704.297-3.465-.171-3.912s-3.889-1.131-7.601-1.518L35 76.767zm146 12.031v5.963l3.75.62c6.823 1.128 6.937 1.061 7.675-4.504.375-2.831.321-5.485-.121-5.898-.442-.414-3.167-1.065-6.054-1.448l-5.25-.696zm-144.704.392c.789 5.885 5.174 14.352 10.234 19.761C50.828 117.524 59.61 123 62.68 123c.736 0-.571-2.772-3.051-6.47-4.398-6.557-7.899-14.961-9.072-21.772-.707-4.102-1.395-4.448-9.907-4.983l-4.85-.305zm138.907 16.83c-4.79 5.294-7.986 7.777-13.354 10.374l-7.056 3.413 4.853.649c10.158 1.357 21.757-2.997 30.039-11.277 7.191-7.191 7.232-7.818.54-8.603-3.149-.37-6.4-.862-7.225-1.094-.906-.255-3.995 2.336-7.797 6.538"/>
</svg>
