<svg xmlns="http://www.w3.org/2000/svg" width="512" height="512" viewBox="0 0 512 512" version="1.1"><path d="M 242 0.585 C 239.525 0.785, 231.425 1.431, 224 2.022 C 198.982 4.012, 182.231 6.750, 176.723 9.748 C 168.844 14.036, 164.617 20.896, 163.383 31.402 C 162.926 35.285, 162.246 37.081, 161.115 37.383 C 160.227 37.621, 156.125 38.596, 152 39.550 C 138.259 42.727, 130.745 48.261, 127.680 57.463 L 126.335 61.500 90.418 62 L 54.500 62.500 47.741 65.701 C 39.780 69.473, 31.364 77.068, 27.753 83.739 C 21.748 94.835, 21.892 92.373, 22.222 178.644 L 22.523 257.500 25.270 265.306 C 32.739 286.536, 36.921 291.393, 81.397 330.500 L 104.142 350.500 103.451 374 C 103.071 386.925, 102.477 409.779, 102.130 424.787 C 101.605 447.533, 101.250 452.218, 100 452.935 C 90.957 458.123, 87.183 462.319, 84.997 469.617 C 83.232 475.505, 84.079 493.515, 86.318 497.734 C 88.496 501.837, 94.081 507.445, 98.266 509.733 C 101.318 511.401, 111.365 511.515, 276.967 511.761 L 452.435 512.022 457.671 509.460 C 463.603 506.558, 467.382 502.550, 470.366 496 C 471.984 492.448, 472.424 489.393, 472.453 481.500 C 472.487 472.524, 472.203 470.913, 469.682 465.770 C 466.837 459.968, 461.281 454.387, 457.348 453.382 C 454.822 452.737, 454.763 451.853, 452.986 388 C 451.582 337.569, 449.660 294.505, 446.401 240.489 L 443.745 196.477 449.931 184.138 C 463.098 157.871, 475.004 128.991, 483.939 101.648 C 490.479 81.630, 491.087 77.320, 487.867 73.784 C 484.426 70.006, 470.170 65.827, 444 60.926 C 438.225 59.845, 432.532 58.746, 431.348 58.485 C 430.149 58.221, 428.052 56.058, 426.612 53.600 C 423.818 48.834, 418.293 44.038, 413.500 42.218 C 410.868 41.219, 404.851 39.649, 395.750 37.585 C 393.332 37.037, 393 36.496, 393 33.096 C 393 23.131, 385.985 12.114, 377.335 8.492 C 373.233 6.775, 361.031 4.859, 338.500 2.396 C 325.386 0.962, 253.955 -0.378, 242 0.585 M 248.500 17.586 C 213.001 20.207, 192.997 22.348, 187.253 24.140 C 183.616 25.275, 181 28.379, 181 31.560 C 181 33.652, 181.092 33.661, 189.750 32.356 C 222.560 27.409, 267.694 25.221, 303.363 26.846 C 332.335 28.167, 361.696 30.967, 373.775 33.562 C 375.819 34.001, 375.985 33.768, 375.406 31.275 C 374.110 25.702, 371.352 24.141, 359.986 22.547 C 335.943 19.176, 316.548 17.875, 285.500 17.551 C 267.900 17.367, 251.250 17.383, 248.500 17.586 M 228.500 45.577 C 188.362 49.111, 151.074 55.731, 146.335 60.164 C 143.535 62.783, 143.628 62.327, 140.071 91 C 132.634 150.943, 126.504 234.940, 122.518 331.500 C 121.027 367.619, 119.023 432.264, 119.008 444.750 L 119 451 278 451 L 437 451 436.997 440.250 C 436.986 397.580, 431.744 275.977, 426.964 207.500 C 422.883 149.040, 414.637 69.609, 411.961 62.972 C 410.482 59.306, 408.132 58.193, 396.195 55.512 C 360.296 47.448, 323.096 43.938, 275.539 44.128 C 257.917 44.198, 236.750 44.850, 228.500 45.577 M 432 76.925 C 432 77.304, 432.907 84.932, 434.015 93.875 C 435.547 106.243, 440.917 158.436, 441.016 161.935 C 441.044 162.913, 449.862 143.033, 455.181 130 C 461.356 114.870, 471.170 86.083, 470.514 85.023 C 469.986 84.168, 470.609 84.319, 448.250 79.637 C 439.313 77.766, 432 76.545, 432 76.925 M 54.146 82.085 C 48.034 85.139, 44.988 88.218, 41.368 95 C 39.600 98.313, 39.485 102.465, 39.219 172.668 C 38.911 254.226, 38.951 254.887, 44.944 267.694 C 50.047 278.599, 53.747 282.660, 79.500 305.626 L 104.500 327.921 105.176 323.711 C 105.548 321.395, 105.885 315.858, 105.926 311.406 L 106 303.312 85.626 285.208 C 72.594 273.629, 64.304 265.487, 62.622 262.617 C 56.944 252.928, 56.937 252.817, 57.231 174.063 L 57.500 101.826 60.306 99.413 L 63.112 97 92.441 97 L 121.770 97 122.438 91.250 C 122.805 88.088, 123.357 84.037, 123.664 82.250 L 124.223 79 92.271 79 L 60.319 79 54.146 82.085 M 267.300 98.801 C 257.313 102.369, 250.250 108.874, 245.729 118.670 L 243.500 123.500 243.500 256 L 243.500 388.500 246.170 394.196 C 249.576 401.463, 256.537 408.424, 263.804 411.830 C 268.580 414.069, 270.876 414.500, 278.021 414.500 C 285.585 414.500, 287.270 414.141, 293.021 411.306 C 300.659 407.540, 305.721 402.576, 309.649 395 L 312.500 389.500 312.500 256 L 312.500 122.500 309.649 117 C 305.748 109.476, 300.668 104.464, 293.220 100.792 C 285.098 96.788, 275.089 96.019, 267.300 98.801 M 74.210 181.250 C 74.493 246.877, 74.549 248.584, 76.541 251.974 C 77.663 253.885, 84.863 261.160, 92.541 268.140 C 103.623 278.216, 106.637 280.489, 107.165 279.166 C 107.531 278.250, 108.801 260.175, 109.987 239 C 112.518 193.812, 117.602 129.129, 119.556 117.250 L 120.091 114 97.006 114 L 73.921 114 74.210 181.250 M 272.500 115.502 C 267.503 117.269, 262.478 122.616, 261.079 127.656 C 259.554 133.147, 259.589 378.980, 261.115 384.477 C 263.552 393.255, 273.649 399.249, 282.146 396.961 C 291.295 394.497, 296 387.781, 296 377.184 L 296 371 290.950 371 C 288.173 371, 284.622 370.339, 283.059 369.530 C 277.654 366.736, 277.138 358.269, 282.180 355.120 C 283.359 354.384, 286.951 353.543, 290.162 353.252 L 296 352.722 296 343.861 L 296 335 289.674 335 C 284.381 335, 283.018 334.633, 281.323 332.750 C 278.293 329.384, 277.867 327.253, 279.462 323.438 C 281.151 319.394, 284.126 318, 291.065 318 L 296 318 296 309 L 296 300 290.056 300 C 285.244 300, 283.587 299.549, 281.356 297.630 C 277.734 294.515, 277.565 289.156, 280.974 285.527 C 283.028 283.341, 284.202 283, 289.674 283 L 296 283 296 274 L 296 265 291.649 265 C 284.849 265, 280.994 263.229, 279.379 259.365 C 278.171 256.474, 278.171 255.526, 279.379 252.635 C 280.994 248.771, 284.849 247, 291.649 247 L 296 247 296 238 L 296 229 289.674 229 C 284.202 229, 283.028 228.659, 280.974 226.473 C 277.565 222.844, 277.734 217.485, 281.356 214.370 C 283.587 212.451, 285.244 212, 290.056 212 L 296 212 296 203 L 296 194 291.065 194 C 284.126 194, 281.151 192.606, 279.462 188.562 C 277.867 184.747, 278.293 182.616, 281.323 179.250 C 283.018 177.367, 284.381 177, 289.674 177 L 296 177 296 168.139 L 296 159.278 290.162 158.748 C 286.951 158.457, 283.359 157.616, 282.180 156.880 C 277.138 153.731, 277.654 145.264, 283.059 142.470 C 284.622 141.661, 288.173 141, 290.950 141 L 296 141 296 134.816 C 296 124.337, 291.343 117.577, 282.416 115.098 C 277.583 113.756, 277.418 113.763, 272.500 115.502 M 105.888 469.495 C 102.128 471.545, 100.694 475.856, 101.189 483.625 C 101.554 489.360, 101.988 490.593, 104.362 492.635 L 107.112 495 278.133 495 L 449.154 495 452.077 492.077 C 454.789 489.364, 455 488.612, 455 481.633 C 455 475.124, 454.675 473.734, 452.587 471.306 L 450.173 468.500 279.337 468.285 C 133.118 468.102, 108.124 468.276, 105.888 469.495" stroke="none" fill="#040404" fill-rule="evenodd"/></svg>
