<svg xmlns="http://www.w3.org/2000/svg" viewBox="0 0 24 24">
  <path fill="currentColor" d="M12 2a1 1 0 0 1 1 1v1.07A7 7 0 0 1 19 11h1a1 1 0 0 1 0 2h-1a7 7 0 0 1-6 6.93V21a1 1 0 0 1-2 0v-1.07A7 7 0 0 1 5 13H4a1 1 0 0 1 0-2h1a7 7 0 0 1 6-6.93V3a1 1 0 0 1 1-1zm0 4a5 5 0 1 0 0 10A5 5 0 0 0 12 6zm0 2a3 3 0 1 1 0 6 3 3 0 0 1 0-6zm-4.5-1.5 1.06 1.06a.75.75 0 1 1-1.06 1.06L6.44 7.56a.75.75 0 1 1 1.06-1.06zm9 0a.75.75 0 1 1 1.06 1.06l-1.06 1.06a.75.75 0 1 1-1.06-1.06l1.06-1.06zM6 11.25a.75.75 0 0 1 0 1.5H4.5a.75.75 0 0 1 0-1.5H6zm13.5 0a.75.75 0 0 1 0 1.5H18a.75.75 0 0 1 0-1.5h1.5z"/>
</svg>
