<svg xmlns="http://www.w3.org/2000/svg" viewBox="0 0 24 24">
  <path fill="currentColor" d="M12 15.5A3.5 3.5 0 0 1 8.5 12 3.5 3.5 0 0 1 12 8.5a3.5 3.5 0 0 1 3.5 3.5 3.5 3.5 0 0 1-3.5 3.5m7.43-2.92c.04-.34.07-.69.07-1.08s-.03-.74-.07-1.08l2.32-1.82c.21-.16.27-.45.13-.69l-2.2-3.82c-.13-.24-.42-.32-.66-.24l-2.74 1.1c-.57-.44-1.18-.8-1.86-1.08l-.42-2.9C13.96 2.18 13.5 2 13 2h-4.4c-.5 0-.96.18-1 .42l-.41 2.9c-.69.28-1.3.64-1.87 1.08L2.58 5.3c-.24-.08-.53 0-.66.24L-.3 9.36c-.14.24-.08.53.13.69L2.15 11.87C2.1 12.2 2.08 12.55 2.08 13s.02.8.07 1.08l-2.32 1.82c-.21.16-.27.45-.13.69l2.2 3.82c.13.24.42.32.66.24l2.74-1.1c.57.44 1.18.8 1.86 1.08l.42 2.9c.04.24.5.42 1 .42H13c.5 0 .96-.18 1-.42l.41-2.9c.69-.28 1.3-.64 1.87-1.08l2.74 1.1c.24.08.53 0 .66-.24l2.2-3.82c.14-.24.08-.53-.13-.69l-2.32-1.82z"/>
</svg>
