<svg xmlns="http://www.w3.org/2000/svg" viewBox="0 0 810 759">
  <path fill="#0a0a0a" fill-rule="evenodd" d="M36 18q-17 5-23 21a35380 35380 0 0 0-2 677l3 13q6 10 18 16l5 2h367l371-1q10-5 17-13c6-9 6 18 6-351V43l-3-6q-6-10-17-17l-5-2-366-1zm7 18q-8 2-11 9c-2 4-2 12-2 337 0 331 0 333 2 338l6 6 4 2h724l4-2 6-6 2-4V382l-1-336q-4-7-11-10l-362-1zm37 18q-17 4-26 21l-2 6v601l2 5q6 11 16 17c11 6-12 6 334 6l322-1q19-5 28-22l3-4V81l-3-6q-10-17-28-21zm334 18-1 145 1 144h325V88l-3-5q-4-8-12-10c-4-1-308-2-310-1M81 74q-8 4-11 14l-1 139 1 135h325V72H240C90 72 85 72 81 74M69 527l1 147 2 4 5 7c7 6-5 6 164 6h154V380H69zm344 9v155h308l5-3 8-6c5-7 5 0 5-157V380H413z"/>
</svg>
