<svg xmlns="http://www.w3.org/2000/svg" viewBox="0 0 690 1255">
  <path fill="currentColor" fill-rule="evenodd" d="M309 29.673c-11.176 1.126-32.254 4.999-45.506 8.36-56.971 14.45-110.59 46.728-150.825 90.795-11.86 12.989-28.324 35.068-36.79 49.339C44.415 231.198 29.852 286.361 31.307 347c.794 33.107 4.373 55.387 13.405 83.448 9.638 29.944 23.307 57.927 52.293 107.052 36.904 62.544 51.48 94.789 64.864 143.5 6.447 23.466 7.096 26.417 12.565 57.185 5.683 31.965 7.994 40.05 16.194 56.646l6.586 13.331-3.107 3.037c-2.737 2.677-3.107 3.698-3.107 8.581 0 3.049 1.1 14.358 2.444 25.131a9885 9885 0 0 1 5.539 45.589c4.106 34.5 7.86 61.192 9.212 65.5 1.752 5.586 7.545 13.914 11.162 16.048l3.328 1.964.202 14.744c.272 19.783.767 21.666 7.202 27.38 4.725 4.195 5.231 5.049 5.316 8.982.09 4.127-.143 4.498-4.637 7.364-6.088 3.883-8.342 8.248-6.75 13.072.631 1.913 2.277 4.258 3.657 5.212s3.911 2.917 5.623 4.363c2.909 2.455 3.051 2.878 2.158 6.425-.713 2.833-2.098 4.596-5.456 6.944-5.875 4.108-7.519 7.401-5.996 12.014.627 1.901 2.493 4.475 4.145 5.722 6.523 4.919 7.851 6.616 7.851 10.029 0 3.838-1.021 5.347-6.199 9.167-4.075 3.007-6.245 7.951-5.243 11.945.356 1.418 2.373 4.137 4.484 6.044 2.11 1.906 4.601 4.632 5.534 6.057 1.686 2.573 1.666 2.62-2.816 6.807-5.75 5.371-7.111 8.035-6.303 12.34.703 3.747 5.088 7.237 11.713 9.324 3.751 1.181 5.591 2.98 18.681 18.265 7.292 8.516 11.926 12.365 23.831 19.794 5.942 3.707 6.26 4.117 8.183 10.525 1.1 3.666 3.183 8.374 4.63 10.462 4.181 6.033 15.181 11.096 30.505 14.04 8.2 1.575 33.146 1.301 42.5-.467 9.102-1.721 21.827-7.69 24.69-11.582 1.018-1.384 3.336-6.524 5.15-11.423l3.3-8.907 6.957-3.579c14.518-7.466 25.362-17.757 36.59-34.723 5.101-7.707 7.354-10.27 9.5-10.806 5.736-1.431 9.021-4.33 10.196-8.994 1.52-6.036.262-8.788-5.836-12.77-7.927-5.176-7.946-9.567-.062-14.675 9.106-5.901 9.351-15.955.502-20.658-2.017-1.072-4.32-3.2-5.118-4.728-1.955-3.747-.147-7.525 4.893-10.221 4.65-2.487 7.173-7.366 6.278-12.137-.493-2.629-1.815-4.282-5.598-7-7.235-5.198-7.888-10.834-1.621-13.982 4.708-2.365 6.631-5.293 6.657-10.133.021-3.966-.314-4.493-4.983-7.847-2.768-1.989-5.278-4.679-5.614-6.018-.887-3.535 1.174-7.558 5.222-10.192 1.951-1.27 4.13-3.745 4.841-5.5s1.587-9.681 1.947-17.613c.609-13.42.809-14.526 2.881-15.93 4.164-2.819 9.754-9.501 12.2-14.582 2.904-6.034 3.306-8.672 12.509-82.047 7.594-60.547 7.592-60.478 2.286-64.343l-2.602-1.895 4.178-7.246c4.253-7.377 9.134-17.892 11.782-25.38 1.708-4.832 5.284-22.81 8.782-44.155 11.331-69.136 31.796-120.267 78.652-196.5 37.273-60.643 54.238-102.427 61.511-151.5 2.527-17.053 3.056-56.502.998-74.5-4.627-40.477-16.87-78.578-37.026-115.235-44.945-81.738-125.991-142.207-213.345-159.181-21.889-4.253-38.62-5.599-67.404-5.424-14.461.088-27.868.319-29.793.513m8 21.405c-42.051 3.804-83.955 16.923-119.5 37.413-40.947 23.603-77.061 59.02-102.032 100.063C73.694 224.342 58.677 269.093 55.052 309c-1.544 16.992-1.288 51.34.495 66.487 5.043 42.835 20.858 82.756 56.21 141.889 27.123 45.369 34.856 59.528 46.223 84.638 19.923 44.01 30.19 78.331 39.035 130.486 6.279 37.017 7.273 40.7 14.722 54.5 2.523 4.675 5.48 10.224 6.57 12.331l1.983 3.832 5.605-.556c3.083-.306 14.943-.847 26.355-1.204l20.75-.647v-49.211c0-33.486.373-51.066 1.166-55.016.641-3.193 3.036-9.47 5.321-13.95l4.156-8.144-1.393-5.968c-2.144-9.178-1.227-22.484 2.08-30.187 1.516-3.531 2.668-8.07 2.664-10.5-.007-5.977-1.738-11.567-3.775-12.196-1.794-.554-59.448-6.584-62.954-6.584-1.718 0-2.108.893-2.708 6.201-.94 8.305-1.858 9.799-6.021 9.799-6.299 0-6.874-1.595-6.112-16.946.37-7.455.894-14.904 1.165-16.554.466-2.84.158-3.16-5.798-6-4.926-2.349-6.686-3.808-8.112-6.725-1.767-3.617-1.76-4.331.243-24.5 1.135-11.426 3.422-35.625 5.083-53.775s3.709-40.425 4.553-49.5 2.19-24.15 2.992-33.5 1.883-21.05 2.402-26 1.219-12.6 1.555-17 2.14-24.425 4.009-44.5c1.868-20.075 4.788-51.8 6.488-70.5 2.531-27.832 3.462-34.77 5.13-38.243 2.123-4.42 5.107-7.007 10.616-9.204 2.56-1.021 3.25-1.877 3.25-4.035 0-1.506.29-4.856.645-7.444l.645-4.706-6.17.698c-5.165.584-6.492.407-8.145-1.089-2.433-2.201-2.483-3.636-.225-6.391 1.347-1.644 3.299-2.277 8.481-2.753l6.732-.619.645-3.607c1.122-6.272 4.742-8.596 9.458-6.072 1.423.762 1.934 2.105 1.934 5.086v4.05l7.25-.606c7.035-.588 42.473-2.563 46-2.564C307.5 182 308 181.2 308 179.2c0-3.381 1.624-5.2 4.643-5.2 2.442 0 5.357 3.386 5.357 6.223 0 2.67 7.073 2.491 8.768-.223 1.126-1.803 2.332-2 12.25-2 9.764 0 11.194.225 12.714 2 2.205 2.575 7.268 2.73 7.268.223 0-3.203 2.923-6.223 6.022-6.223 3.074 0 4.978 2.246 4.978 5.873 0 2.415 2.304 2.789 22 3.568 7.425.293 18.288.83 24.139 1.191l10.639.658-.505-2.643c-.732-3.826 2.08-7.647 5.628-7.647 3.492 0 4.815 1.481 5.873 6.576.877 4.222 2.484 5.048 10.321 5.306 3.977.131 6.905 2.6 6.905 5.824 0 3.516-2.472 4.62-9.018 4.026L440 196.19l.011 3.655c.026 8.746.946 10.921 5.36 12.679 9.994 3.979 10.684 5.925 15.06 42.476l6.107 51c4.43 37.001 10.336 85.28 22.447 183.5 9.16 74.291 10.149 83.162 9.632 86.406-.739 4.645-4.929 8.71-11.028 10.702-2.799.914-5.217 1.767-5.374 1.896-.157.128.209 7.303.813 15.944.97 13.876.913 15.993-.488 18.131-1.141 1.741-2.492 2.417-4.813 2.406-4.925-.024-5.816-1.141-6.719-8.423-.459-3.696-1.095-6.982-1.413-7.3-.479-.479-20.731 1.202-65.386 5.427-7.165.678-7.441.971-9.278 9.866-1.174 5.684-1.086 6.464 1.624 14.476 3.244 9.589 3.824 20.584 1.565 29.663-1.263 5.075-1.225 5.294 1.651 9.5 9.37 13.705 10.229 20.163 10.229 76.937V801l10.75.018c10.093.017 18.667.338 39.415 1.474l8.665.474 4.527-7.733c10.725-18.321 11.732-21.601 17.737-57.733 6.183-37.207 8.257-46.638 16.05-73 13.186-44.602 31.48-82.587 69.831-145 32.063-52.18 47.166-88.504 54.935-132.122 17.553-98.553-26.04-209.607-107.908-274.898-34.797-27.751-80.864-48.987-123.502-56.933-24.225-4.514-61.153-6.491-83.5-4.469m18.779 147.504c-.311 15.299-.962 16.793-6.476 14.858-2.796-.981-2.804-1.009-3.088-11.212L325.93 192h-8l.285 10.095.285 10.095 3.845 1.32c4.621 1.586 8.003 4.596 10.078 8.97 1.363 2.872 1.544 23.172 1.599 179.879.039 111.912.413 176.641 1.02 176.641.534 0 .958 3.693.958 8.349 0 4.592.291 11.792.647 16l.646 7.651h3.187c1.858 0 3.206-.521 3.232-1.25.026-.687.363-87.2.751-192.25.419-113.381 1.085-192.248 1.64-194.072 1.179-3.876 6.685-9.278 10.491-10.293l2.906-.775.285-10.18.285-10.18-3.785.002-3.785.002-.277 10.138c-.153 5.575-.517 10.524-.809 10.998-.659 1.066-5.483 1.103-7.134.055-.836-.532-1.307-5.006-1.5-14.235l-.28-13.46-3.221-.311-3.222-.311zm-62.179-4.993c-10.945.721-20.225 1.671-20.623 2.111s-.981 4.089-1.297 8.108l-.573 7.309 4.196 1.809c2.308.996 5.435 3.056 6.948 4.579 4.947 4.98 5.171 7.679 2.824 34.058L258.985 320c-6.916 77.682-9.869 111.147-14.519 164.5-6.953 79.789-8.365 93.404-10.018 96.601-1.774 3.431-4.492 5.3-10.086 6.937-3.988 1.168-4.161 1.392-4.8 6.203-.364 2.746-.516 5.138-.339 5.316.178.178 11.338 1.478 24.8 2.889 39.739 4.166 43.374 4.65 45.6 6.075 1.406.9 2.729 3.657 3.919 8.169.989 3.745 1.9 6.952 2.026 7.125s2.95-1.627 6.276-4l6.048-4.315.054-14.75c.049-13.4-.106-14.75-1.696-14.754-3.178-.007-8.346-3.982-9.847-7.574-1.287-3.08-1.44-26.046-1.19-178.728.277-169.384.35-175.32 2.174-178.993 1.109-2.231 3.479-4.708 5.743-6 3.769-2.152 3.855-2.329 3.862-7.951L307 201l-4.25.015c-2.337.009-4.759.346-5.381.75s-1.456 4.881-1.853 9.948c-.456 5.809-1.229 9.634-2.093 10.351-1.979 1.642-2.261 4.495-3.411 34.436-.57 14.85-1.474 36.9-2.009 49s-1.442 33.025-2.015 46.5a7238 7238 0 0 1-2.02 44c-.821 16.411-2.646 60.039-5.521 132-1.748 43.767-3.415 67.302-4.93 69.614-2.807 4.284-9.285 4.317-11.912.06-1.072-1.737-1.173-5.394-.503-18.174 1.225-23.338 4.602-97.013 6.9-150.5a25456 25456 0 0 1 4.005-89 70555 70555 0 0 0 3.513-75.361c.829-18.074 2.014-34.873 2.633-37.332.836-3.319 1.989-5.03 4.475-6.639 3.631-2.351 3.876-3.14 4.849-15.662.326-4.195 1.173-8.084 1.924-8.836.788-.788 4.697-1.571 9.47-1.899 4.471-.306 8.129-.942 8.129-1.414 0-1.094-8.521-.907-33.4.732m98.4-.768c.825.501 4.872 1.21 8.994 1.575s8.052 1.221 8.733 1.903 1.699 5.663 2.259 11.07c1.087 10.482 1.422 11.631 3.386 11.631.69 0 2.506 1.307 4.036 2.904l2.783 2.904 2.348 34.346c1.291 18.89 2.84 41.996 3.441 51.346 6.006 93.418 13.045 196.634 16.502 242 .796 10.45 1.748 24.895 2.116 32.1.661 12.975.645 13.116-1.688 14.75-3.071 2.152-7.136 2.097-9.889-.132-1.932-1.565-2.312-3.24-3.117-13.75-3.557-46.465-5.195-68.653-6.42-86.968a37878 37878 0 0 0-5.479-81c-1.094-15.95-2.895-43.625-4.002-61.5-2.522-40.709-3.697-58.933-5.513-85.5-.79-11.55-1.737-26.4-2.104-33-.493-8.858-1.117-12.655-2.383-14.5-1.128-1.645-1.941-5.535-2.374-11.37-.363-4.878-.904-9.266-1.203-9.75s-2.992-.88-5.985-.88H371v5.405c0 5.325.065 5.443 4.37 7.966 8.62 5.051 7.825-12.637 8.384 186.552l.497 176.577-2.22 2.778c-1.221 1.528-3.987 3.679-6.146 4.781l-3.927 2.003.11 13.719.11 13.719 4.041 2.5c2.222 1.375 5.333 3.694 6.912 5.152 3.223 2.978 3.327 2.914 4.32-2.652.962-5.384 3.401-10.35 5.683-11.572 1.031-.551 13.91-2.111 28.62-3.467s31.181-2.913 36.602-3.462 10.033-.999 10.25-.999.394-2.489.394-5.531c0-3.568-.444-5.659-1.25-5.89-10.861-3.114-12.967-5.167-14.701-14.33-.828-4.379-6.135-46.693-9.563-76.249-5.223-45.041-6.88-59.181-9.491-81-1.613-13.475-3.595-30.8-4.405-38.5-.809-7.7-3.051-28.175-4.981-45.5-8.315-74.632-11.174-104.612-10.306-108.07 1.159-4.62 5.13-9.395 9.698-11.663l4.499-2.234-.5-7.766-.5-7.767-16-1.144c-27.817-1.989-41.094-2.505-39.5-1.535m-130.815 32.863c-2.813 1.125-2.777.866-8.638 62.816-.26 2.75-1.161 12.2-2.003 21-.841 8.8-2.437 26.125-3.546 38.5l-4.523 50.5c-1.379 15.4-2.743 30.925-3.031 34.5s-.959 10.775-1.492 16c-.534 5.225-1.621 16.925-2.416 26-.796 9.075-3.082 34.489-5.081 56.475l-3.634 39.974 2.645 2.276c2.997 2.577 4.36 2.767 7.992 1.112 1.665-.758 2.879-2.411 3.491-4.75 1.091-4.175 3.765-32.507 11.567-122.587 2.825-32.617 4.168-47.639 8.488-95 5.357-58.716 6.016-65.914 6.545-71.5 2.613-27.608 4.065-49.857 3.373-51.689-1.323-3.505-5.839-5.187-9.737-3.627m189.287 1.347c-1.717 1.897-1.758 2.803-.624 13.75 5 48.271 10.458 99.455 12.126 113.719 1.094 9.35 3.349 28.7 5.011 43 2.736 23.538 5.1 43.376 11.022 92.5 1.094 9.075 2.89 24.15 3.991 33.5 4.415 37.512 5.754 46.473 7.294 48.823 3.03 4.624 12.084 4.01 13.317-.903.309-1.23-.819-13.191-2.507-26.579-3.345-26.534-9.944-80.386-13.153-107.341-1.113-9.35-2.909-24.2-3.989-33-3.795-30.892-12.081-100.219-14.522-121.5-5.923-51.624-6.453-54.674-9.938-57.235-1.931-1.419-6.209-.744-8.028 1.266M311 228c-1.982 1.982-2 3.354-2.031 151.25-.016 82.087-.265 158.25-.551 169.25-.6 23.052-.204 24.804 5.731 25.303 7.486.629 6.851 16.729 6.851-173.818V229.113l-2.223-1.556c-2.991-2.095-5.374-1.96-7.777.443m50.173-.25c-2.048 1.749-2.049 1.825-2.359 172.349-.344 189.534-.919 174.255 6.541 173.701 3.608-.269 4.116-.638 4.862-3.537.458-1.78.71-79.107.558-171.838l-.275-168.602-2.361-1.912c-2.922-2.366-4.346-2.399-6.966-.161M323.75 584.843l-3.75 1.428V612h3.531c1.976 0 3.752-.573 4.031-1.3.274-.716.373-7.148.218-14.294l-.28-12.992zm28.588 4.291c.355 2.951.649 9.304.653 14.116L353 612h7v-12.933c0-12.553-.066-12.951-2.25-13.579-6.593-1.895-6.116-2.217-5.412 3.646m-23.838 32.47c-7.524 1.114-7.744 1.258-7.169 4.691.295 1.763.831 5.118 1.191 7.455l.654 4.25h34.582l1.076-7.245c.591-3.985.733-7.588.315-8.006-.871-.871-26.127-1.814-30.649-1.145m43.706 11.646.294 7.25 6.5.566c3.575.312 6.649.463 6.831.336 1.282-.893-10.983-15.402-13.02-15.402-.494 0-.766 3.263-.605 7.25m-69.805-2.052c-2.505 2.309-5.207 5.459-6.003 7L294.949 641H309v-7c0-4.102-.423-7-1.022-7-.563 0-3.072 1.889-5.577 4.198m7.099 16.973c-6.05.489-12.248.726-13.774.528-2.248-.291-2.888.1-3.382 2.067-.643 2.56.281 14.192 1.2 15.111.296.297 3.135-.888 6.307-2.632 6.472-3.558 15.663-6.245 21.359-6.245H325v-5c0-4.56-.198-4.988-2.25-4.859-1.238.077-7.2.541-13.25 1.03m23.343 3.329.358 4.5H349v-9h-16.514zm23.545.152c.111 4.804.144 4.85 3.612 5.089 7.418.512 14.746 2.574 20.784 5.85 3.457 1.875 6.494 3.409 6.75 3.409s.466-3.771.466-8.381v-8.38l-10.75-.656c-5.913-.361-13.051-.909-15.862-1.218l-5.113-.561zM337.5 677.918c0 11.305-.249 13.27-2 15.749-1.946 2.757-1.993 4.225-1.741 54.583l.259 51.75H349v-51.429c0-46.437-.16-51.588-1.648-53.076-2.285-2.285-3.257-8.234-3.308-20.245L344 665l-3.25.001h-3.25zm-23.766-10.83c-13.812 3.254-25.052 16.444-27.621 32.412-.53 3.3-1.007 27.375-1.059 53.5l-.094 47.5 7.44-.326 7.44-.326.022-54.899c.021-52.043.122-55.121 1.95-59.174 4.251-9.426 12.91-13.104 22.15-9.407 3.019 1.208 4.041 1.302 4.052.374.007-.683.278-2.229.602-3.436.413-1.543-.17-2.951-1.969-4.75-2.738-2.738-5.965-3.105-12.913-1.468m43.294-.032c-3.26 1.376-3.994 2.694-4.013 7.194-.017 4.289.013 4.304 4.198 2.14 4.318-2.233 12.47-1.464 16.744 1.58 1.808 1.287 4.338 4.615 5.649 7.431l2.374 5.099.01 55.148.01 55.148 7.25-.254 7.25-.253-.067-48.395c-.046-33.178-.442-50.281-1.259-54.394-1.565-7.877-5.299-15.357-10.174-20.38-7.493-7.721-21.547-12.778-27.972-10.064m-43.663 18.113c-2.586 1.252-4.222 4.297-4.477 8.331-.104 1.65-.122 26.288-.039 54.75L309 800h16V688.909l-2.455-2.454c-2.582-2.583-5.622-3.009-9.18-1.286m47.484-.499c-3.667.974-3.876 4.426-3.665 60.58l.205 54.75H373v-53.532c0-43.899-.255-54.142-1.415-56.92-1.996-4.777-5.36-6.305-10.736-4.878M250.5 820.017c-8.8.383-20.653 1.037-26.34 1.454l-10.34.758.57 3.135c.313 1.725 1.923 15.736 3.577 31.136 6.184 57.566 9.374 83.338 11.121 89.831 3.102 11.531 6.341 13.234 28.071 14.758 18.661 1.309 127.735 1.411 162.468.152 23.579-.854 25.428-1.059 30-3.326 4.019-1.992 5.366-3.401 7.688-8.043 2.437-4.87 3.207-8.774 5.719-29 6.723-54.111 11.097-97.173 9.943-97.886-1.695-1.048-15.385-1.96-44.977-2.998-29.954-1.05-153.135-1.03-177.5.029m-5.382 170.739c.144 16.634.678 19.744 3.392 19.744 1.876 0 1.993-.707 2.05-12.304.083-16.921-.472-20.412-3.31-20.842-2.246-.341-2.25-.314-2.132 13.402m13.577-7.032c-.562 5.457.089 22.315.895 23.175.827.882 79.692 1.583 105.41.938 24.43-.614 73.169-2.747 73.702-3.226.111-.1.516-6.133.9-13.408l.698-13.226-27.9.618c-15.345.339-28.8.725-29.9.856-1.84.22-2.069 1.317-2.865 13.728l-.864 13.488-28.886.235-28.885.235v-26.95l-9.25-.561c-5.087-.309-18.972-.812-30.855-1.119l-21.605-.558zm145.805 32.919c-12.548 1.006-34.153 1.297-82.5 1.11-36.566-.141-66.597.141-67.984.639l-2.483.891 2.477.916c4.348 1.609 44.543 2.117 73.99.937 15.675-.629 35.925-1.402 45-1.719 23.824-.832 61.056-3.14 61.745-3.828.891-.891-11.297-.467-30.245 1.054m27 7.493c-8.877 1.127-65.581 4.736-92 5.855-12.65.536-37.707.983-55.683.992-32.192.017-32.692.048-33.341 2.092-.362 1.142-.354 2.379.017 2.75 1.19 1.188 111.971.637 129.507-.644 32.837-2.397 55.546-4.259 57.75-4.734 1.56-.336 2.25-1.208 2.25-2.844 0-3.566-1.832-4.313-8.5-3.467m-12 15.449c-.855.248-23.484 1.731-60.503 3.966-5.226.316-32.104.574-59.728.573s-50.431.33-50.682.735c-.25.405-.051 1.39.444 2.189.767 1.239 8.204 1.446 50.684 1.408 51.101-.045 77.084-1.077 113.785-4.52 22.376-2.099 24.874-2.522 23.925-4.057-.525-.85-15.18-1.09-17.925-.294m-10.5 13.498c-33.988 1.943-67.846 2.879-107.526 2.975-23.664.056-44.586.422-46.494.812-1.942.397-3.6 1.397-3.769 2.273-.237 1.229 1.022 1.701 5.891 2.21 9.532.996 87.49.755 114.398-.354 23.526-.97 63.856-3.701 66.172-4.482.645-.217.93-1.322.634-2.456-.612-2.341-3.675-2.443-29.306-.978m5 12.974c-29.289 1.954-67.591 2.947-113.595 2.945-48.878-.002-50.139.047-51.911 2.004-.998 1.104-1.555 2.266-1.238 2.583 1.959 1.959 19.741 2.711 63.244 2.673 47.255-.04 70.448-.891 104-3.816 23.965-2.089 26.5-2.67 26.5-6.068 0-1.559-7.175-1.644-27-.321m-8 14.564c-32.955 2.416-65.562 3.221-112.25 2.771-26.862-.26-45.75-.069-45.75.461 0 4.198 19.684 5.585 68 4.791 42.907-.706 66.267-1.871 94-4.691 22.441-2.282 26-2.838 26-4.064 0-1.131-6.886-.963-30 .732m-4 11.443c-31.751 2.661-75.047 4.099-113.626 3.773-27.898-.235-34.43-.035-35.792 1.095-.954.792-1.292 1.758-.79 2.26 2.165 2.165 27.581 2.99 76.208 2.474 27.775-.295 53.425-.809 57-1.141 27.483-2.557 47.655-4.824 49.642-5.579 1.406-.534 2.358-1.714 2.358-2.921 0-1.846-.596-2.013-6.75-1.894-3.712.072-16.425.942-28.25 1.933m35.917 10.348c-.686.678-44.938 4.479-66.417 5.705-22.451 1.282-94.401 1.631-110.5.536-11.394-.775-14.776.005-12 2.767 1.09 1.085 5.602 1.769 16.5 2.502 49.415 3.326 107.13 1.853 156-3.981 14.447-1.724 17.262-2.338 18.745-4.089.959-1.133 1.495-2.463 1.191-2.956-.568-.918-2.773-1.222-3.519-.484M406 1119.045a1049 1049 0 0 1-120.838 3.039c-20.017-.652-36.663-.916-36.993-.587-1.111 1.112 1.464 3.894 4.408 4.763 3.888 1.149 67.472 1.447 93.923.441 33.823-1.286 69.693-3.933 85.205-6.288 2.295-.349 3.045-.902 2.643-1.95-.668-1.738-.411-1.744-28.348.582m15 10.61c-36.313 3.475-79.53 5.327-127.897 5.48-44.71.142-45.994.916-4.603 2.775 24.836 1.116 94.029.602 113.5-.842 17.759-1.318 36.155-3.856 37.492-5.174 2.47-2.435-5.879-3.446-18.492-2.239m13.5 12.442c-22.511 2.671-44.293 3.396-98.5 3.277-31.625-.069-64.018-.599-71.984-1.178-13.941-1.013-17.016-.687-17.016 1.805 0 7.826 122.635 11.067 169 4.467 12.401-1.766 24.675-5.18 25.399-7.065.74-1.928-.185-2.103-6.899-1.306m-29.5 28.936c-14.994 1.189-69.609 1.656-103 .882-16.775-.389-30.646-.571-30.825-.403-.966.906 5.445 8.435 9.557 11.225 3.897 2.644 6.599 3.512 14.741 4.734 22.565 3.387 85.654 2.731 100.139-1.042 6.441-1.678 12.98-5.873 16.536-10.608 3.359-4.474 4.124-5.848 3.161-5.681-.445.077-5.084.479-10.309.893m-105.341 29.709c-.618 1.001 1.554 10.903 3.262 14.868.605 1.404 2.505 2.512 5.687 3.313 2.628.662 6.692 2.075 9.03 3.14 5.35 2.437 8.022 2.471 3.466.044-1.867-.995-2.938-2.091-2.38-2.436.644-.399.714-2.188.189-4.899-.454-2.35-.845-5.959-.869-8.022L318 1203h-7.95c-6.306 0-8.139-.337-8.862-1.628-.531-.949-1.169-1.212-1.529-.63m28.841 24.42c5.095.921 27.773.941 32.885.03 2.137-.38-5.288-.706-16.5-.722-11.293-.017-18.601.292-16.385.692"/>
</svg>
