<svg xmlns="http://www.w3.org/2000/svg" viewBox="0 -79 1522 1522">
  <path fill="currentColor" fill-rule="evenodd" d="M677.075 12.021c-23.567 4.978-40.718 19.826-48.439 41.935-2.667 7.636-2.985 9.819-2.996 20.544-.011 10.514.328 12.986 2.738 19.962 3.316 9.599 9.897 19.802 16.745 25.959 20.331 18.279 47.651 22.24 71.877 10.421 14.877-7.259 28.636-23.281 32.068-37.342.671-2.75 1.616-5.508 2.099-6.13.621-.799 9.288-1.092 29.568-1l28.689.13-.305 64.619c-.341 72.052-.617 68.993 6.51 72.375 2.044.97 6.523 1.989 9.952 2.265 5.359.43 6.292.798 6.635 2.621.22 1.166.261 19.67.091 41.12-.169 21.45-.308 67.913-.308 103.25L832 437h-9.29c-18.05 0-27.355 4.517-33.994 16.5l-2.216 4-.5 135-.5 135-9 .25c-4.95.137-10.004.481-11.232.764-4.033.93-5.268 5.258-5.268 18.46v12.073l-99.75-.274c-94.835-.26-99.96-.365-104.019-2.139-5.99-2.619-8.231-5.822-8.231-11.769 0-2.676.337-4.885.75-4.909 12.403-.726 21.342-3.513 23.535-7.336.668-1.166 1.44-7.295 1.715-13.62l.5-11.5 34.082-.201c32.161-.19 34.406-.323 39.832-2.353 11.377-4.257 16.184-11.481 15.404-23.153-.307-4.58-1.138-7.416-3.055-10.42l-2.633-4.128 1.964-3.97c1.08-2.183 2.228-6.197 2.55-8.919 1.091-9.211-5.925-20.159-15.029-23.451L644 629.598l.004-11.049.003-11.049 4.29-1.763c17.487-7.19 21.647-30.521 7.69-43.13-5.887-5.318-11.501-7.767-19.431-8.476l-7.056-.631.05-3.75c.027-2.062.14-13.875.25-26.25l.2-22.5h14.935c15.551 0 19.28-.665 20.922-3.733.88-1.644 8.748-48.19 23.171-137.076 5.051-31.127 5.07-31.331 3.276-35-1.339-2.74-2.799-4.016-5.666-4.952-3.061-.999-40.649-1.207-181.177-1l-177.315.261-2.823 2.102c-5.913 4.403-6.272.462 6.626 72.898 1.078 6.05 3.316 18.65 4.975 28s5.06 28.475 7.557 42.5c2.498 14.025 4.768 26.891 5.045 28.59.278 1.7 1.527 4.05 2.776 5.224 2.093 1.966 3.522 2.155 18.234 2.41l15.964.276v52l-6.14.677c-24.635 2.718-35.068 30.248-17.473 46.11 2.311 2.083 5.756 4.529 7.657 5.435L374 607.37v22.133l-4.575 2.428c-12.585 6.676-16.882 21.596-9.29 32.258l2.016 2.831-2.049 3.314c-5.891 9.533-4.537 21.245 3.291 28.46 7.34 6.767 10.194 7.206 46.789 7.206H442v9.684c0 16.987 4.488 21.82 21.719 23.39 4.653.425 8.591.919 8.751 1.099s1.517 5.277 3.015 11.327c5.591 22.575 14.18 37.201 28.422 48.397 7.429 5.839 21.769 12.58 33.816 15.894l9.777 2.69 106.25.29 106.25.29v34.848l-3.75.601c-19.656 3.148-35.818 9.891-50.75 21.174-18.588 14.044-28.411 25.934-36.37 44.021-7.933 18.026-9.954 28.471-6.23 32.195 1.762 1.762 8.879 4.306 16.068 5.744 1.667.333 3.032.982 3.032 1.442s-1.986 3.274-4.413 6.255C667.584 977.621 664 983.181 664 986.419c0 4.598 1.526 6.076 10.5 10.173 4.4 2.009 8.163 3.798 8.362 3.975.198.178-2.952 4.653-7 9.945-11.371 14.863-13.031 17.623-12.321 20.482.963 3.878 2.277 4.939 11.248 9.083l8.37 3.867-7.83 10.085c-10.334 13.31-11.318 14.922-11.324 18.547-.007 3.961 2.674 6.407 11.245 10.262 3.713 1.67 6.75 3.324 6.75 3.675 0 .352-4.275 6.064-9.5 12.693-8.216 10.425-9.5 12.567-9.5 15.851 0 5.902 2.665 7.482 26.136 15.488 5.3 1.808 14.3 4.229 20 5.381 5.7 1.151 11.377 2.322 12.614 2.603 2.242.507 2.25.579 2.254 20.74.003 18.153.2 20.553 1.915 23.365 2.729 4.477 7.895 8.097 14.956 10.481l6.125 2.069v7.861c0 14.745 2.036 16.318 21.741 16.796 12.828.312 14.67.138 18.566-1.747 2.378-1.152 5.757-2.094 7.509-2.094H798v112.576l2.25 4.462c6.567 13.022 36.66 19.934 81.25 18.662 35.384-1.009 57.386-6.966 64.214-17.386 1.694-2.586 1.812-12.438 2.286-191.77l.5-189.044 89.5-.237c49.225-.13 90.322-.243 91.327-.25s3.142-1.328 4.75-2.936l2.923-2.923v-149.03c0-109.314-.303-149.696-1.139-151.529-2.622-5.755.024-5.595-92.762-5.595H958v-90.322c0-101.583.369-96.386-7.391-103.969-6.876-6.719-13.246-9.021-26.359-9.527l-11.25-.434V226.262l3.75-.62c2.063-.341 5.1-.627 6.75-.635s4.49-.923 6.31-2.033c6.314-3.849 6.19-2.404 6.19-72.31V87.263l24.469-.453c13.458-.249 26.309-.196 28.559.119 4.021.561 4.126.681 6.292 7.129 4.538 13.509 13.204 24.803 25.173 32.809 25.824 17.272 59.822 13.362 81.35-9.355 7.814-8.246 12.215-16.055 15.219-27.006 3.021-11.01 2.445-26.646-1.38-37.483-17.216-48.775-84.341-56.756-112.692-13.399-3.896 5.959-5.93 10.881-9.564 23.141-.293.991-6.698 1.208-29.514 1l-29.14-.265-1.816-7.153c-4.489-17.678-15.365-30.416-33.204-38.887-21.437-10.181-45.204-8.091-64.87 5.703-11.317 7.939-19.417 19.712-22.842 33.199l-1.812 7.138-29.372.265-29.373.264-1.844-6.438C744.807 40.716 734.486 27.648 719 18.796c-10.551-6.032-30.32-9.226-41.925-6.775M680 34.367c-11.736 2.561-22.59 10.915-27.935 21.504-10.406 20.615-1.696 45.306 19.685 55.806 5.253 2.579 6.703 2.823 16.774 2.823 10.458 0 11.368-.17 17.745-3.31 16.924-8.335 25.855-25.175 22.764-42.923-3.001-17.234-16.539-31.041-33.513-34.179-7.038-1.301-8.387-1.277-15.52.279m185.594-.31c-12.483 2.091-25.237 12.326-29.781 23.898-2.013 5.127-2.231 7.994-2.893 38.045-.394 17.875-.762 49.488-.818 70.25L832 204h81l-.106-41.75c-.059-22.963-.404-54.8-.767-70.75l-.66-29-2.857-6.222c-5.233-11.393-17.131-20.158-30.289-22.313-6.428-1.053-5.868-1.057-12.727.092m183.186-.055c-12.3 2.147-24.417 11.386-30.063 22.924-3.004 6.138-3.217 7.273-3.217 17.12 0 10.179.131 10.813 3.766 18.172 4.367 8.843 10.787 15.223 19.542 19.421 4.556 2.185 7.517 2.816 14.838 3.16 10.929.514 16.432-1 25.402-6.99 11.801-7.88 17.317-18.491 17.317-33.309 0-10.532-2.134-17.082-8.137-24.983-8.92-11.739-24.953-18.045-39.448-15.515M858 328.375c0 56.306-.281 103.781-.625 105.5L856.75 437H888V226h-30zM346.386 342.75c.286.962 3.042 16.6 6.122 34.75 10.112 59.57 17.378 100.506 18.024 101.552.687 1.111 223.468 1.153 257.432.048l18.465-.6 7.194-44c3.957-24.2 8.851-54.35 10.875-67 2.025-12.65 3.896-23.788 4.159-24.75.454-1.661-7.704-1.75-161.157-1.75-153.47 0-161.608.088-161.114 1.75m465.185 117.821c-1.38 1.38-1.578 7.016-1.626 46.25-.031 24.574-.126 84.279-.212 132.679l-.156 88 13.656.278 13.655.278.306-37.278c.323-39.332.316-39.27 5.122-44.546 4.351-4.775 8.921-5.232 52.366-5.232H935v-89c0-87.667-.03-89.03-2-91-1.955-1.955-3.333-2-60.929-2-52.238 0-59.107.178-60.5 1.571m-400.12 41.697c-.268.697-.366 12.51-.219 26.25l.268 24.982 96.25.255 96.25.255V501h-96.031c-76.632 0-96.13.256-96.518 1.268m473.906 61.673c-5.163 2.206-5.357 3.411-5.357 33.327v27.823l2.455 2.454c2.365 2.366 2.948 2.455 16.045 2.455s13.68-.089 16.045-2.455l2.455-2.454v-55.979l-2.413-2.806c-2.377-2.764-2.6-2.81-14.75-3.044-6.785-.13-13.301.175-14.48.679m-506 10.051c-2.794 1.127-5.357 4.847-5.357 7.776 0 1.278 1.105 3.427 2.455 4.777l2.454 2.455h129.498c94.661 0 130.171-.306 131.996-1.138 5.426-2.472 5.18-10.744-.403-13.568-1.978-1.001-29.223-1.254-130.5-1.216-70.4.027-128.964.438-130.143.914M892 596.5V617h12v-41h-12zm-494 21.393v10.984l4.487.673c2.468.37 5.633.386 7.034.034l2.546-.639-.283-10.722-.284-10.723-6.75-.296-6.75-.295zm185 .548c0 7.039.391 11.559 1 11.559.606 0 1-4.314 1-10.941 0-6.215-.432-11.208-1-11.559-.645-.398-1 3.49-1 10.941m24.866-10.191c-.074.688-.228 5.638-.342 11l-.207 9.75H621v-22h-6.5c-4.462 0-6.542.392-6.634 1.25M435 619.059c0 7.118.356 10.839 1 10.441.563-.348 1-5.177 1-11.059 0-6.294-.397-10.441-1-10.441-.606 0-1 4.353-1 11.059m25.474-9.2c-.261.261-.474 4.904-.474 10.317v9.843l49.75-.26 49.75-.259v-20l-49.276-.058c-27.101-.031-49.489.156-49.75.417m-81.401 38.776c-2.607 3.313-2.628 5.81-.073 8.365 1.979 1.979 3.333 2 131.045 2h129.046l2.454-2.455c2.995-2.994 3.068-4.496.382-7.91L639.855 646h-258.71zm504.493 24.643c-.345 6.172-.501 66.783-.347 134.691l.281 123.469 115.5-.164 115.5-.164V662.5l-115.153-.222-115.153-.222zm-20.325-5.028c-1.159 1.237-2.599 3.546-3.199 5.131-.766 2.021-1.081 36.309-1.055 114.931l.037 112.051 3.092 4.818c1.701 2.651 3.496 4.819 3.988 4.819.523 0 .896-50.799.896-122 0-67.1-.372-122-.826-122s-1.774 1.013-2.933 2.25m-483.786 8.205c-2.95 2.949-3.111 5.514-.543 8.684l1.911 2.361h129.484c125.927 0 129.541-.052 131.588-1.905 2.67-2.417 2.72-6.98.105-9.595-1.979-1.979-3.333-2-131.045-2H381.909zM468 714v6h80v-12h-80zm29 28.606c0 4.714 2.621 14.716 5.197 19.834 2.963 5.887 12.538 18.156 17.745 22.74 5.472 4.817 16.15 10.006 25.558 12.421 6.471 1.661 14.832 1.822 110.602 2.133l103.602.336.618-6.615c.34-3.639.347-8.594.015-11.013l-.603-4.397-102.617-.272L554.5 777.5l-6.742-2.623c-13.144-5.114-20.083-13.466-23.209-27.933L522.832 739H497zm284.455 3.651c-.265.691-.364 16.553-.219 35.25l.264 33.993 27.75.266 27.75.266V745h-27.531c-21.18 0-27.643.29-28.014 1.257M904 749.652c-3.92 1.291-5.96 2.836-6.972 5.28-.753 1.817-1.012 13.841-.816 37.844l.288 35.181 2.77 2.771c2.738 2.74 2.939 2.776 17.36 3.098 9.858.22 15.541-.068 17.52-.888 5.903-2.445 5.85-2.074 5.85-41.226 0-23.763-.364-36.524-1.08-37.862-1.988-3.715-6.925-4.856-20.638-4.771-7.03.043-13.457.301-14.282.573m6.452 13.611c-.266.695-.365 13.858-.218 29.25l.266 27.987h11l.265-28.622.265-28.622-3.14-.628c-4.876-.975-7.907-.747-8.438.635M777 843.375v10.375l3.125.625c8.09 1.618 7.875 1.901 7.875-10.375v-11h-11zm28 2.615v12.99l6.426 2.914c5.487 2.488 10.588 5.519 23.324 13.862l2.25 1.474V833h-32zm-52.5 29.663c-13.292 2.83-28.76 10.826-41.361 21.382-8.751 7.33-13.126 13.227-19.633 26.465-7.891 16.052-7.975 14.9 1.224 16.844 40.806 8.623 105.001 8.636 152.52.033 6.826-1.236 8.747-1.947 8.738-3.231-.04-5.302-12.744-28.837-18.776-34.782-9.717-9.577-36.316-24.24-48.712-26.854-8.838-1.863-24.894-1.795-34 .143M879.83 956c-8.069.275-14.968.799-15.332 1.164-.998 1.005.833 3.882 8.283 13.018C882.084 981.589 883 983.031 883 986.268c0 3.958-3.374 6.914-11.777 10.317-3.959 1.603-7.204 3.212-7.211 3.575-.006.363 1.808 2.963 4.033 5.778s6.5 8.723 9.5 13.129c8.485 12.46 7.508 16.092-5.795 21.529-3.712 1.517-6.75 3.06-6.75 3.429 0 .368 2.943 4.572 6.541 9.341l6.54 8.671 22.71-.268 22.709-.269v-52.167c0-28.692-.304-52.471-.676-52.843-.869-.868-24.117-1.133-42.994-.49m-44.33 6.108c-9.557 1.855-29.406 3.928-47.152 4.925-19.266 1.083-49.515.142-65.848-2.049-18.113-2.429-16.684-2.558-19.686 1.777-1.477 2.134-4.816 6.249-7.42 9.145-5.58 6.207-5.612 6.164 6.606 9.025 24.745 5.796 44.839 7.516 79 6.763 15.646-.345 29.557-1.187 36-2.18 11.704-1.804 30.034-5.762 34.243-7.395l2.742-1.064-6.093-8.777c-7.847-11.306-7.596-11.1-12.392-10.17m1.415 43.31c-.23.23-8.293 1.457-17.917 2.727-15.042 1.984-21.85 2.309-48.498 2.311-26.786.002-33.243-.307-47.5-2.277l-16.5-2.279-2.5 3.171c-1.375 1.745-4.66 5.824-7.299 9.066-2.64 3.242-4.55 6.299-4.244 6.793.718 1.162 19.335 5.587 31.543 7.498 36.204 5.666 83.918 4.073 117.742-3.931 6.182-1.463 11.492-3.066 11.798-3.561.848-1.373-12.737-19.936-14.59-19.936-.889 0-1.805.188-2.035.418m-137.794 52.499c-5.97 7.476-8.198 11.071-6.871 11.086.138.001 5.576 1.349 12.085 2.994 34.869 8.815 80.604 10.109 120.614 3.414 12.176-2.038 28.731-5.874 29.869-6.921.175-.162-2.672-4.613-6.327-9.892-7.482-10.806-6.316-10.33-19.991-8.166-17.921 2.835-32.456 3.818-56.5 3.823-23.424.004-46.819-1.729-57.5-4.26-7.421-1.758-7.809-1.558-15.379 7.922M874 1083.228c-4.125 1.728-7.688 3.284-7.917 3.457-.229.174 1.114 2.221 2.986 4.55 19.912 24.778 20.928 28.308 9.674 33.612-3.434 1.619-9.506 3.979-13.493 5.245l-7.25 2.302v24.247c0 28.052.069 27.838-10 31.203l-5.5 1.839-.546 9.408c-.3 5.175-.917 10.213-1.371 11.196-1.207 2.614-5.646 4.585-12.006 5.333l-5.594.657.258 53.016.259 53.016 5.261 1.789c18.902 6.424 66.034 6.34 89.859-.161l4.12-1.124.657-10.157c.799-12.346.724-218.814-.082-226.906l-.573-5.75-20.621.043-20.621.043zm-173.66 15.842c-10.576 13.019-9.928 11.755-6.669 13 5.48 2.093 23.4 6.033 36.54 8.035 26.795 4.082 67.947 3.543 96.226-1.26 10.175-1.728 28.276-6.225 29.34-7.289.281-.281-5.343-8.161-12.091-16.941l-2.217-2.884-9.484 1.629c-36.051 6.192-90.846 5.779-123.145-.927-2.345-.487-3.35.298-8.5 6.637m124.91 40.202-5.25 1.009V1164h17v-26l-3.25.131c-1.788.073-5.612.586-8.5 1.141m-79.025 19.289.275 16.851 4 .948c4.883 1.158 38.548 1.411 43.75.329l3.75-.78V1143h-19.853c-10.92 0-22.631-.29-26.025-.645l-6.172-.645zm72.75 25.5c-2.332 5.63-8.948 9.162-19.725 10.53-4.96.63-5.25.825-5.25 3.538V1201h14.845c18.31 0 18.155.101 18.155-11.829V1181h-3.379c-2.826 0-3.586.501-4.646 3.061M762 1201v4h17v-8h-17z"/>
</svg>
