<svg xmlns="http://www.w3.org/2000/svg" viewBox="0 0 963 938">
  <path fill="currentColor" fill-rule="evenodd" d="M370.309 10.112c-27.101 1.835-57.801 8.059-84.809 17.196-73.076 24.721-139.344 76.231-185.259 144.001C75.149 208.343 57.947 246 47.392 287c-15.36 59.657-16.353 130.109-2.693 191 11.779 52.509 34.319 99.544 67.399 140.646 33.527 41.658 84.025 80.482 132.902 102.177 10.345 4.592 35.038 13.872 43.5 16.348 12.175 3.562 34.631 8.74 45 10.375 15.489 2.443 47.197 2.988 64.038 1.101 70.803-7.931 141.395-36.444 193.794-78.276 33.066-26.397 56.686-53.481 79.483-91.137 37.689-62.256 57.246-131.924 57.317-204.183.06-61.689-14.223-125.59-40.201-179.849C662.441 141.963 625.48 96.693 584 67.904c-29.596-20.541-67.045-37.725-103-47.265-35.557-9.434-73.507-13.043-110.691-10.527m-9.741 33.03c-3.813.489-7.084 1.041-7.269 1.226-.421.421-3.118 31.356-3.324 38.132-.254 8.314-.737 7.814 6.775 7.018 3.712-.393 6.837-.796 6.944-.894.245-.225 6.427-37.809 7.053-42.874.524-4.247 1.217-4.069-10.179-2.608m20.515 19.608c-1.797 11.412-3.487 21.558-3.757 22.545-.443 1.627.196 1.768 6.783 1.5l7.272-.295 2.673-10.5c2.731-10.723 7.605-29.1 8.554-32.25.476-1.58-.386-1.75-8.866-1.75h-9.393zm30.645-2.585c-5.924 22.086-7.074 26.829-6.606 27.261.208.193 3.557.663 7.442 1.045l7.063.695 3.066-9.333c1.686-5.133 5.112-15.033 7.614-21.999l4.548-12.666-5.177-.636c-2.848-.35-7.005-.876-9.239-1.17l-4.061-.532zm-80.499-12.169c-4.549.942-8.542 1.984-8.874 2.315-.331.332-.272 10.295.132 22.141l.734 21.538 2.64-.415C337.733 91.709 337 92.009 337 89.017c0-1.544.698-11.448 1.551-22.009s1.415-19.545 1.25-19.964-4.023.009-8.572.952m116.864.856c-2.205 4.188-15.496 41.132-14.944 41.539.193.142 3.276.789 6.851 1.439 7.875 1.43 6.942 2.434 15.545-16.724 3.36-7.483 7.088-15.501 8.282-17.816 1.195-2.316 2.173-4.62 2.173-5.12 0-.898-4.438-2.311-12.769-4.067-3.55-.747-4.416-.621-5.138.749M300.25 55.894 292 58.335l.01 4.082c.009 3.619 1.647 19.283 3.589 34.318.752 5.823.066 5.626 9.717 2.782l4.184-1.233.261-8.892c.144-4.891-.081-14.978-.5-22.416l-.761-13.524zm169.779 19.151c-5.1 11.025-8.961 20.356-8.582 20.735.379.38 3.371 1.424 6.649 2.321l5.958 1.631 1.815-2.616c.999-1.439 5.105-8.466 9.126-15.616s8.4-14.73 9.73-16.844 2.235-4.029 2.01-4.255c-.721-.72-14.644-5.401-16.066-5.401-.805 0-5.19 8.262-10.64 20.045m-200.167-7.227c-7.23 3.486-7.62 3.842-7.308 6.682.508 4.626 6.393 36.78 6.808 37.195.11.111 3.224-.987 6.919-2.439 7.848-3.084 7.398-1.162 5.213-22.256-1.924-18.585-2.573-23.016-3.358-22.932-.35.037-4.073 1.725-8.274 3.75m239.387-1.54c-.522.672-5.124 8.422-10.227 17.222-5.102 8.8-9.882 16.978-10.622 18.173-1.293 2.089-1.073 2.277 5.685 4.859 3.866 1.478 7.236 2.48 7.488 2.228C504.129 106.204 527 74.255 527 73.241c0-.698-5.383-3.414-13.435-6.778-2.635-1.101-3.573-1.141-4.316-.185m102.805 13.946c1.954 1.802 8.209 7.323 13.9 12.27 32.705 28.431 63.264 69.965 83.36 113.299C736.532 264.482 749.255 340.13 743.321 408c-5.839 66.784-26.861 129.697-62.085 185.81-32.856 52.338-81.241 95.128-138.736 122.691-39.763 19.062-80.962 30.841-129.386 36.992-12.434 1.58-15.197 2.502-7.531 2.515 2.705.005 9.867.646 15.917 1.426 58.196 7.5 135.642-4.314 196.512-29.978 41.252-17.392 81.861-44.968 107.488-72.989 9.737-10.647 21.864-26.066 29.398-37.379l5.602-8.411.331 6.411c.181 3.527-.169 14.962-.779 25.412-1.522 26.066-2.818 62.867-4.052 115-1.59 67.193-2.632 89.118-4.538 95.5-.903 3.025-3.737 9.55-6.298 14.5-3.79 7.328-6.513 10.866-14.659 19.045-8.58 8.614-11.358 10.719-19.505 14.78-19.363 9.654-41.744 10.078-70.433 1.337-.513-.156 8.487-.256 20-.223 24.14.07 31.665-1.167 44.933-7.386 24.436-11.454 38.024-32.636 40.127-62.551l.652-9.274-6.889-1.123c-12.379-2.019-76.383-11.099-92.89-13.179-4.4-.554-13.4-1.893-20-2.975s-15.15-2.378-19-2.88-11.725-1.601-17.5-2.442-22.2-3.142-36.5-5.114-30.275-4.234-35.5-5.029-20.525-3.012-34-4.927c-13.475-1.916-57.35-8.236-97.5-14.044-103.837-15.023-155.042-22.311-162.276-23.097l-6.276-.682-19.724 11.283c-10.848 6.206-24.585 14.183-30.525 17.727-15.062 8.985-48.98 28.254-49.734 28.254-1.284 0-5.318-10.047-4.395-10.949.829-.81 31.411-17.538 70.93-38.797 7.7-4.142 14.202-7.709 14.449-7.925s-3.857-4.767-9.121-10.111c-15.097-15.331-26.188-30.231-35.257-47.366-4.371-8.258-6.501-11.151-10.405-14.127-8.482-6.469-34.279-33.733-43.746-46.235-15.866-20.95-23.002-32.482-34.898-56.388-11.364-22.836-21.996-51.875-28.413-77.602-2.46-9.863-7.742-34.497-8.628-40.245-.36-2.334-.998-4.456-1.416-4.715-.419-.259-.858 23.002-.976 51.691s-.403 52.468-.634 52.842-.452 29.197-.491 64.053c-.078 69.468.728 84.749 5.641 106.852 3.6 16.2 6.546 24.466 14.438 40.522 13.186 26.828 33.582 49.888 52.457 59.31 7.489 3.738 12.238 4.791 52.5 11.646 40.163 6.837 45.407 7.746 66 11.436 21.202 3.8 61.606 10.779 70 12.092 6.12.957 10.973 1.797 40.5 7.014 17.004 3.004 29.812 5.201 73 12.524 35.376 5.998 73.53 12.535 102 17.476 6.6 1.146 22.575 3.87 35.5 6.053 12.925 2.184 27.1 4.638 31.5 5.454 88.063 16.331 105.604 18.47 123.673 15.085 10.674-2.001 22.244-6.54 30.827-12.096 10.987-7.112 119.508-88.565 128.458-96.417 9.484-8.321 16.131-20.116 19.676-34.913 2.371-9.903 2.322-5.958 1.403-111.164-.581-66.616-1.264-98.06-2.148-98.944-.259-.26-10.056-1.887-21.769-3.617-23.818-3.517-29.339-5.374-37.012-12.447-13.696-12.623-20.231-32.01-21.237-62.992-.478-14.733-.241-19.586 1.5-30.694 5.962-38.052 20.195-66.157 38.14-75.311 6.174-3.15 17.412-4.906 25.685-4.014 3.742.404 7.011.553 7.265.332.537-.468-3.61-4.037-9.867-8.489-19.229-13.682-42.661-8.007-59.683 14.457-5.754 7.592-13.046 22.651-17.782 36.719-7.122 21.156-10.472 51.529-8.657 78.5.592 8.8 1.343 17.237 1.669 18.75 1.023 4.751-1.255 3.006-3.916-3-7.03-15.861-9.19-28.769-8.456-50.515 2.039-60.382 29.204-107.883 63.167-110.452l7.794-.589-.608-4.437c-1.063-7.757-9.439-40.262-13.981-54.257-10.207-31.453-21.737-56.333-36.146-78-5.304-7.975-9.723-14.773-9.819-15.106s2.112-2.423 4.909-4.643c6.893-5.472 8.979-9.956 7.452-16.02-2.156-8.561-8.828-15.248-15.188-15.221-2.767.011-11.925 4.118-15.561 6.978l-2.547 2.004-14.783-15.305c-23.183-24.003-51.848-46.338-82.226-64.068C640.61 92.879 633.737 89 633.46 89s-6.008-2.712-12.733-6.026c-11.307-5.572-11.96-5.779-8.673-2.75M242.5 81.63c-10.954 5.672-10.643 5.116-7.909 14.158 1.282 4.241 3.718 12.324 5.413 17.962s3.562 10.25 4.149 10.25 3.725-1.417 6.974-3.149c5.821-3.102 5.899-3.201 5.321-6.75-1.308-8.016-5.561-30.779-6.231-33.348l-.717-2.748zm294.515 1.691a7587 7587 0 0 0-13.418 18.179l-10.309 14 6.555 3.364 6.554 3.364 3.552-3.934c9.8-10.857 24.051-28.33 24.051-29.49 0-.723-3.122-3.193-6.938-5.488l-6.938-4.174zM213 100.708c-4.125 2.979-7.654 5.85-7.842 6.38s2.624 7.836 6.25 16.236c3.626 8.399 6.592 15.85 6.592 16.557s.377 1.136.839.952c2.084-.828 13.144-8.404 13.152-9.009.011-.8-10.929-36.124-11.263-36.367-.125-.091-3.603 2.272-7.728 5.251m349.892.042c-2.873 3.065-9.747 11.085-22.58 26.345-1.173 1.395-.586 2.124 4.696 5.83l6.038 4.235 14.727-14.22c8.1-7.821 14.727-14.583 14.727-15.026 0-.809-12.521-10.888-13.547-10.905-.301-.005-2.129 1.679-4.061 3.741m-188.303 1.449c-2.199 13.931-3.581 23.959-3.815 27.663l-.274 4.362 5 .121 5 .121 1.24-4.983c1.485-5.971 5.154-22.744 5.922-27.072l.547-3.089-6.549-.212-6.55-.212zm27.01-.066c-1.255 3.022-7.599 29.7-7.599 31.952 0 .503 2.458.915 5.461.915h5.462l1.097-4.25c.603-2.338 2.846-9.863 4.985-16.724 4.117-13.204 4.062-13.966-1.005-14.024-1.375-.016-3.513-.301-4.752-.633-1.86-.498-2.495-.017-3.649 2.764m-45.888-1.058c-3.183.368-6.06.941-6.392 1.273-.585.585-2.125 19.909-2.255 28.295l-.064 4.143 5.206-.143 5.206-.143 1.169-8c2.803-19.196 3.619-25.625 3.281-25.852-.199-.133-2.967.059-6.151.427m68.558 13.641c-5.7 17.581-6.522 20.367-6.119 20.75.193.182 2.803.489 5.801.683l5.452.351 4.244-10.868c2.334-5.978 5.169-12.836 6.299-15.239 1.129-2.404 2.054-4.787 2.054-5.294 0-.508-1.913-1.212-4.25-1.565-2.337-.352-5.395-.857-6.793-1.122-2.458-.464-2.683-.051-6.688 12.304m-96.633-9.469-4.865 1.011.722 14.621c.397 8.042.871 14.87 1.052 15.174s2.495.304 5.142 0c4.689-.539 4.817-.644 4.975-4.053.089-1.925.495-9.013.903-15.75.839-13.882 1.502-12.963-7.929-11.003m125.721 6.503c-.847 2.063-3.749 8.766-6.449 14.897S442 138.274 442 138.859c0 .968 7.827 3.697 8.481 2.957.153-.174 1.491-2.73 2.973-5.68s5.374-9.875 8.648-15.389 5.828-10.135 5.675-10.268c-.385-.337-10.649-2.479-11.877-2.479-.551 0-1.695 1.688-2.543 3.75m-149.857.088-5 1.678.29 8.992c.16 4.946.685 10.451 1.167 12.234 1.051 3.885.715 4.144-6.301 4.859-6.278.64-5.634 1.748-7.732-13.318l-1.145-8.218-3.639 1.572c-2.002.865-5.031 2.176-6.731 2.915l-3.092 1.342 1.321 6.303c2.002 9.557 1.884 10.04-3.388 13.86-2.613 1.894-5.027 3.573-5.366 3.732-.339.158-.925-2.092-1.302-5-.781-6.023-2.619-12.789-3.474-12.789-1.924 0-11.104 5.753-11.106 6.96-.001.802 1.185 5.643 2.636 10.757l2.639 9.297-5.087 5.378c-5.264 5.566-6.19 5.865-6.19 1.993 0-2.504-4.778-18.441-5.882-19.62-.846-.904-11.021 5.818-11.772 7.776-.298.777 2.43 7.747 6.063 15.489 5.735 12.22 6.45 14.365 5.427 16.272-.648 1.209-1.889 4.921-2.757 8.25l-1.579 6.052-9-18.751c-4.95-10.314-9.264-18.775-9.586-18.802-.996-.086-9.727 7.02-10.228 8.324-.489 1.275 4.772 10.255 19.222 32.812 12.199 19.044 12.604 19.916 16.619 35.813 5.486 21.719 5.483 21.767-.747 12-2.982-4.675-8.587-13.225-12.455-19s-9.408-14.325-12.31-19c-4.354-7.013-19.507-30.367-20.725-31.943-.352-.455-9.175 9.047-9.232 9.943-.033.521 9.585 12.984 25.89 33.546A2948 2948 0 0 1 226.5 245.93c4.4 5.686 11.051 14.215 14.779 18.954 3.729 4.739 10.629 14.357 15.335 21.373 8.055 12.011 10.386 14.195 10.386 9.729 0-1.93-.548-3.467-10.36-29.071-8.793-22.944-14.571-48.317-14.622-64.207-.073-23.126 12.994-43.618 34.814-54.597 6.079-3.058 23.686-8.11 28.324-8.126 7.089-.025 7.036.111 6.247-15.826-.46-9.298-1.079-14.131-1.802-14.079-.606.044-3.351.835-6.101 1.758m168.932 17.412c-4.363 7.838-8.064 14.945-8.225 15.794-.178.943 1.102 2.21 3.284 3.25 1.967.939 3.739 1.706 3.938 1.706.4 0 17.234-22.9 20.034-27.253l1.771-2.753-5.645-2.497c-3.105-1.373-6.001-2.497-6.436-2.497s-4.359 6.412-8.721 14.25m-286.352-6.175-6.421 5.987 1.754 3.719c2.27 4.812 14.758 26.219 15.295 26.219.87 0 11.292-10.337 11.292-11.2 0-2.055-13.78-30.811-14.738-30.756-.419.025-3.651 2.739-7.182 6.031m390.506 8.146-14.876 14.221 5.335 4.779c2.935 2.629 5.666 4.779 6.068 4.779.403 0 5.331-3.713 10.951-8.25s12.847-10.183 16.059-12.546l5.842-4.296-6.733-6.439c-3.702-3.541-6.965-6.445-7.251-6.454-.285-.008-7.213 6.385-15.395 14.206m-74.033-.95c-1.62 2.326-6.118 8.504-9.995 13.729-3.878 5.225-8.017 11.396-9.2 13.713-2.014 3.948-2.056 4.484-.674 8.497.812 2.356 1.63 4.437 1.818 4.626.65.649 33.498-37.395 33.498-38.796 0-.937-9.731-6.053-11.446-6.019-.58.012-2.38 1.925-4.001 4.25m18.669 18.979c-29.093 33.435-35.885 42.359-43.175 56.726-3.876 7.639-7.047 14.225-7.047 14.636 0 .412 1.688-1.241 3.75-3.671 6.752-7.957 39.448-43.149 52.742-56.768 7.154-7.329 13.112-13.629 13.239-14 .207-.606-9.084-7.173-10.149-7.173-.243 0-4.455 4.613-9.36 10.25m-359.147-2.75c-3.433 3.575-6.092 6.838-5.908 7.25.752 1.692 19.372 26.219 19.833 26.126.275-.056 2.901-2.717 5.836-5.913l5.336-5.811-1.958-2.826c-2.504-3.614-12.611-20.122-14.128-23.076-.636-1.238-1.519-2.25-1.963-2.25-.443 0-3.615 2.925-7.048 6.5m437.208 5.309c-8.37 6.43-15.216 12.141-15.214 12.691s2.38 3.52 5.285 6.601l5.281 5.6 11.433-8.294C623.166 156.003 626 153.829 626 153.119c0-1.018-10.009-13.126-10.795-13.06-.388.033-7.553 5.32-15.922 11.75m-73.924 29.939c-42.906 44.38-64.76 67.928-69.839 75.252-2.214 3.192-6.456 12.177-5.194 11 .295-.275 11.255-11.079 24.355-24.009 28.614-28.24 63.265-59.621 85.335-77.278l3.484-2.787-4.847-4.463c-2.665-2.455-5.429-4.463-6.141-4.463s-12.931 12.036-27.153 26.748M145.5 165.357c-.55.785-3.18 4.198-5.845 7.583l-4.845 6.154 9.275 10.203c5.1 5.612 10.094 11.092 11.097 12.178 1.802 1.952 1.86 1.93 5.071-1.91 1.786-2.136 4.028-5.082 4.983-6.547l1.735-2.662-7.937-10.428c-12.254-16.098-12.374-16.227-13.534-14.571m473.709 10.038c-8.411 5.695-15.538 10.601-15.839 10.902-.439.439 5.639 9.612 8.6 12.98.376.427 2.819-.473 5.43-2s5.513-3.227 6.45-3.777 6.293-3.607 11.903-6.793l10.2-5.794-5.226-7.934c-2.875-4.364-5.452-7.935-5.727-7.937-.275-.001-7.381 4.657-15.791 10.353m-51.709 1.882c-28.963 24.371-61.157 52.57-75.5 66.134-3.575 3.38-16.288 15.517-28.25 26.97-30.198 28.912-28.968 29.642 3.4 2.019 25.959-22.154 48.56-39.502 92.35-70.885 12.1-8.671 22.553-16.207 23.23-16.746.916-.731-.08-2.352-3.919-6.374-2.832-2.967-5.41-5.379-5.73-5.36s-2.831 1.928-5.581 4.242m-445.853 21.711c-2.556 3.843-4.647 7.187-4.647 7.43 0 .35 14.306 12.912 23.16 20.337 1.487 1.247 2.035.722 5.25-5.028 1.974-3.53 3.586-6.826 3.581-7.323-.012-1.243-20.543-22.404-21.737-22.404-.528 0-3.052 3.145-5.607 6.988m513.697 3.065-16.156 9.007 4.035 6.97c2.22 3.834 4.587 6.97 5.26 6.97.674 0 5.453-1.973 10.621-4.384a1912 1912 0 0 1 16.057-7.397l6.662-3.013-4.466-8.603c-2.457-4.732-4.779-8.593-5.162-8.58-.382.013-7.965 4.076-16.851 9.03M586 197.932C544.093 226.332 460.99 289 465.237 289c.81 0 20.559-12.022 43.263-26.337 10.45-6.588 29.35-18.276 42-25.972l36.25-22.059c7.288-4.436 13.25-8.426 13.25-8.868 0-1.28-4.559-8.105-6.62-9.912-1.769-1.55-2.205-1.427-7.38 2.08m-416.358 9.244-3.859 5.061 26.509 26.632c14.58 14.647 27.952 28.206 29.715 30.131 7.967 8.697 35.458 36 36.248 36 1.001 0-2.179-4.057-17.746-22.643-6.055-7.229-18.434-22.442-27.509-33.807a92825 92825 0 0 0-20-25.042c-13.573-16.979-17.455-21.501-18.411-21.451-.599.031-2.825 2.335-4.947 5.119M590 227.161c-17.507 10.227-26.526 15.547-67.135 39.602-28.478 16.87-28.731 16.994-46.056 22.567-15.714 5.056-42.447 16.989-49.217 21.97-1.878 1.382-1.878 1.446 0 4.01 1.049 1.433 2.526 2.856 3.281 3.163.756.308 5.285-1.618 10.066-4.278 8.901-4.953 26.636-12.694 35.561-15.522 40.067-12.692 87.57-11.639 116 2.572 6.924 3.461 17.435 11.811 22.206 17.641 8.456 10.333 13.998 24.342 16.311 41.237.603 4.405 1.304 8.551 1.559 9.214.301.784 3.58 1.304 9.387 1.488l8.926.284-.331-2.805c-.181-1.542-.381-5.34-.444-8.441l-.114-5.636-7.157.136-7.158.137-1.254-5.495c-1.493-6.537-1.157-6.915 6.319-7.115 2.888-.077 5.804-.196 6.48-.265 1.3-.132 1.259-5.146-.095-11.625-.705-3.375-.89-3.498-5.183-3.458-2.449.024-6.199.249-8.334.5l-3.883.458-2.506-5.778c-1.379-3.177-2.232-6.053-1.895-6.389s4.674-1.079 9.639-1.648c5.974-.686 9.027-1.457 9.027-2.28 0-1.437-3.019-13.566-3.632-14.595-.226-.379-2.539-.076-5.14.673-2.6.75-8.489 2.112-13.086 3.028l-8.359 1.665-5.766-2.588c-3.172-1.423-6.611-2.595-7.642-2.603s-2.515-.421-3.297-.916c-1.044-.66-.246-1.209 3-2.065 27.217-7.173 35.922-9.962 35.922-11.509 0-2.81-4.171-12.495-5.381-12.495-.681 0-6.836 2.074-13.678 4.608-34.199 12.668-33.975 12.602-40.441 11.901-3.3-.358-8.679-1.195-11.953-1.861l-5.952-1.211 12.452-4.655c6.849-2.56 19.203-7.173 27.453-10.252 24.175-9.021 28.5-10.798 28.5-11.711 0-1.311-5.798-13.819-6.406-13.819-.631 0-23.298 10.042-36.094 15.99-4.95 2.3-17.55 8.033-28 12.738l-19 8.555-11.5.902c-6.325.496-12.962 1.296-14.75 1.778s-3.25.726-3.25.542c0-.377 67.342-33.868 91-45.257 8.525-4.104 15.631-7.582 15.792-7.73.698-.642-7.006-12.513-8.09-12.465-.661.029-8.177 4.128-16.702 9.108m-484.435-1.579c-5.554 10.106-5.692 9.756 6.935 17.583 11.377 7.053 16.667 10.029 17.042 9.589.771-.902 5.458-10.856 5.458-11.591 0-.872-24.33-22.163-25.326-22.163-.27 0-2.119 2.962-4.109 6.582M650 230.031c-7.975 3.796-15.062 6.917-15.75 6.936-.687.018-1.25.195-1.25.392 0 1.29 7.216 15.641 7.865 15.641 1.31 0 31.565-11.134 32.415-11.93 1.059-.991-6.185-18.086-7.63-18.006-.633.035-7.675 3.17-15.65 6.967m-493.74-1.89c-4.66 6.802-4.782 8.102-1.016 10.852 3.934 2.874 84.489 67.462 90.506 72.567 2.338 1.983 4.25 3.218 4.25 2.744 0-.942-66.009-66.849-80.5-80.374-4.95-4.621-9.282-8.794-9.627-9.275-.344-.481-1.97 1.088-3.613 3.486m-64.243 27.161c-5.277 11.639-6.099 10.264 10.727 17.948 8.129 3.712 15.3 6.75 15.936 6.75 1.444 0 5.581-12.156 4.816-14.15-.309-.806-3.585-3.119-7.279-5.14a2203 2203 0 0 1-14.005-7.748l-7.288-4.072zm50.562-.516-2.778 5.665 2.349 1.858c2.203 1.741 8.976 5.98 23.994 15.014 17.484 10.518 34.512 21.084 45.001 27.924 6.405 4.176 12.93 8.317 14.5 9.201s6.005 3.629 9.855 6.099c9.65 6.192 10.5 6.648 10.5 5.638 0-1.106-21.512-18.311-46.5-37.191-41.186-31.118-50.079-37.743-52.071-38.787-1.879-.985-2.329-.56-4.85 4.579M670 256.574c-3.575 1.335-9.987 3.615-14.25 5.066-11.397 3.881-11.166 3.535-8.087 12.11 1.613 4.492 3.158 7.25 4.06 7.25.802 0 6.704-1.377 13.117-3.06 6.413-1.682 13.348-3.5 15.41-4.038 2.488-.649 3.75-1.554 3.75-2.687 0-3.231-5.166-17.215-6.332-17.142-.642.041-4.093 1.166-7.668 2.501m-536.541 20.87c-3.493 8.359-3.371 8.656 5.255 12.766 4.282 2.041 24.886 12.095 45.786 22.343 52.19 25.59 52.532 25.75 53.31 24.956 1.181-1.205-4.884-5.536-27.476-19.621-21.273-13.263-70.187-42.127-73.627-43.447-1.31-.503-2.081.211-3.248 3.003m-95.188.291c-16.1 14.676-27.404 40.897-30.378 70.471-1.251 12.437-.231 27.561 2.589 38.387C12.839 395.643 23.809 417 26.1 417c.347 0 .261-1.913-.191-4.25s-.837-11.675-.856-20.75c-.08-39.525 5.401-80.196 14.598-108.313 1.405-4.298 2.352-8.017 2.104-8.265s-1.816.793-3.484 2.313m42.18 10.827c-1.554 4.883-2.345 8.908-1.839 9.366 1.334 1.207 32.28 10.514 32.899 9.894.295-.295 1.377-3.566 2.404-7.27l1.867-6.734-6.641-2.986C99.785 286.624 84.191 280 83.64 280c-.254 0-1.689 3.853-3.189 8.562m251.049-1.918c-1.65.267-5.7 1.162-9 1.989-40.495 10.15-68.501 37.461-77.047 75.135-9.377 41.333 9.693 82.881 45.992 100.206 35.028 16.718 78.504 9.293 107.377-18.337 15.554-14.885 24.449-30.452 29.235-51.162 3.025-13.091 2.41-33.549-1.414-46.975-10.611-37.263-40.064-59.532-80.598-60.94-6.35-.22-12.895-.182-14.545.084m337.5 3.512c-7.425 1.659-13.885 3.385-14.354 3.835-.471.45-.068 4.46.894 8.913 1.652 7.645 1.894 8.092 4.355 8.026 6.144-.165 31.489-4.583 31.81-5.546.194-.58-.475-4.841-1.486-9.469-1.779-8.147-1.931-8.421-4.778-8.595-1.618-.099-9.016 1.177-16.441 2.836m-344.953 7.982c-27.435 4.548-53.43 25.271-63.171 50.357-12.822 33.019-3.603 71.991 22.035 93.157 12.343 10.19 27.583 16.614 43.668 18.407 26.175 2.919 53.702-8.149 70.328-28.277 18.162-21.989 23.984-56.183 14.247-83.672-9.008-25.429-29.682-44.514-53.742-49.611-7.571-1.604-24.748-1.79-33.365-.361m-197.536 2.144c-3.367 10.207-3.217 13.153.739 14.441 1.787.582 14.275 5.003 27.75 9.825C192.192 337.858 225.116 349 227.253 349c1.052 0 1.738-.527 1.523-1.171-.421-1.265-14.508-8.694-29.776-15.704-5.225-2.4-20.75-9.517-34.5-15.818-13.75-6.3-27.832-12.758-31.294-14.349-4.412-2.029-6.413-2.53-6.695-1.676m195.719 9.733c-23.038 6.036-43.09 25.028-49.287 46.678-3.84 13.417-1.967 33.768 3.614 39.271 1.408 1.388 1.463 1.282.571-1.094-1.949-5.192-.163-26.56 2.487-29.753.175-.211 1.925 1.028 3.888 2.752 8.448 7.417 19.049 10.602 34.512 10.37 19.215-.29 34.217-6.868 47.263-20.726 8.041-8.541 11.394-16.981 10.282-25.879-.591-4.729-1.385-6.336-5.27-10.657-10.268-11.419-29.538-15.815-48.06-10.962M74.659 312.75c-1.323 2.158-3.904 17.404-3.085 18.218.938.931 33.451 7.34 34.074 6.717.589-.588 2.352-10.844 2.352-13.678 0-2.638-.456-2.858-15.289-7.363-15.92-4.836-17.294-5.132-18.052-3.894m599.648 9.137c-7.257.917-13.532 2.004-13.945 2.418-.779.779.986 15.376 1.979 16.369.309.31 7.897.172 16.861-.306l16.298-.868-.223-6.5c-.122-3.575-.48-7.962-.795-9.75-.681-3.866-.461-3.851-20.175-1.363m-553.779 6.272c-1.83 7.703-2.234 12.015-1.163 12.395.624.222 11.935 2.926 25.135 6.01s24.349 5.939 24.775 6.346c.426.406-2.507 2.427-6.518 4.491l-7.292 3.751-17.483-3.593c-9.615-1.977-18.255-3.836-19.199-4.133-1.89-.594-2.36.742-3.103 8.835-.506 5.519-1.711 4.947 14.32 6.798 14.872 1.716 14.627 1.524 9.358 7.331l-4.437 4.89-9.96-.686-9.961-.686-.002 6.796-.003 6.796 7.563-.331 7.563-.331-.7 3.831c-1.329 7.264-1.847 7.908-6.57 8.164-7.384.401-7.853.759-7.837 5.984.023 8.05.601 9.044 4.923 8.465l3.761-.505.646 4.715c.774 5.645.564 6.076-3.323 6.854-2.63.526-3.018 1.028-2.997 3.879.026 3.649 1.475 10.607 2.401 11.533.329.33 2.956-.143 5.837-1.051l5.238-1.652.035-15.277c.047-20.766 3.038-31.521 12.22-43.943 9.483-12.83 27.272-24.391 46.023-29.909 2.353-.693 4.145-1.656 3.983-2.142-.287-.862-8.601-3.864-49.261-17.788-11-3.767-20.769-7.148-21.708-7.514-1.25-.486-1.857-.036-2.264 1.677m-51.878 19.1c-.333 1.326-.899 5.572-1.258 9.435-.791 8.509-2.188 7.881 19.707 8.861l15.598.699.641-3.877c.352-2.132.645-5.506.651-7.496.01-3.307-.27-3.667-3.239-4.169-9.698-1.642-27.534-4.884-29.372-5.339-1.63-.404-2.264.035-2.728 1.886m326.421 10.474c.033 6.63-.241 13.789-.608 15.91-4.933 28.474-25.243 50.377-52.721 56.856-7.159 1.688-21.194 1.952-28.356.533-8.528-1.689-9.215-1.87-11.255-2.962-3.741-2.002-3.443-1.079.595 1.846 9.89 7.165 18.447 9.614 32.774 9.383 17.471-.283 32.54-6.661 45.101-19.088 14.96-14.802 22.964-36.812 20.315-55.862-.894-6.424-4.007-16.771-5.494-18.259-.225-.226-.383 5.013-.351 11.643m274.631-3.99-6.799.351.682 8.703c.374 4.787.733 8.76.798 8.829.064.069 7.655.447 16.867.839l16.75.713v-8.507c0-4.679-.273-9.219-.607-10.089-.62-1.615-8.207-1.845-27.691-.839M65.848 384.097c-.163 6.853-.156 9.487.033 11.961.107 1.402 1.735 1.383 16.369-.197 8.938-.965 17.037-1.779 18-1.808 1.492-.045 1.75-1.068 1.75-6.936 0-8.363 1.255-7.822-20.25-8.746L66 377.693zM633 391c0 5.706.358 8.015 1.25 8.051.688.029 4.314.392 8.06.808 3.745.417 6.979.483 7.186.147.208-.336.688-3.9 1.067-7.921.538-5.694.386-7.503-.686-8.182-.758-.48-4.864-.879-9.127-.888L633 383zm31.419-6.086c-.23.231-.419 4.344-.419 9.141v8.722l3.25.571c6.336 1.114 28.934 3.801 29.253 3.479.873-.882.867-18.855-.007-19.711-.973-.952-31.248-3.031-32.077-2.202m177.133 3.744c-13.874 4.257-24.164 17.667-32.041 41.757-6.953 21.263-10.112 43.517-9.169 64.585 1.309 29.221 10.15 48.753 25.158 55.58 7.562 3.44 81.001 15.117 86.968 13.828 21.704-4.687 36.015-36.892 39.507-88.908 2.15-32.02-3.522-58.752-15.307-72.14-7.256-8.243-11.171-9.25-53.753-13.826-26.765-2.876-34.325-3.036-41.363-.876M92 408.048c-4.125.426-11.662 1.323-16.75 1.992L66 411.257v4.732c0 2.603.287 6.828.639 9.391l.638 4.659 3.612-.623c2.986-.514 11.097-2.335 30.757-6.903 1.877-.436 2.157-1.223 2.227-6.256.098-7.149-.534-9.295-2.69-9.121-.926.074-5.058.485-9.183.912m540.538 5.37c-.229 1.145-.626 4.897-.883 8.337-.455 6.109-.405 6.268 2.189 6.84 1.461.322 4.989 1.143 7.84 1.824 6.012 1.437 5.736 1.823 6.903-9.648.786-7.719 1.244-7.275-8.86-8.569-6.407-.82-6.796-.754-7.189 1.216m190.213 1.332c-4.021 4.214-10.522 19.759-12.14 29.03-.479 2.744-.209 3.426 1.658 4.176 1.227.492 14.156 2.348 28.731 4.123s28.91 3.524 31.856 3.888c6.257.773 5.609 1.675 9.615-13.401 1.451-5.463 3.937-12.985 5.525-16.715l2.886-6.783-3.191-.487c-7.632-1.167-56.477-6.6-59.254-6.591-2.03.007-3.948.938-5.686 2.76m89.111-.852c-8.07 4.035-14.174 14.002-18.741 30.605-8.089 29.405-9.176 59.279-3.033 83.362 4.622 18.121 15.651 25.873 26.417 18.567 5.087-3.452 6.928-5.733 11.013-13.641 5.625-10.889 11.41-35.227 9.089-38.234-.713-.922-4.098-1.683-9.498-2.136l-8.39-.704.634 7.892c2.081 25.908 2.06 27.906-.341 32.866-2.723 5.625-7.473 8.455-11.689 6.965-3.68-1.301-7.78-8.436-10.226-17.793-2.288-8.756-3.762-28.73-2.66-36.073l.716-4.779 9.878.707 9.878.707.676-2.693c1.921-7.654-2.549-38.401-6.576-45.225l-2.015-3.416 2.61-3.422c6.74-8.838 15.822-9.903 22.228-2.609l2.333 2.656-.687-2.5c-2.978-10.831-12.438-15.69-21.616-11.102m-250.861 11.093c-.968 6.756-1.02 9.379-.196 9.889.617.381 7.702 1.991 15.743 3.578 10.794 2.13 14.81 2.58 15.342 1.72 1.159-1.876 3.423-18.863 2.675-20.073-.376-.608-2.569-1.116-4.874-1.129-2.305-.014-5.991-.428-8.191-.92s-7.416-1.202-11.59-1.578l-7.591-.683zM86.5 439.186c-8.8 2.193-16.393 4.364-16.873 4.824-.792.759 1.743 17.694 2.809 18.759.241.241 8.164-2.136 17.605-5.283l17.167-5.721-.665-6.633c-.831-8.279-1.366-10.158-2.86-10.033-.651.055-8.383 1.894-17.183 4.087m541.575 8.304c-.621 3.569-1.371 7.118-1.666 7.887-.381.991 1.279 2.009 5.722 3.51 9.351 3.158 9.421 3.129 11.186-4.637.843-3.712 1.819-7.483 2.168-8.378.521-1.335-.658-1.92-6.548-3.25-3.95-.892-7.756-1.622-8.457-1.622-.786 0-1.708 2.489-2.405 6.49m28.055 9.641c-1.247 5.022-1.899 9.499-1.449 9.949.451.45 7.034 2.821 14.631 5.271l13.812 4.453 1.012-2.652c1.404-3.677 5.068-19.281 4.631-19.718S661.054 448 659.504 448c-.608 0-2.127 4.109-3.374 9.131m-229.171-5.588c-1.925 2.05-2.132 2.732-1.035 3.41 2.667 1.648 9.623 7.604 14.145 12.111 13.03 12.987 20.986 31.497 24.577 57.182 2.424 17.334 2.442 54.138.034 69.558-4.939 31.632-14.048 51.257-29.044 62.571-2.825 2.132-6.148 4.342-7.386 4.911-1.431.658-2.25 1.919-2.25 3.462 0 2.301.222 2.391 4.25 1.717 2.337-.39 4.475-.992 4.75-1.337.275-.346 1.063-.673 1.75-.728 3.01-.241 3.183-.446 2.311-2.739-.801-2.107-.364-2.64 4.405-5.379l5.294-3.041 1.289 3.907c.709 2.148 1.556 3.781 1.882 3.629.327-.152 3.626-1.398 7.332-2.768s6.737-2.998 6.737-3.617c0-2.557-4.369-11.392-5.633-11.392-1.931 0-1.757-.863 1.71-8.51 3.908-8.619 8.38-25.706 10.598-40.49 1.326-8.846 1.717-17.961 1.691-39.5-.032-26.114-.212-28.909-2.675-41.5-1.453-7.425-3.291-15.974-4.084-18.999-.794-3.024-1.364-5.578-1.266-5.675.179-.179 12.123 13.673 27.67 32.091 16.78 19.878 29.92 36.429 45.91 57.827 8.937 11.958 16.678 22.008 17.201 22.332 1.012.625 6.502-3.936 11.227-9.327l2.85-3.251-5.268-5.749a14232 14232 0 0 1-24.345-26.749c-63.45-69.845-87.142-93.289-104.086-103-6.451-3.697-7.847-3.824-10.541-.957m-299.322 5.45c-2.674 1.045-5.019 2.055-5.209 2.246-.418.418 2.366 12.618 3.178 13.933.348.562 1.027.565 1.733.007.639-.505 2.842-1.46 4.897-2.122s3.979-1.595 4.275-2.075c.652-1.054-2.491-14.002-3.383-13.935-.345.026-2.816.901-5.491 1.946M105 465.486c-1.925.739-9.35 3.401-16.5 5.915-10.573 3.718-12.941 4.901-12.683 6.335.646 3.593 4.393 15.789 5.072 16.51.628.667 30.517-12.39 32.363-14.138 1.035-.98-2.505-16.125-3.75-16.038-.551.039-2.577.676-4.502 1.416m516.528 9.307c-.875 3.139-2.026 6.741-2.559 8.004s-.969 2.713-.969 3.221c0 1.244 10.87 6.155 12.793 5.78.928-.181 2.637-3.604 4.357-8.724 1.557-4.635 2.723-8.519 2.59-8.633-.132-.113-3.476-1.365-7.431-2.781l-7.192-2.575zm27.962 6.457c-2.401 6.705-5.477 16.486-5.483 17.433-.004.65 1.006 1.494 2.243 1.875s7.145 2.918 13.129 5.639c5.983 2.72 11.208 4.576 11.611 4.124 1.097-1.23 8.412-20.268 7.928-20.635-1.105-.838-26.246-9.686-27.521-9.686-.803 0-1.661.563-1.907 1.25m-515.458 1.872c-2.458 1.09-4.598 2.11-4.755 2.268-.307.306.938 4.488 3.394 11.398l1.523 4.288 4.653-2.671c6.767-3.884 6.745-3.84 4.412-9.135-1.156-2.624-2.348-5.558-2.649-6.52-.667-2.132-.967-2.115-6.578.372m-33.338 17.02c-17.46 8.756-16.697 7.803-12.701 15.858.955 1.925 2.289 5.207 2.964 7.294l1.227 3.793 5.159-2.912c9.372-5.289 25.657-16.196 25.657-17.183 0-1.407-5.102-13.939-5.86-14.393-.352-.211-7.753 3.183-16.446 7.543m211.828 3.356c-21.738 32.369-53.356 55.596-87.253 64.097-4.835 1.212-9.428 1.532-17.339 1.206-9.529-.393-11.487-.801-17.096-3.562-3.484-1.715-8.237-4.747-10.562-6.738-4.643-3.975-4.489-4.002-10.376 1.836l-2.861 2.837 5.232 6.858c2.878 3.772 5.76 6.883 6.405 6.913s2.717-1.75 4.605-3.956l3.433-4.01 4.895 2.679c2.692 1.474 5.066 2.813 5.275 2.975s-1.928 2.959-4.75 6.217-5.13 6.217-5.13 6.579c0 1.316 9.312 10.571 10.637 10.571.75 0 1.367-.337 1.371-.75s2.817-4.977 6.25-10.143l6.242-9.393 4.763-.387c10.827-.881 27.623-6.111 41.221-12.837 22.465-11.112 40.796-25.89 56.487-45.537 7.589-9.503 16.114-24.201 14.799-25.516-.379-.38-2.431-.891-4.558-1.137l-3.869-.447zm296.968 4.087c-2.195 4.722-3.951 8.885-3.904 9.25s2.747 2.114 6 3.885l5.914 3.219 4.731-9.719 4.731-9.72-5.731-2.673c-3.152-1.471-6.186-2.708-6.741-2.75-.556-.043-2.806 3.786-5 8.508m-466.741 1.981-4.751 2.474 4.026 8.008 4.027 8.009 4.475-3.74c3.464-2.896 4.332-4.201 3.845-5.779-1.088-3.52-5.371-11.54-6.138-11.491-.403.025-2.871 1.159-5.484 2.519m491.815 10.165c-2.511 4.823-4.788 9.456-5.061 10.295-.355 1.093 3.061 3.705 12.021 9.194l12.516 7.667 5.583-11.132c6.555-13.071 7.341-11.336-8.623-19.024-5.775-2.781-10.808-5.217-11.185-5.413s-2.74 3.59-5.251 8.413M115.5 527.797c-6.6 4.25-13.125 8.518-14.5 9.486l-2.5 1.759 4.339 8.479c2.386 4.663 4.819 8.479 5.406 8.479 1.286 0 5.438-3.094 16.901-12.597 4.756-3.942 9.144-7.333 9.751-7.535.661-.221-.524-3.477-2.957-8.118-2.233-4.263-4.146-7.734-4.25-7.715s-5.59 3.512-12.19 7.762m367.801-.172c3.681 13.396 7.265 21.218 20.794 45.375 6.95 12.41 9.551 17.213 21.932 40.5 2.339 4.4 4.385 8.158 4.546 8.35.662.79 16.457-11.331 16.072-12.333-.23-.598-6.881-9.728-14.781-20.288s-18.368-24.599-23.263-31.198c-8.224-11.09-13.046-17.145-20.653-25.938-1.622-1.873-2.948-3.759-2.948-4.191s-.498-1.092-1.107-1.468c-.713-.441-.924-.016-.592 1.191m113.237 2.957c-.931 1.421-3.313 4.377-5.294 6.57l-3.602 3.987 2.929 2.44c1.611 1.343 4.558 3.778 6.55 5.412l3.62 2.972 3.813-5.731c7.235-10.879 7.216-10.107.368-14.437-3.301-2.087-6.158-3.795-6.347-3.795s-1.106 1.162-2.037 2.582m-440.288 4.517c-2.338 1.656-4.25 3.35-4.25 3.765 0 .815 6.663 12.156 7.862 13.382.401.41 2.601-1.165 4.889-3.5l4.159-4.246-3.979-6.25c-2.189-3.437-4.081-6.23-4.205-6.205-.124.024-2.138 1.399-4.476 3.054M775.005 545c-.047 3.025-.283 10.9-.526 17.5-.969 26.372-3.746 153.919-4.984 229-.309 18.7-.781 41.353-1.05 50.341-.545 18.208-.343 18.637 5.296 11.264 6.448-8.429 6.508-9.302 7.763-112.605.575-47.374.988-69.992 2.561-140.23l1.058-47.229-3.521-4.771c-7.224-9.786-6.503-9.428-6.597-3.27m-468.316-.056c-3.749 4.473-7.697 12.422-15.426 31.056-9.881 23.822-25.21 66.085-25.25 69.617-.007.614 2.207 2.039 4.92 3.166l4.933 2.051 1.522-5.167c5.114-17.366 6.612-23.689 6.612-27.905 0-8.005 4.647-20.998 20.455-57.188 3.706-8.486 5.542-13.966 5.345-15.955l-.3-3.029zm309.88 7.033-5.691 8.977 3.311 2.895c1.821 1.592 6.911 5.858 11.311 9.478l8 6.584 2-2.665c3.003-4.002 11.5-17.564 11.5-18.355 0-.623-23.388-15.891-24.342-15.891-.219 0-2.959 4.04-6.089 8.977M129 556.605c-6.325 5.211-12.114 10.086-12.864 10.834-1.151 1.148-.67 2.428 3.079 8.21 7.413 11.433 6.273 11.557 19.388-2.104 6.268-6.53 11.397-12.478 11.397-13.22 0-1.569-7.856-13.356-8.838-13.26-.364.036-5.837 4.329-12.162 9.54m441.72-5.35c-2.628 1.688-6.426 3.337-8.438 3.664l-3.658.595 10.336 10.993c5.685 6.046 10.813 10.993 11.395 10.993 1.287 0 11.645-13.235 11.645-14.879 0-1.057-14.245-13.901-15.836-14.279-.365-.086-2.815 1.224-5.444 2.913m-292.391 16.126c-4.553 3.404-7.018 7.186-12.139 18.619-1.847 4.125-5.371 12-7.831 17.5-6.23 13.929-12.359 29.272-12.359 30.939 0 1.339 5.785 5.562 7.618 5.561.485-.001 2.156-3.713 3.714-8.25 4.12-12.002 14.722-39.394 20.61-53.25 2.805-6.6 4.978-12.504 4.829-13.119-.15-.621-2.129.27-4.442 2m208.872 4.869c-.124 1.788-.665 7.645-1.204 13.016l-.978 9.766 3.302 7.234c1.816 3.979 6.199 13.609 9.74 21.4l6.439 14.165 6-3.443c3.3-1.893 6.672-3.847 7.493-4.341 1.238-.745.168-3.426-6.275-15.723a2438 2438 0 0 1-15.438-30.074c-4.218-8.388-7.936-15.25-8.262-15.25s-.694 1.462-.817 3.25m109.458 6.812c-3.173 3.884-5.965 7.597-6.204 8.25s.939 2.763 2.616 4.688c10.292 11.811 15.166 17 15.97 17 .503 0 4.364-4.144 8.579-9.209l7.665-9.209-4.892-4.447C612.844 579.274 603.976 572 603.162 572c-.403 0-3.33 3.178-6.503 7.062m-448.72 3.688c-14.802 15.154-13.923 13.128-8.653 19.942 2.471 3.195 5.576 6.814 6.902 8.043l2.409 2.235 8.452-10.116c4.648-5.564 9.492-11.402 10.765-12.974l2.314-2.858-4.69-5.757c-2.579-3.167-4.906-6.322-5.171-7.011-.952-2.481-2.952-1.103-12.328 8.496m105.561-4.412c-2.75 1.19-5.736 2.613-6.635 3.163-1.487.909-20.865 39.16-20.865 41.186 0 1.311 8.306 6.423 9.038 5.563.351-.413 2.991-6.6 5.866-13.75 3.764-9.359 17.607-39.577 17.597-38.413-.001.048-2.251 1.061-5.001 2.251m-28.819 7.046c-4.657 1.108-5.035 1.481-11.25 11.107-3.537 5.478-6.431 10.237-6.431 10.574 0 .806 8.044 8.242 8.423 7.786.629-.757 15.577-29.883 15.577-30.352 0-.599-.194-.572-6.319.885m-48.558 14.189C172.451 603.797 159 622.08 159 622.848c0 .388 3.105 3.786 6.899 7.552 6.861 6.808 6.906 6.833 8.13 4.473.677-1.305 4.377-7.475 8.223-13.711 7.942-12.877 7.938-12.615.322-20.09l-4.184-4.106zm396.555 5.247-6.768 6.821 7.007 9.675c3.854 5.321 7.49 10.576 8.08 11.679.591 1.103 1.395 1.99 1.788 1.971s4.431-3.552 8.973-7.851l8.257-7.816-4.182-4.9c-5.45-6.385-15.116-16.399-15.829-16.399-.306 0-3.603 3.069-7.326 6.82M480 618.126c0 .619-1.578 5.071-3.507 9.892l-3.507 8.766 2.174 5.858c1.196 3.222 2.536 6.272 2.977 6.778.876 1.003 14.863-4.061 14.863-5.381 0-1.713-11.665-27.039-12.454-27.039-.3 0-.546.507-.546 1.126m-283.558 4.624c-1.501 2.612-4.933 8.744-7.626 13.627-5.594 10.139-5.695 9.648 3.344 16.143 3.439 2.47 4.973 3.081 5.53 2.199.703-1.112 2.57-5.188 10.109-22.065l2.611-5.845-4.955-4.366c-2.725-2.401-5.254-4.383-5.62-4.405-.365-.021-1.892 2.1-3.393 4.712m350.058 3.357c-4.806 3.635-7.976 6.748-7.94 7.796.089 2.554 12.731 23.2 13.925 22.74 1.437-.554 18.472-12.764 19.001-13.62.433-.7-15.097-22.316-16.342-22.745-.354-.122-4.244 2.501-8.644 5.829m-328.989 14.811a1279 1279 0 0 1-6.25 14.431c-1.904 4.317-3.08 8.175-2.612 8.573s3.202 2.37 6.076 4.381c4.697 3.288 5.318 3.483 6.136 1.928 1.5-2.853 10.369-28.335 9.99-28.703-.193-.188-2.646-1.883-5.452-3.767l-5.1-3.425zm75.726-2.68c-1.204 1.478-5.237 14.7-5.237 17.171 0 1.626 4.224 3.995 8.457 4.745 1.725.305 2.15-.689 3.58-8.39 1.6-8.611 1.593-8.761-.457-10.547-4.604-4.011-5.254-4.316-6.343-2.979M518 644.554c-4.125 2.407-7.869 4.515-8.321 4.685-.598.225 10.052 23.986 11.922 26.599.457.638 18.399-10.25 18.399-11.164 0-.903-13.856-24.757-14.28-24.585-.121.049-3.595 2.058-7.72 4.465m-276.836 5.196c-1.128 2.178-9.286 28.478-8.927 28.776.145.119 2.504 1.397 5.243 2.839l4.981 2.622.877-2.243c1.345-3.438 6.429-21.801 7.128-25.744.582-3.282.372-3.64-3.371-5.75-4.795-2.703-4.79-2.703-5.931-.5m70.851 3.196c-.584 2.168-1.164 5.639-1.288 7.713-.226 3.753-.201 3.779 5.04 5.206 2.897.788 5.484 1.217 5.748.953s.767-3.218 1.116-6.564l.636-6.085-5.095-2.582-5.096-2.582zm177.205 6.322c-7.081 3.094-7.263 3.262-6.631 6.139.664 3.019 8.269 23.774 8.972 24.484.578.583 17.439-7.09 17.439-7.936 0-1.69-10.664-25.339-11.541-25.592-.527-.152-4.235 1.155-8.239 2.905m-155.021 4.482c-.549 3.163-.923 5.833-.831 5.935s2.523.497 5.4.879l5.232.694v-5.18c0-4.966-.144-5.24-3.468-6.629-1.907-.797-3.887-1.449-4.4-1.449s-1.383 2.587-1.933 5.75m-75.592 10c-1.997 8.112-3.626 15.093-3.619 15.513.012.788 11.087 5.995 11.619 5.463.422-.422 6.393-28.758 6.393-30.337 0-1.125-7.919-5.389-10.008-5.389-.414 0-2.387 6.638-4.385 14.75m98.011-9.198c-.34.886-.618 3.106-.618 4.933 0 3.278.067 3.327 5.044 3.668 4.492.309 5.104.109 5.59-1.831.868-3.459-.533-6.265-3.451-6.913a129 129 0 0 1-4.315-1.032c-.897-.24-1.909.289-2.25 1.175m48.882 1.321c-2.365.502-3.069 1.239-3.326 3.483-.325 2.833-.307 2.842 4 2.12 7.493-1.258 9.068-2.156 7.831-4.467-1.098-2.051-2.996-2.305-8.505-1.136m-25.5 4.572c0 3.862.713 4.162 6.928 2.919 2.712-.542 3.134-1.019 2.875-3.25-.273-2.358-.768-2.644-5.053-2.919l-4.75-.305zm82.186-.959c-3.473 1.27-6.505 2.5-6.738 2.733-.497.497 6.275 24.395 7.629 26.925 1.039 1.941 3.315 1.546 11.204-1.944l4.576-2.024-1.323-4.338c-2.558-8.387-7.584-22.288-8.305-22.97-.401-.38-3.57.349-7.043 1.618m-178.07 3.172c-1.097 4.174-5.116 24.073-5.116 25.334 0 1.054 10.918 5.423 11.671 4.67.33-.329 1.65-6.126 2.935-12.88 1.284-6.755 2.586-13.312 2.893-14.571.459-1.88-.037-2.538-2.776-3.682-1.833-.766-4.518-1.69-5.965-2.054-2.398-.601-2.721-.319-3.642 3.183m23.871 4.025c-.006.449-1.103 7.333-2.436 15.297-1.334 7.964-2.341 14.56-2.238 14.658.648.618 12.191 3.191 12.578 2.804.401-.401 3.949-25.715 4.069-29.034.022-.6-1.873-1.641-4.21-2.313l-6-1.726c-.962-.277-1.756-.136-1.763.314m126.263 1.078c-5.594 1.628-6.044 2.443-4.328 7.84.506 1.594 1.926 7.287 3.154 12.649 2.41 10.525 2.4 10.514 8.924 8.841a254 254 0 0 1 6.185-1.497l2.686-.6-1.969-7.247c-6.586-24.243-5.432-22.67-14.652-19.986m-102.603 5.874c-.308 1.026-1.091 7.65-1.74 14.721-.935 10.182-.922 13.016.06 13.623 1.831 1.132 11.356 2.098 12.214 1.24.732-.732 1.347-29.024.646-29.725-.2-.2-2.671-.67-5.491-1.044-4.475-.593-5.2-.442-5.689 1.185m76.069-.905c-3.639.38-3.763.516-3.255 3.582.291 1.754 1.213 7.463 2.049 12.688 2.519 15.742 1.641 14.374 8.75 13.631 3.384-.354 6.501-.992 6.926-1.417.426-.426.369-2.336-.126-4.244-.495-1.909-1.894-8.307-3.11-14.22-2.468-11.999-1.397-11.045-11.234-10.02m-52.152 6.691c-.365 2.432-.587 9.182-.494 15l.169 10.579h14.065l-.652-10.656c-.359-5.86-.652-12.61-.652-15V685h-11.773zm24.436.088c0 2.299.296 9.022.658 14.939l.659 10.76 6.788-.384c3.733-.211 7.1-.696 7.483-1.078.64-.641-.03-6.112-2.763-22.544l-1.047-6.299-5.889.213-5.889.212zm-231 118.68c-1.925 1.097-3.869 2.345-4.32 2.773-1.048.995 8.092 3.318 25.82 6.563 7.7 1.409 18.95 3.465 25 4.569 6.05 1.103 15.725 2.912 21.5 4.019s19.725 3.571 31 5.475 30.175 5.237 42 7.409 29.375 5.279 39 6.905 26.5 4.585 37.5 6.575 29 5.152 40 7.026 25.4 4.352 32 5.507 22.35 3.878 35 6.053c12.65 2.176 38.975 6.718 58.5 10.094 46.861 8.104 41.975 7.765 48.023 3.326 2.789-2.047 4.93-3.864 4.757-4.037-.315-.314-40.069-7.698-61.78-11.474-6.325-1.1-17.8-3.104-25.5-4.454-23.27-4.077-85.395-14.59-95-16.076-4.95-.766-16.65-2.734-26-4.374s-23.975-4.172-32.5-5.627c-8.525-1.454-28.1-4.87-43.5-7.59-55.261-9.761-110.962-19.132-129.5-21.786-7.975-1.142-15.4-2.255-16.5-2.473s-3.575.501-5.5 1.597m529.875 18.103c-2.956 2.392-12.575 9.782-21.375 16.424s-21.625 16.423-28.5 21.735-16.048 12.188-20.385 15.281c-9.063 6.464-9.259 6.131 5.156 8.78l8.964 1.647 9.882-7.654c5.436-4.21 17.758-14.054 27.383-21.875 9.625-7.822 23.223-18.607 30.217-23.968 6.995-5.361 12.951-10.124 13.235-10.585.285-.46-3.188-1.381-7.717-2.046s-8.966-1.407-9.86-1.648c-.911-.246-3.983 1.47-7 3.909"/>
</svg>
