<svg xmlns="http://www.w3.org/2000/svg" viewBox="0 0 478 262">
  <path fill="#eee5e3" fill-rule="evenodd" d="M425.5 11.573c-7.368 3.831-11.232 11.073-10.144 19.01 1.306 9.523 7.508 15.232 17.539 16.141 14.817 1.344 25.904-11.516 21.044-24.409-1.44-3.818-6.735-9.252-10.657-10.934-4.323-1.855-14.048-1.75-17.782.192M42.25 17.722l-5.25.383v30.817l-8.75.289-8.75.289v24l8.61.287 8.611.287.7 20.713c.385 11.392 1.16 22.513 1.724 24.713 2.383 9.308 10.033 17.234 20.687 21.434 11.173 4.404 31.462 4.937 46.168 1.212l6.5-1.646-.271-6c-.262-5.802-2.031-19.636-2.582-20.186-.149-.149-2.942.167-6.209.702-9.601 1.572-20.442 1.231-24.404-.768-6.382-3.219-7.489-6.666-7.872-24.498L70.824 74h13.463c7.405 0 14.883-.284 16.618-.631l3.154-.631-.279-12.119-.28-12.119-16.176-.274-16.176-.275-.521-2.725c-.287-1.499-.515-8.351-.507-15.226l.015-12.5-11.317-.08c-6.225-.044-13.68.092-16.568.302m327.097 26.31c-18.511 3.319-33.032 15.476-38.128 31.921-2.426 7.829-2.337 25.598.166 33.047 8.65 25.75 36.969 38.071 64.139 27.905l5.476-2.049-.084-5.178c-.098-5.97-1.301-16.407-1.965-17.037-.248-.235-3.601.398-7.451 1.408-20.789 5.452-32.5-2.378-32.5-21.73 0-14.547 7.932-22.503 22.529-22.597 8.4-.054 13.91 2.436 18.769 8.481 2.964 3.689 2.986 3.813 5.374 30.5 1.319 14.739 2.616 27.418 2.881 28.177.39 1.112 3.102 1.291 13.994.921 7.43-.252 13.935-.883 14.456-1.404.594-.594.044-11.569-1.482-29.543-2.166-25.524-2.72-29.336-5.159-35.475-4.562-11.483-16.672-21.49-31.148-25.74-6.622-1.945-23.054-2.829-29.867-1.607m-79.181 3.844c-1.074.681-1.269 6.503-1 29.955l.334 29.109-3.089 3.1c-6.288 6.31-18.051 6.022-24.468-.599-3.203-3.304-3.341-3.787-4.066-14.181-.413-5.918-.779-18.984-.814-29.035L257 47.949l-15.75.276-15.75.275-.054 21c-.075 28.968.838 41.69 3.493 48.688 2.981 7.856 9.811 14.872 18.373 18.874 5.939 2.776 8.184 3.249 17.525 3.692 9.612.456 17.293-.332 22.415-2.297 2.81-1.079 2.028.948-1.947 5.041-9.58 9.864-29.96 13.734-52.206 9.912-5.089-.874-9.391-1.436-9.559-1.25-.586.652-3.596 23.117-3.157 23.557.244.243 3.97 1.396 8.28 2.561 6.569 1.775 10.749 2.126 25.837 2.17 15.923.046 18.919-.214 25.965-2.254 17.429-5.046 27.246-12.697 34.015-26.514 3.647-7.443 4.707-10.883 5.603-18.18 1.464-11.93.242-84.653-1.441-85.735-1.591-1.023-26.842-.925-28.476.111m-106.416.813c-1.614.422-1.75 2.642-1.754 28.634-.003 26.182-.142 28.404-1.956 31.378-2.679 4.395-6.837 6.3-13.74 6.295-6.868-.004-11.323-2.296-14.001-7.202-1.569-2.872-1.863-6.816-2.299-30.794l-.5-27.5h-31v64l3.123 6.591c8.818 18.609 32.21 27.543 58.799 22.455 15.309-2.929 24.952-9.715 30.443-21.426l2.635-5.62-.261-32.948c-.197-24.88-.564-33.14-1.5-33.734-1.291-.82-24.928-.929-27.989-.129M163.233 215.2l.267 26.3 5.767.3 5.766.301-.266-26.301-.267-26.3-5.767-.3-5.766-.301zM297 216v26h12v-13.843c0-7.614-.294-19.314-.654-26L307.693 190H297zm-105.993-9.47c-7.598 3.432-11.007 8.685-11.007 16.96 0 7.194 2.755 12.657 8.197 16.259 3.561 2.357 5.181 2.751 11.303 2.751 6.079 0 7.752-.401 11.202-2.684 5.694-3.768 8.679-10.203 8.081-17.419-.497-5.999-2.292-9.065-8.016-13.698-4.518-3.657-14.13-4.712-19.76-2.169m42.63-.122c-5.179 1.923-9.246 6.001-11.27 11.301-3.612 9.457 2.777 21.637 12.759 24.325 6.952 1.872 18.874-.96 18.874-4.483 0-.769-1.122-2.731-2.493-4.36-2.442-2.902-2.572-2.935-6.472-1.591-4.646 1.601-8.002.713-10.434-2.759-5.277-7.535 2.927-16.944 10.822-12.413 3.033 1.741 3.038 1.739 5.863-1.422 3.307-3.701 3.146-4.85-1.02-7.283-4.23-2.47-11.887-3.076-16.629-1.315m29.988 0c-2.132.793-4.261 1.828-4.731 2.298-1.28 1.28 2.394 7.865 4.139 7.42 7.231-1.844 9.126-2.016 11.647-1.057 2.661 1.011 4.272 2.576 4.305 4.181.008.412-2.797.76-6.235.772-7.946.028-14.009 2.644-16.272 7.021-4.512 8.726 4.639 17.658 15.922 15.542 1.869-.351 3.945-1.296 4.613-2.1 1.276-1.538 3.436-1.021 2.444.584-.331.536 2.038.931 5.584.931h6.16l-.351-12.75c-.381-13.876-1.545-17.45-7.009-21.522-3.509-2.616-14.762-3.351-20.216-1.32m-69.585 11.398c-7.048 7.048-.012 17.19 9.415 13.573 1.938-.744 4.545-5.489 4.545-8.274 0-2.96-4.054-7.022-7.71-7.723-2.684-.515-3.708-.118-6.25 2.424M268.2 228.2c-1.991 1.991-1.368 4.785 1.291 5.797 3.987 1.516 9.509-1.476 9.509-5.152 0-1.537-.801-1.845-4.8-1.845-2.64 0-5.34.54-6 1.2"/>
</svg>
