<svg xmlns="http://www.w3.org/2000/svg" viewBox="0 0 912 874">
  <path fill="currentColor" fill-rule="evenodd" d="M211 10.584c-20.414 2.351-31.344 5.752-56 17.426C114.258 47.299 27.798 90.969 21.619 95.378c-3.967 2.83-7.582 6.409-9.112 9.019l-2.535 4.327.264 306.388c.242 280.743.4 306.688 1.894 309.974 2.098 4.613 7.874 10.197 14.425 13.945l5.176 2.962.492 6.877c.966 13.504 5.974 18.447 25.101 24.775 9.187 3.04 12.689 3.712 19.676 3.775 9.303.084 13.698-1.462 17.57-6.182l2.07-2.524 12.43 4.081c37.508 12.315 97.358 29.861 133.68 39.19 3.813.98 4.25 1.4 4.25 4.093 0 3.435 2.909 9.649 5.644 12.055 3.02 2.658 9.3 5.454 18.356 8.173 17.162 5.152 28.06 5.937 39.268 2.829 8.406-2.331 14.008-5.98 16.905-11.014 2.119-3.682 2.622-3.959 9.152-5.038 18.801-3.104 38.268-13.505 78.675-42.032 10.725-7.572 20.483-14.281 21.684-14.909 1.202-.628 5.519-1.142 9.594-1.142 10.658 0 20.197-3.485 30.43-11.117 7.49-5.586 10.352-10.996 11.027-20.843.541-7.896.578-7.985 4.423-10.649 5.86-4.061 10.609-9.812 11.821-14.314.701-2.603.901-11.054.563-23.806-.289-10.874-.771-46.262-1.072-78.64l-.548-58.87 4.789.701c20.485 2.998 88.015 21.519 144.789 39.71 19.688 6.308 55.242 18.957 58.099 20.669.704.422-.854 3.893-4.336 9.659-2.989 4.95-7.746 13.671-10.571 19.381-5.013 10.131-5.377 10.574-15.164 18.44-5.515 4.433-13.853 11.733-18.528 16.221l-8.5 8.161-13.5 1.086c-16.501 1.326-26.708 3.889-38.5 9.665-25.161 12.325-39.441 34.326-39.485 60.838-.058 34.599 20.987 62.506 57.5 76.25 3.347 1.26 47.913 10.723 99.035 21.03 92.78 18.706 92.975 18.741 106.45 18.782 15.624.049 22.996-1.47 35.5-7.313 18.449-8.621 31.537-23.201 37.852-42.168 8.034-24.129.303-55.982-18.563-76.48l-3.78-4.107 2.002-5.818c3.944-11.462 14.97-49.2 17.943-61.41 9.824-40.344 7.511-71.318-7.573-101.402-17.515-34.933-51.775-66.173-98.881-90.164-60.29-30.705-161.682-60.598-246.05-72.541l-23.051-3.263 4.222-6.427c10.376-15.798 16.506-40.488 14.928-60.125-2.016-25.093-14.589-51.177-31.189-64.707-2.828-2.304-5.703-4.377-6.39-4.606-.983-.327-1.343-20.74-1.688-95.87-.285-62.173-.801-96.632-1.481-98.834-2.356-7.638-11.339-14.24-25.801-18.961-25.948-8.472-131.25-29.409-184-36.585-34.423-4.683-67.376-7.213-78-5.989M209.5 30.6c-17.894 2.673-24.037 5.167-73.058 29.658C113.924 71.508 83.575 86.473 69 93.512c-14.575 7.04-28.006 13.911-29.847 15.269-3.251 2.398-3.294 2.522-1.5 4.29 2.145 2.115 11.518 4.931 41.347 12.425 87.942 22.093 194.53 40.008 227 38.153 29.603-1.691 49.955-10.583 116.382-50.851 29.05-17.609 48.029-30.119 50.03-32.976 1.409-2.011 1.392-2.382-.182-4.13-2.681-2.978-7.661-4.501-36.23-11.085-59.339-13.675-133.193-27.051-177.5-32.147-13.234-1.522-43.555-2.673-49-1.86m11 9.453c-8.678.905-17.586 3.2-26.873 6.922-26.143 10.48-52.441 25.848-62.586 36.576-5.149 5.444-8.983 12.228-9.013 15.949-.062 7.494 4.948 14.226 13.498 18.141 8.46 3.873 41.832 11.192 87.974 19.294 43.858 7.702 71.457 9.932 87.58 7.078 26.964-4.772 61.37-22.227 77.699-39.418 5.714-6.014 7.462-8.616 8.736-12.999 4.035-13.88-5.4-23.469-29.515-29.998-13.666-3.7-45.396-9.979-76-15.04-36.488-6.033-57.604-7.954-71.5-6.505m19.515 14.901c-1.367 1.05-2.175 2.219-1.797 2.597.379.379 4.84 1.54 9.914 2.581s9.412 2.078 9.64 2.306c.227.228-1.051 1.172-2.842 2.098-3.06 1.583-3.878 1.578-13.537-.078-9.914-1.699-10.38-1.697-13.087.07C223.59 67.605 213 76.312 213 77.112c0 .995 1.173 1.301 16.889 4.414l13.388 2.651 2.559-2.558c1.407-1.407 2.297-2.819 1.978-3.138s-4.345-1.328-8.947-2.243c-4.602-.914-8.559-1.797-8.794-1.961s.571-1.228 1.792-2.365c2.204-2.054 2.29-2.056 13.079-.332l10.861 1.736 7.597-6.826c4.179-3.755 7.598-7.171 7.598-7.591 0-.998-1.49-1.412-13.858-3.854-12.646-2.497-13.987-2.504-17.127-.091m36.846 7.026c-3.079 2.581-2.017 3.27 8.504 5.52 4.474.956 8.488 1.946 8.919 2.199.43.253-.249 1.272-1.51 2.264-2.215 1.742-2.659 1.733-13.007-.279l-10.714-2.082-2.496 2.344c-1.372 1.29-2.293 2.672-2.046 3.071.247.4 4.547 1.523 9.555 2.496l9.107 1.769-2.337 2.292-2.336 2.292-9-1.916c-4.95-1.054-10.168-1.923-11.595-1.933-2.92-.019-6.792 3.534-5.331 4.892.887.826 17.257 4.628 26.198 6.084 4.081.666 4.527.476 10-4.26C298.876 77.99 308 68.794 308 67.352c0-1.839-2.423-2.691-14.894-5.234-12.732-2.597-13.308-2.602-16.245-.138m32.889 14.104c-4.605 3.947-6.063 6.853-3.5 6.976.688.032 3.421.416 6.075.853 4.775.784 4.89.739 10.864-4.31l6.038-5.103-3.864-1.173c-7.342-2.23-10.431-1.684-15.613 2.757M171.5 79.647c-6.917 3.614-7.244 7.33-.914 10.395 8.649 4.186 20.914.873 20.914-5.65 0-2.305-.71-3.247-3.5-4.64-4.327-2.162-12.463-2.213-16.5-.105m32.275 9.912c-11.159 6.055.546 15.257 14.484 11.386 7.051-1.958 8.585-8.423 2.72-11.456-3.68-1.903-13.644-1.862-17.204.07m39.55 6.9c-4.452 1.937-6.82 5.748-5.316 8.559 1.578 2.947 6.911 4.982 13.058 4.982 9.517 0 15.917-5.323 12.56-10.447-2.708-4.132-13.968-5.849-20.302-3.094m42.006 5.419c-4.303 2.014-6.331 4.556-6.331 7.934 0 2.587 1.678 3.842 7.064 5.283 13.129 3.511 26.33-6.487 16.283-12.332-4.874-2.835-12.054-3.209-17.016-.885M473 118.338c-26.428 17.702-84.939 52.205-103.191 60.85l-6.992 3.312.711 301.5c.391 165.825.821 301.627.956 301.781.394.452 14.975-8.353 28.703-17.332 23.481-15.359 87.803-64.372 89.577-68.257.785-1.717.13-126.078-1.277-242.692-.424-35.2-1.045-126.891-1.379-203.758l-.608-139.757zM32 434.364v280.363l2.749 2.75c5.857 5.856 23.346 12.909 70.251 28.33 54.353 17.87 137.695 40.914 182 50.322 18.558 3.941 35.562 4.869 45 2.457 11.497-2.939 10.45 3.475 10.834-66.363.184-33.398.016-168.788-.373-300.868l-.708-240.145-8.626 2.922c-28.927 9.797-49.36 9.342-121.627-2.706-53.745-8.96-141.168-27.177-169.997-35.424-3.848-1.101-7.561-2.002-8.25-2.002C32.252 154 32 210.36 32 434.364m23-234.702c-3.863 1.605-7.396 5-9.095 8.739-1.754 3.863-1.862 7.892-1.883 69.889-.021 62.725.067 65.962 1.881 69.5 2.607 5.085 5.606 7.66 12.431 10.679 11.232 4.967 48.752 15.583 86.896 24.585 41.703 9.843 106.816 21.967 117.738 21.924 7.391-.029 13.085-2.716 16.127-7.61l2.405-3.868-.383-68.5c-.411-73.545-.35-72.684-5.628-79.604-4.283-5.615-10.98-7.927-31.489-10.875-38.478-5.53-84.087-14.158-141-26.674-35.763-7.864-44.985-9.437-48-8.185m7.825 25.376c-2.328 1.358-4.146 7.44-3.405 11.39 1.127 6.005 2.923 6.928 27.183 13.97 44.161 12.818 84.376 22.009 133.897 30.601 25.361 4.401 35.099 5.41 38.524 3.991 4.361-1.807 5.884-7.863 4.334-17.24-.548-3.318-.95-3.75-3.489-3.75-1.834 0-2.869.521-2.869 1.444 0 2.107-4.175 6.406-6.5 6.693-3.854.475-6.352-1.156-7.559-4.935-.65-2.036-1.466-4.017-1.813-4.403-.346-.385-6.704-1.638-14.129-2.783-25.93-3.999-77.827-15.054-119.683-25.494-23.202-5.787-42.327-10.508-42.5-10.492-.174.017-1.07.471-1.991 1.008m-1.234 42.212c-2.458 3.8-2.828 7.246-1.198 11.148 1.222 2.925 2.629 4.164 6.846 6.029 9.481 4.193 43.478 13.945 71.761 20.584 36.275 8.515 100.055 20.011 112.715 20.315 6.297.152 7.504-.115 9.493-2.097 1.911-1.904 2.338-3.562 2.641-10.25.283-6.222.064-7.982-.993-7.993-.746-.007-2.305-.268-3.465-.579-1.706-.458-2.22-.026-2.688 2.263-.915 4.472-3.068 6.663-6.549 6.663-3.913 0-6.936-2.655-7.708-6.769l-.593-3.161-17.176-2.782c-52.536-8.51-104.966-20.323-147.229-33.173-10.239-3.113-13.942-3.16-15.857-.198m439.087 75.5c.329 22.413.682 40.859.786 40.993.104.133 1.822-3.019 3.819-7.005 7.657-15.285 9.796-35.061 5.602-51.798-2.121-8.466-8.412-22.94-9.971-22.94-.458 0-.564 18.337-.236 40.75M63.092 305.648c-3.677 2.575-4.677 11.508-1.708 15.264 1.816 2.297 10.054 5.489 28.116 10.894 59.877 17.919 159.476 37.594 169.955 33.573 2.875-1.103 4.545-5.961 4.545-13.222 0-5.409-.35-7.077-1.582-7.55-3.343-1.283-5.201-.607-5.888 2.143-1.021 4.095-3.446 6.25-7.03 6.25-3.67 0-5.995-2.183-6.922-6.5l-.644-3-23.717-3.906c-52.28-8.609-94.749-18.174-133.717-30.117-16.395-5.025-19.028-5.496-21.408-3.829M429 324.138c-13.475 7.72-25.574 15.01-26.886 16.199-5.304 4.808-6.092 8.709-6.159 30.505-.062 20.447.344 23.101 3.958 25.876.873.67 3.406 1.233 5.629 1.25 3.399.027 8.098-2.282 29.5-14.497 14.176-8.09 26.872-16.031 28.648-17.919 1.754-1.865 3.718-5.34 4.364-7.722 1.484-5.473.737-36.03-.985-40.33-2.107-5.257-4.972-7.506-9.493-7.449-3.363.042-8.36 2.505-28.576 14.087m1 29.773-15.5 8.883-.302 5.103c-.167 2.807.058 5.064.5 5.015.441-.048 7.552-3.985 15.802-8.75l15-8.662.528-5.25c.29-2.887.29-5.244 0-5.236-.291.008-7.503 4.012-16.028 8.897m70.975 70.654c-.536 1.411-.942 7.823-.903 14.25l.073 11.685 2.755-8.5c1.515-4.675 3.937-10.808 5.382-13.628 1.446-2.821 2.348-5.408 2.006-5.75s-2.357-.622-4.479-.622c-3.222 0-4.019.423-4.834 2.565m29.194 1.946c-7.615 6.408-16.276 30.811-18.245 51.407-1.867 19.521 2.743 42.46 9.676 48.149 1.597 1.31 1.688 1.218 1.064-1.067-3.137-11.491-3.214-32.887-.174-48.727 2.892-15.072 10.187-33.861 17.68-45.539 1.698-2.645 2.881-5.016 2.63-5.268-.252-.251-2.468-.733-4.924-1.07-3.89-.533-4.884-.26-7.707 2.115m29.395 6.536c-7.72 7.117-16.45 27.067-19.67 44.953-1.836 10.201-1.587 31.694.466 40.271 1.801 7.524 4.593 13.62 7.233 15.796 1.586 1.307 1.685 1.213 1.124-1.067-.337-1.375-1.122-6.55-1.744-11.5-3.202-25.504 5.735-58.998 22.248-83.374 5.509-8.134 5.354-9.083-1.493-9.111-3.03-.012-4.637.782-8.164 4.032m29.485 7.716c-7.002 7.272-13.277 18.351-17.52 30.934-4.44 13.168-5.947 22.467-5.964 36.803-.015 12.974 1.31 20.208 5.08 27.732 2.181 4.354 6.745 8.711 7.907 7.549.269-.269-.079-2.917-.774-5.885-.747-3.192-1.254-11.932-1.24-21.396.021-14.27.33-17.19 2.858-27 4.666-18.11 11.902-33.206 21.854-45.597 2.612-3.252 4.75-6.092 4.75-6.31 0-.219-1.417-.891-3.149-1.495-6.007-2.094-7.915-1.449-13.802 4.665m36.451 3.342c-10.325 5.981-21.734 24.763-27.207 44.79-2.313 8.466-2.635 11.561-2.708 26.105-.076 14.841.148 17.142 2.222 22.886 1.268 3.513 3.361 7.939 4.651 9.837 2.236 3.291 6.321 6.876 6.984 6.129.171-.194-.551-4.402-1.606-9.352-2.831-13.285-2.099-36.278 1.572-49.393 4.731-16.899 13.271-32.725 23.374-43.317 4.015-4.209 5.265-6.143 4.481-6.927-1.597-1.597-9.443-2.102-11.763-.758m27.365 11.346c-9.086 6.668-18.573 21.474-23.738 37.049-7.556 22.786-6.435 48.172 2.77 62.679 2.706 4.265 6.641 7.616 7.699 6.558.234-.234-.208-2.221-.983-4.416-.774-2.195-1.904-7.189-2.51-11.097-4.725-30.451 6.202-64.588 27.534-86.017 6.248-6.277 6.258-6.296 3.749-7.25-4.967-1.889-9.644-1.085-14.521 2.494M686 463.1c-13.539 8.094-26.189 28.998-31.105 51.4-1.96 8.934-1.686 28.653.499 35.957 2.58 8.624 5.961 14.769 10.147 18.445 2.018 1.772 3.829 3.062 4.024 2.867s-.528-3.189-1.606-6.653c-4.696-15.087-4.453-34.286.657-51.919 4.999-17.249 16.775-35.926 28.493-45.189l5.093-4.026-3.569-1.491c-4.882-2.04-8.494-1.866-12.633.609m32.087 10.578c-8.113 4.112-20.514 18.182-26.455 30.015-7.501 14.938-10.743 39.547-7.221 54.807 1.555 6.735 7.163 19.5 8.568 19.5.374 0 .041-3.038-.741-6.75-2.002-9.506-1.127-29.297 1.734-39.25 6.265-21.79 20.454-41.982 37.468-53.318l3.94-2.625-3.883-1.623c-5.902-2.466-9.624-2.676-13.41-.756m29.182 14.345c-15.832 7.912-30.981 28.547-36.322 49.477-4.085 16.007-3.611 35.499 1.082 44.485l1.836 3.515-.077-11c-.227-32.628 19.449-65.556 48.425-81.037l5.976-3.193-4.344-2.048c-7.588-3.576-9.765-3.602-16.576-.199m32.938 15.954c-17.758 6.389-34.541 23.639-43.215 44.415-1.123 2.69-1.872 5.062-1.663 5.27.208.208 1.553-1.397 2.99-3.567 4.232-6.396 15.114-16.591 24.065-22.546 12.738-8.476 27.76-14.107 39.362-14.756 2.885-.161 5.247-.569 5.25-.907.015-2.157-15.59-9.936-19.757-9.85-.956.02-4.121.893-7.032 1.941M801 527.691c-13.858 2.32-32.208 13.029-43.063 25.134-7.965 8.882-7.817 9.83.645 4.12 27.231-18.376 58.636-22.29 87.513-10.908 2.698 1.064 4.905 1.536 4.905 1.049 0-1.539-11.101-11.103-16.402-14.131-8.386-4.789-22.874-7.059-33.598-5.264m-7.555 29.269c-10.385 2.724-18.942 6.569-27.945 12.558-6.937 4.615-17.016 13.482-15.324 13.482.32 0 3.164-1.555 6.32-3.456 19.529-11.759 45.965-17.068 66.038-13.26 25.209 4.783 45.425 19.226 56.574 40.42 2.282 4.339 2.892 4.972 2.892 3.003 0-4.001-3.934-15.753-7.203-21.515-6.455-11.382-19.192-22.242-32.361-27.593-14.009-5.692-35.169-7.264-48.991-3.639m-.945 23.696c-6.951.825-15.389 2.665-21 4.577-11.599 3.955-26.035 12.323-31.5 18.26l-2.5 2.716 4-1.73c9.686-4.189 25.921-9.482 33.491-10.918 11.69-2.217 30.451-2.042 40.509.378 25.907 6.236 45.1 20.724 57.704 43.561 2.345 4.248 2.762 4.614 2.778 2.432.051-7.243-6.736-22.189-14.273-31.432-5.056-6.201-13.712-13.699-20.252-17.544-13.639-8.02-33.31-12.158-48.957-10.3m-13 26.355c-21.433 1.94-42.984 11.568-56 25.02l-5 5.167 8.354-4.162c32.235-16.062 65.765-17.111 96.826-3.027 12.23 5.545 26.425 16.547 33.533 25.991 1.449 1.925 4.724 7.325 7.278 12l4.643 8.5-.647-5c-2.825-21.837-18.695-44.057-39.041-54.664-10.889-5.677-20.055-8.494-31.946-9.818-4.95-.551-9.225-.941-9.5-.866-.275.074-4.1.461-8.5.859M757 636.64c-14.464 2.755-35.383 10.949-42 16.452l-2.5 2.078 2.5-.626c19.697-4.932 23.881-5.553 37.637-5.585 23.447-.055 40.705 3.778 59.863 13.298 11.376 5.652 18.926 11.31 28.282 21.194 6.638 7.012 9.204 10.708 13.772 19.834 3.088 6.168 5.843 11.44 6.123 11.715.815.799-.705-8.829-2.697-17.084-5.998-24.867-21.428-44.022-43.402-53.881-13.376-6.001-19.655-7.25-38.078-7.573-9.35-.164-18.125-.084-19.5.178m-53.313 44.451c-8.305.877-17.288 2.92-22.82 5.188l-3.367 1.381 7 .712c3.85.392 12.175 1.614 18.5 2.717 17.232 3.004 102.087 19.853 105.25 20.898 1.705.564 2.75.549 2.75-.039 0-.521-.35-.948-.777-.948s-3.094-1.741-5.927-3.87c-11.972-8.995-37.887-19.814-56.296-23.501-16.728-3.351-29.622-4.089-44.313-2.538m-76.187 18.49c-1.1.266-4.025.984-6.5 1.596-14.06 3.475-29.218 15.612-34.981 28.011-11.475 24.687-.678 55.666 25.137 72.124 12.489 7.961 23.715 11.148 69.344 19.682 12.1 2.263 23.013 4.364 24.25 4.669 1.925.474 2.25.154 2.25-2.217 0-3.722 4.463-11.136 7.253-12.048 2.355-.769 8.512-.661 9.863.174.433.267-.091 2.536-1.164 5.04-1.074 2.505-1.952 6.237-1.952 8.294v3.741l15.75 3.204c8.663 1.763 18.675 3.861 22.25 4.663 20.715 4.647 50.477 10.45 56.605 11.036 13.672 1.308 29.679-3.009 40.933-11.04 8.148-5.814 12.788-11.309 17.1-20.25 7.255-15.042 6.71-32.057-1.564-48.814-6.702-13.573-16.989-23.257-32.345-30.45-13.06-6.116-14.867-6.533-91.729-21.126-23.954-4.547-64.045-11.609-79-13.914-12.937-1.994-37.308-3.388-41.5-2.375m-1.391 12c-16.514 4.442-26.893 13.624-31.261 27.659-7.481 24.036 8.407 50.068 36.91 60.476C642.906 803.787 693 814.632 693 812.974c0-.39-4.612-3.019-10.25-5.842-17.617-8.822-29.002-19.869-36.651-35.563-6.106-12.526-8.477-26.069-6.076-34.711 1.087-3.915 2.274-5.245 5.581-6.257 1.974-.603 2.138-.192 2.655 6.628 1.439 19.016 13.588 38.867 30.778 50.296 12.904 8.578 27.13 14.122 49.857 19.43 30.574 7.139 51.262 6.385 69.603-2.537 12.073-5.874 24.375-21.162 26.341-32.735.894-5.266 3.862-6.152 7.047-2.103 2.528 3.214 2.648 6.564.531 14.776-5.704 22.12-24.999 36.459-54.666 40.623-4.812.675-8.75 1.572-8.75 1.993 0 2.409 34.863 9.255 47.5 9.327 20.899.119 37.885-9.178 45.674-25 5.952-12.091 4.914-29.867-2.461-42.15-6.648-11.071-19.876-20.814-35.326-26.019-10.594-3.568-112.963-22.955-159.136-30.136-21.061-3.276-30.894-3.631-39.142-1.413"/>
</svg>
