<svg xmlns="http://www.w3.org/2000/svg" viewBox="0 0 580 970">
  <path fill="currentColor" fill-rule="evenodd" d="M246.5 8.627C142.863 10.66 85.449 16.48 55.167 28.022 33.902 36.128 17.06 50.466 12.606 64.256c-1.463 4.531-1.605 37.575-1.59 371.109.01 227.939.382 370.664.987 378.135.535 6.6 1.703 17.175 2.596 23.5 8.043 56.964 34.433 85.055 90.618 96.462 6.444 1.309 12.182 2.666 12.75 3.018.568.351 1.033 1.686 1.033 2.966 0 3.754 6.058 11.724 11.422 15.025 4.141 2.549 6.151 3.085 12.685 3.382 12.222.556 18.656-3.068 25.393-14.299.933-1.556 2.674-1.551 26 .065 45.833 3.175 177.893 2.393 210.15-1.244 4.663-.525 5.215-.375 5.838 1.588 1.206 3.799 6.835 9.278 12.005 11.686 6.397 2.979 17.04 3.201 23.029.48 6.998-3.179 14.381-12.543 14.456-18.334.015-1.178 1.179-1.909 3.772-2.368 66.339-11.744 92.267-39.852 100.942-109.427 1.715-13.753 1.808-33.719 1.808-387.5v-373l-3.426-6.319C550.336 35.687 516.814 21.197 461 15.058c-15.311-1.684-51.457-3.943-80-5-28.359-1.05-109.758-1.916-134.5-1.431M202 23.093c-78.184 3.17-106.06 6.78-134.441 17.41-23.033 8.627-38.454 21.804-38.537 32.931-.054 7.163 7.275 15.604 18.513 21.324C81.532 112.06 166.587 119.88 308 118.707c118.232-.981 180.371-6.954 215-20.667 10.854-4.298 20.571-11.376 23.565-17.165 2.033-3.933 1.789-11.261-.527-15.801-4.644-9.103-20.556-19.424-40.764-26.44-26.457-9.185-60.49-13.178-133.107-15.616-34.512-1.158-140.908-1.112-170.167.075m25.5 1.899c-48.521 1.035-82.301 3.11-108 6.634-28.675 3.933-51.321 13.293-59.012 24.391-3.824 5.519-4.51 13.078-1.682 18.558C66.511 89.511 91.003 98.578 134 102.414c84.809 7.565 247.34 7.059 319-.992 40.089-4.504 64.571-16.346 66.706-32.264 2.183-16.279-19.431-30.138-57.133-36.636-34.581-5.959-144.178-9.47-235.073-7.53M224 47.67c-51.599 1.874-77.519 5.721-83.567 12.404-2.301 2.542-.791 4.274 5.908 6.78 11.317 4.233 34.44 6.383 87.659 8.152 68.586 2.279 154.876-.052 184.171-4.976 10.304-1.731 18.695-5.031 19.559-7.691.595-1.832-3.623-5.145-8.639-6.785-18.324-5.991-66.269-8.665-149.591-8.342-26.4.102-51.375.308-55.5.458m-119 2.913c-12.099 6.88-16.235 16.32-10.731 24.488 2.325 3.45 9.272 8.224 13.731 9.435 1.375.374.04-.825-2.966-2.663C98.044 77.569 95 73.132 95 67.22c0-6.078 2.795-10.25 10.166-15.172 6.795-4.538 6.701-5.37-.166-1.465m365 .003c8.382 4.773 12 9.537 12 15.799 0 7.306-3.953 12.212-13.5 16.757-3.3 1.571-5.325 2.852-4.5 2.847.825-.004 3.975-1.158 7-2.562 12.873-5.976 17.288-15.303 11.372-24.021-3.131-4.613-4.395-5.679-10.589-8.93-6.201-3.255-7.547-3.172-1.783.11m-13.177 1.774c6.588 4.102 9.162 7.838 9.17 13.313.017 10.42-12.264 16.304-41.277 19.776-17.19 2.057-41.312 3.489-68.716 4.079-12.925.278-31.825.689-42 .912-24.714.543-114.566-1.086-134-2.428-29.711-2.053-51.494-5.673-59.88-9.951-9.464-4.828-12.03-13.677-5.97-20.579 1.733-1.974 4.771-4.479 6.75-5.567 2.608-1.434 2.911-1.805 1.1-1.35-4.064 1.023-9.934 5.278-12.035 8.725-3.113 5.104-2.594 10.008 1.543 14.588 8.559 9.473 28.033 13.207 84.992 16.298 36.331 1.972 149.471 1.653 189.5-.534 53.263-2.91 70.677-6.331 79.5-15.616 2.567-2.701 3-3.931 3-8.511 0-6.281-1.993-8.993-10-13.612-6.894-3.977-8.218-3.616-1.677.457M84.307 53.892c-8.573 6.211-10.847 12.296-7.319 19.584 1.157 2.39 2.764 4.598 3.57 4.908 1.269.487 1.263.171-.046-2.361-3.693-7.141-.838-17.118 6.433-22.483 1.894-1.397 2.974-2.54 2.399-2.54-.574 0-2.841 1.302-5.037 2.892M492.81 56.41c5.785 6.276 6.639 13.632 2.388 20.575-1.362 2.226-1.167 2.16 1.706-.578 6.162-5.876 4.691-15.8-3.239-21.849-5.05-3.852-5.404-3.084-.855 1.852m-43.983 1.097c2.576 3.275 2.871 9.051.627 12.255-8.65 12.35-50.982 16.645-163.954 16.637-95.877-.007-137.35-3.261-152.158-11.939-6.853-4.016-9.141-10.513-5.723-16.245 1.463-2.453 1.318-2.399-1.5.551-5.446 5.702-3.554 11.55 5.44 16.822 16.086 9.427 71.137 13.209 175.941 12.087 91.141-.975 123.863-3.889 138.313-12.317 4.426-2.582 8.177-7.466 8.183-10.658.006-2.782-2.78-7.514-5.179-8.798l-2.163-1.158zM28.97 119.315c-.53 270.453-.196 419.708.943 421.08 2.423 2.92 12.624 9.061 21.177 12.749 19.86 8.564 53.405 16.055 91.014 20.324 29.91 3.396 60.356 4.648 126.896 5.218 86.986.746 134.762-.946 175.107-6.203 48.263-6.287 85.153-17.12 101.143-29.701l3.75-2.95V104.085l-5.894 3.512c-33.302 19.837-110.724 28.405-256.606 28.397-140.119-.008-217.802-8.666-250.81-27.955L29 104.13zm199.093 85.109c-2.384 2.873-.11 3.576 11.566 3.576 11.364 0 11.506-.028 11.191-2.25-.306-2.151-.788-2.262-10.921-2.532-8.419-.225-10.855.024-11.836 1.206m30.126.615c-1.866 1.738-2.189 3.117-2.189 9.345 0 9.784 1.102 10.815 11.13 10.412 5.753-.231 7.37-.625 7.37-1.796 0-1.139-1.483-1.571-6.165-1.796-6.096-.292-9.228-1.95-7.862-4.16.355-.574 3.768-1.044 7.586-1.044H275v-4.5c0-6.328-2.379-8.5-9.311-8.5-3.963 0-5.867.518-7.5 2.039m22.266.416c-3.348 3.347-3.544 12.891-.35 16.952 1.98 2.516 2.533 2.659 9.24 2.385 5.861-.24 7.193-.604 7.468-2.042.29-1.522-.517-1.75-6.204-1.75-5.531 0-6.705-.31-7.617-2.015-1.357-2.536-.576-2.85 8.008-3.211l6.5-.274.31-3.736c.464-5.605-3.072-8.764-9.81-8.764-4.072 0-5.582.491-7.545 2.455m22.719-.141c-1.784 1.9-2.174 3.513-2.174 9 0 9.409 1.578 10.874 11.293 10.479 5.609-.228 7.207-.626 7.207-1.793 0-1.131-1.466-1.575-5.965-1.806-6.119-.315-8.535-1.395-8.535-3.816 0-1.048 1.796-1.378 7.5-1.378h7.5v-4.427c0-3.592-.497-4.819-2.635-6.5-3.808-2.996-11.269-2.869-14.191.241m22.076-.789c-2.787 1.968-3.063 7.429-.493 9.755.971.878 3.993 1.732 6.75 1.905 4.221.266 4.993.624 4.993 2.315 0 1.775-.766 2.033-6.814 2.297-5.79.253-6.766.553-6.49 2 .266 1.39 1.701 1.758 7.815 2.002 6.667.267 7.681.063 9.239-1.86 2.409-2.974 2.192-5.588-.705-8.484-1.891-1.891-3.505-2.455-7.031-2.455-3.274 0-4.752-.456-5.191-1.601-.926-2.412 1.567-3.435 7.677-3.153 4.918.227 5.5.042 5.5-1.746 0-1.766-.761-2.033-6.5-2.282-4.69-.203-7.127.161-8.75 1.307M347 205c-1.642 1.642-2 3.333-2 9.443 0 6.558.264 7.629 2.223 9 2.958 2.073 15.32 2.191 16.101.155.834-2.172-.21-2.598-6.368-2.598-3.926 0-6.111-.482-6.991-1.542-1.966-2.37-.134-3.321 7.035-3.655l6.5-.303.317-3.864c.48-5.851-2.581-8.636-9.491-8.636-3.993 0-5.827.501-7.326 2m-85.947 3.437c-2.131 2.566-.52 4.565 3.666 4.548 5.084-.021 7.134-1.358 5.68-3.707-1.452-2.344-7.637-2.901-9.346-.841m23.197-.798c-.687.29-1.25 1.39-1.25 2.444 0 1.637.74 1.917 5.07 1.917 4.685 0 5.045-.171 4.75-2.25-.256-1.797-1.024-2.289-3.82-2.445-1.925-.107-4.062.043-4.75.334m21.95.561c-2.867 2.867-.687 4.8 5.413 4.8 3.826 0 5.389-2.088 3.376-4.513-1.481-1.784-7.108-1.968-8.789-.287m44.046-.046c-2.306 2.306-1.273 3.57 3.447 4.217 5.337.732 7.398-.41 5.683-3.149-1.307-2.086-7.399-2.799-9.13-1.068m-122.91 4.414c-1.056 2.752 1.714 3.449 12.664 3.185 9.749-.235 10.5-.396 10.5-2.253 0-1.865-.761-2.019-11.269-2.283-9.671-.243-11.357-.051-11.895 1.351m3.164 7.408c-2.146.389-3 1.11-3 2.534 0 1.85.779 2.01 11.102 2.271 9.118.231 11.334.001 12.407-1.292.773-.932.936-1.92.399-2.422-1.104-1.032-16.734-1.848-20.908-1.091M28.764 663.88c-.314 140.882-.087 150.36 4.266 177.768 3.778 23.791 13.7 42.929 28.82 55.592 6.709 5.618 22.933 13.215 35.65 16.693 38.464 10.52 114.077 15.747 213.864 14.782 95.642-.925 153.67-7.192 184.587-19.936 25.749-10.614 41.122-30.224 47.514-60.612 4.829-22.957 4.823-22.768 5.252-160.483l.405-129.817-8.311 4.478C508.817 579.584 446.93 590.354 365 592.94c-33.866 1.069-143.03.494-171.319-.903-34.643-1.71-70.67-5.478-92.181-9.641-25.063-4.85-51.205-12.977-65.002-20.207L29 558.26zm252.459-13.219c-4.718 2.325-8.011 6.711-8.707 11.594-.333 2.335-.473 51.08-.311 108.323l.295 104.078 2.733 3.583c6.87 9.007 20.85 8.234 26.772-1.48 1.95-3.198 1.988-5.253 1.991-109.861L304 660.296l-2.274-3.374c-4.978-7.388-13.153-9.884-20.503-6.261m3.432 11.168c-1.518 1.677-1.655 10.425-1.655 105.345 0 99.015.08 103.588 1.829 105.171 2.296 2.078 4.576 2.107 6.6.084C292.837 871.02 293 860.082 293 767s-.163-104.02-1.571-105.429c-2.088-2.087-4.743-1.987-6.774.258M137.089 940.607c2.157 2.599 8.467 3.605 12.374 1.973 4.726-1.975 4.479-2.553-.52-1.219-3.254.868-4.941.764-8.528-.525-3.511-1.263-4.225-1.312-3.326-.229m303.498-.436c-1.051.611-4.28 1.145-7.175 1.186-5.531.08-6.355 1.033-1.677 1.941 3.765.73 7.346-.09 10.297-2.357 2.668-2.05 1.673-2.58-1.445-.77"/>
</svg>
