<svg xmlns="http://www.w3.org/2000/svg" viewBox="0 0 512 512">
  <path fill="#040404" fill-rule="evenodd" d="M105 17c-16 2-35 10-48 20-18 13-32 35-38 57l-2 9v307l2 8c9 33 33 60 65 72 16 6 4 6 172 6 145 0 154-1 160-2q60-18 78-78c1-6 2-15 2-160 0-168 0-156-6-172-12-31-38-56-71-65l-8-2-152-1zm8 16q-34 3-57 28a85 85 0 0 0-21 39c-2 7-2 10-3 149l1 151c4 42 36 74 78 79h290q31-3 53-25 22-23 25-53V111q-3-30-25-53a85 85 0 0 0-53-25zM98 58q-31 9-41 40l-1 116v110l2 2 3 2h391l2-2 2-3V213l-1-115q-10-31-41-41c-8-2-309-2-316 1m7 15c-16 3-29 17-32 33l-1 106v100h368V212l-1-106q-6-27-33-33zm249 33c-5 6-1 14 6 14q8 0 8-8c0-7-9-11-14-6m-224 8q-4 6 0 12c3 2 3 2 32 2h30v56h-60l-2 2c-2 3-2 3-2 42v40l2 2c3 2 3 2 38 2h36l2-2q4-6 0-12c-3-2-3-2-32-2h-30v-56h60l2-2c2-3 2-3 2-42v-40l-2-2c-3-2-3-2-38-2h-36zm104 0q-4 6 0 12c3 2 3 2 32 2h30v56h-60l-2 2c-2 3-2 3-2 42v40l2 2c3 2 3 2 38 2h36l2-2q5-6 0-12c-3-2-3-2-32-2h-30v-56h60l2-2c2-3 2-3 2-42v-40l-2-2c-3-2-3-2-38-2h-36zm120 24c-5 6-1 14 6 14q8 0 8-8c0-7-9-11-14-6m-4 32q-8 4-12 12c-5 12 0 26 11 32q17 6 29-5c6-7 8-19 4-28-6-12-20-16-32-11m7 15c-7 3-5 14 3 14q7 0 7-7-1-9-10-7m-3 49c-5 6-1 14 6 14q8 0 8-8c0-7-9-11-14-6m0 32c-5 6-1 14 6 14q8 0 8-8c0-7-9-11-14-6m-212 96q-32 9-47 38-6 15-7 29 0 8 2 9c3 2 4 2 12 2 35-2 64-31 66-66 0-8 0-9-2-12q-1-2-9-2zm75 14-22 18c-6 5-3 14 5 14 3 0 6-2 22-15l18-14 18 14c16 13 19 15 22 15 8 0 11-9 5-14l-45-34c-3 0-6 2-23 16m148-14q-15 9-17 25 0 6-4 6-8 4-14 12c-5 12-1 25 9 31l5 4h64l5-4c10-6 14-19 9-31q-6-8-14-12-4 0-4-6-2-18-18-25-10-5-21 0m7 15q-8 6-7 20 3 12-11 12-6-1-7 2-4 5 0 10c2 2 3 3 29 3s27-1 29-3q4-5 0-10-1-3-7-2-14 0-11-12 1-14-8-20zm-229 2q-20 7-30 25c-4 5-9 18-8 19s14-4 20-8q19-11 25-35 3-6-7-1m65 43c0 19-3 18 32 18s32 1 32-18v-14h-16v16h-32v-16h-16z"/>
</svg>
