<svg xmlns="http://www.w3.org/2000/svg" viewBox="0 0 842 842">
  <path fill="currentColor" fill-rule="evenodd" d="M289 6q-33 6-52 29c-5 6-11 18-14 28l-2 8v234l4 17c5 21 6 24 7 34 1 6 2 60 2 210l1 203 2 7q17 48 63 59l129 1c120-1 122-1 129-3q46-15 59-62l2-202 1-208 8-46c4-13 4-23 4-135l-1-111-2-7q-13-40-52-53c-15-5-15-5-152-5-106 0-130 0-136 2m14 19q-14 0-29 8-23 11-31 36l-1 120v114l5 19 5 20V228l1-121q4-50 48-65c16-5 21-6 125-5 103 0 110 0 125 5q41 14 48 60l1 123v116l5-19 5-18 1-112-1-118c-3-17-16-34-31-41-10-5-17-7-32-8zm38 31c-35 2-53 11-63 30-6 13-5-7-5 314l1 306q8 50 45 65c19 7 40 8 119 8 61-1 71-1 86-6q19-4 30-16c12-11 18-23 23-45l3-10V402c0-289-1-301-2-306q-4-14-13-22-12-13-42-17c-9-1-163-2-182-1m75 17c-9 1-23 6-31 10a83 83 0 0 0-39 51c-3 11-3 29 0 40a83 83 0 0 0 141 35c5-5 12-16 15-22a81 81 0 0 0-39-105q-22-12-47-9m-6 22q-30 9-42 38c-4 9-5 24-3 33 2 8 8 21 13 27 7 9 21 18 33 21 8 1 23 1 31-1 22-5 39-23 45-46 2-9 1-24-2-32q-11-28-39-39c-9-3-26-4-36-1m7 14q-28 7-36 33c-6 22 4 43 25 54 7 3 8 4 18 4 9 0 12 0 17-2q19-6 28-25c3-7 3-8 3-19s0-12-3-19q-6-13-17-20-17-10-35-6m-4 17c-8 2-13 11-11 18q4 12 19 6 7-4 9-13 1-4-3-7l-6-4zm-2 120c-18 4-35 17-43 34-6 11-8 30-4 43a65 65 0 0 0 91 42c27-13 41-44 34-72-6-23-24-42-47-47-8-2-23-2-31 0m-4 19q-12 5-16 15-3 6 0 13c5 11 23 11 33-1q7-6 6-14 0-7-6-12c-3-2-13-2-17-1m192 272c-1 174-1 169-6 192-3 10-11 28-17 36a84 84 0 0 1-42 27c-19 5-20 5-103 6l-90-1q-34-5-52-19c-17-15-27-33-33-62-2-13-3-77-3-206 0-125 0-135-1-128a10508 10508 0 0 0 1 365q5 45 36 61c15 8 7 8 137 8s122 0 137-8q28-14 36-50l2-189zM402 405l-2 5 2 4c2 2 3 2 24 2l24-1c3-2 3-9 0-11l-24-1c-21 0-22 0-24 2m-24 22q-4 5 0 9l2 3h46c44 0 46-1 48-2q5-6 0-10c-1-2-6-2-48-2h-47zm-14 20c-4 2-5 10-1 12l63 1h62l2-2q5-5 0-10l-3-2h-60zm22 23q-4 5 0 10l39 2c39 0 41 0 43-5q1-4-2-7c-1-2-4-2-40-2h-39zm19 21q-4 4 0 10c2 2 3 2 21 2 22 0 23 0 23-7s-1-7-23-7c-15 0-19 0-21 2m-20 43q-57 5-73 38c-9 17-11 34-11 77 1 41 3 54 11 71q4 8 11 15c15 14 32 21 65 23 18 1 78 1 91-1q46-6 61-36c9-17 11-34 11-74s-2-57-10-74c-4-10-16-22-26-27-20-10-39-13-89-13zm15 17c-38 2-58 9-69 26-8 13-11 31-11 68 0 34 2 52 10 66 12 24 38 31 107 30 30-1 39-2 53-6q24-5 33-24c6-11 8-21 9-44v-41c-1-24-3-33-8-44-10-21-28-29-74-31zm4 11c-45 2-62 12-69 39-5 17-5 65-1 84 6 27 19 38 49 43 16 2 70 2 86 0 30-5 42-14 48-37 3-13 4-25 4-54-1-29-2-36-8-48q-9-22-49-26c-13-1-43-2-60-1m-9 18c-23 2-33 7-39 18-6 13-8 66-3 87 5 18 15 23 49 26 16 1 49 1 63-1 14-3 20-5 27-12 8-8 10-20 10-54 0-36-3-49-15-56-10-6-20-8-54-9zm26 14q-4 3-7 9 0 3-3 4-7 6-13 17l-3 15c-1 12-2 13-7 18-6 8-8 10-8 14q0 8 5 9l27 3 2 4q4 8 13 8t12-8l1-4 11-1 14-1 6-3q3-2 2-7 0-4-7-12l-7-9c0-6-2-21-4-26q-6-11-13-17-3-1-3-4-2-6-8-9zm-2 22c-7 3-9 9-12 26q-1 17-8 23l-3 3c0 3 34 5 50 3l10-2-3-7c-6-7-6-10-8-23q-1-17-9-22t-17-1"/>
</svg>
